<svg xmlns="http://www.w3.org/2000/svg" width="920" height="420" viewBox="0 0 920 420">
<rect width="100%" height="100%" fill="#ffffff"/>
<text x="58" y="28" font-size="18" font-family="Arial" font-weight="700" fill="#111827">calib-2019 RIOT named (named, 2019-07-01 to 2019-12-31)</text>
<line x1="58" y1="58.0" x2="862" y2="58.0" stroke="#e6e8ef"/>
<text x="12" y="62.0" font-size="12" fill="#4b5563">2.93</text>
<line x1="58" y1="134.0" x2="862" y2="134.0" stroke="#e6e8ef"/>
<text x="12" y="138.0" font-size="12" fill="#4b5563">2.45</text>
<line x1="58" y1="210.0" x2="862" y2="210.0" stroke="#e6e8ef"/>
<text x="12" y="214.0" font-size="12" fill="#4b5563">1.96</text>
<line x1="58" y1="286.0" x2="862" y2="286.0" stroke="#e6e8ef"/>
<text x="12" y="290.0" font-size="12" fill="#4b5563">1.47</text>
<line x1="58" y1="362.0" x2="862" y2="362.0" stroke="#e6e8ef"/>
<text x="12" y="366.0" font-size="12" fill="#4b5563">0.99</text>
<line x1="58" y1="362" x2="862" y2="362" stroke="#111827"/>
<line x1="58" y1="58" x2="58" y2="362" stroke="#111827"/>
<polyline points="58.0,93.0 64.3,80.5 70.7,82.1 77.0,79.0 83.3,82.1 89.7,105.5 96.0,118.0 102.3,149.2 108.6,163.2 115.0,172.6 121.3,191.3 127.6,203.8 134.0,196.0 140.3,206.9 146.6,211.6 153.0,200.6 159.3,208.4 165.6,202.2 172.0,208.4 178.3,213.1 184.6,217.8 190.9,172.6 197.3,183.5 203.6,171.0 209.9,166.3 216.3,191.3 222.6,185.0 228.9,192.8 235.3,175.7 241.6,191.3 247.9,206.9 254.3,231.8 260.6,233.4 266.9,227.2 273.2,222.5 279.6,217.8 285.9,220.9 292.2,213.1 298.6,208.4 304.9,216.2 311.2,219.4 317.6,219.4 323.9,222.5 330.2,228.7 336.6,216.2 342.9,188.2 349.2,192.8 355.5,197.5 361.9,199.1 368.2,203.8 374.5,202.2 380.9,196.0 387.2,185.0 393.5,185.0 399.9,174.1 406.2,189.7 412.5,205.3 418.9,194.4 425.2,202.2 431.5,217.8 437.8,221.7 444.2,227.2 450.5,247.4 456.8,238.1 463.2,245.9 469.5,253.7 475.8,259.9 482.2,253.7 488.5,247.4 494.8,252.1 501.1,233.4 507.5,238.1 513.8,235.0 520.1,236.5 526.5,238.1 532.8,250.6 539.1,247.4 545.5,249.0 551.8,250.6 558.1,256.8 564.5,270.8 570.8,270.8 577.1,253.7 583.4,250.6 589.8,264.6 596.1,267.7 602.4,272.4 608.8,270.8 615.1,256.8 621.4,266.2 627.8,270.8 634.1,281.8 640.4,278.6 646.8,277.1 653.1,278.6 659.4,280.2 665.7,267.7 672.1,280.2 678.4,288.0 684.7,291.1 691.1,292.7 697.4,294.2 703.7,283.3 710.1,305.2 716.4,308.3 722.7,305.2 729.1,298.9 735.4,313.0 741.7,309.8 748.0,314.5 754.4,309.8 760.7,309.8 767.0,314.5 773.4,313.0 779.7,309.8 786.0,309.8 792.4,306.7 798.7,308.3 805.0,313.0 811.4,308.3 817.7,309.8 824.0,308.3 830.3,308.3 836.7,311.4 843.0,313.0 849.3,325.4 855.7,337.9 862.0,341.0" fill="none" stroke="#2563eb" stroke-width="2.4"/>
<polyline points="58.0,93.0 64.3,93.0 70.7,93.0 77.0,93.0 83.3,93.0 89.7,93.0 96.0,93.0 102.3,93.0 108.6,93.0 115.0,93.0 121.3,93.0 127.6,93.0 134.0,93.0 140.3,93.0 146.6,93.0 153.0,93.0 159.3,93.0 165.6,93.0 172.0,93.0 178.3,93.0 184.6,93.0 190.9,93.0 197.3,93.0 203.6,93.0 209.9,93.0 216.3,93.0 222.6,93.0 228.9,93.0 235.3,93.0 241.6,93.0 247.9,93.0 254.3,93.0 260.6,93.0 266.9,93.0 273.2,93.0 279.6,93.0 285.9,93.0 292.2,93.0 298.6,93.0 304.9,93.0 311.2,93.0 317.6,93.0 323.9,93.0 330.2,93.0 336.6,93.0 342.9,93.0 349.2,93.0 355.5,93.0 361.9,93.0 368.2,93.0 374.5,93.0 380.9,93.0 387.2,93.0 393.5,93.0 399.9,93.0 406.2,93.0 412.5,93.0 418.9,93.0 425.2,93.0 431.5,93.0 437.8,93.0 444.2,93.0 450.5,93.0 456.8,93.0 463.2,93.0 469.5,93.0 475.8,93.0 482.2,93.0 488.5,93.0 494.8,93.0 501.1,93.0 507.5,93.0 513.8,93.0 520.1,93.0 526.5,93.0 532.8,93.0 539.1,93.0 545.5,93.0 551.8,93.0 558.1,93.0 564.5,93.0 570.8,93.0 577.1,93.0 583.4,93.0 589.8,93.0 596.1,93.0 602.4,93.0 608.8,93.0 615.1,93.0 621.4,93.0 627.8,93.0 634.1,93.0 640.4,93.0 646.8,93.0 653.1,93.0 659.4,93.0 665.7,93.0 672.1,93.0 678.4,93.0 684.7,93.0 691.1,93.0 697.4,93.0 703.7,93.0 710.1,93.0 716.4,93.0 722.7,93.0 729.1,93.0 735.4,93.0 741.7,93.0 748.0,93.0 754.4,93.0 760.7,93.0 767.0,93.0 773.4,93.0 779.7,93.0 786.0,93.0 792.4,93.0 798.7,93.0 805.0,93.0 811.4,93.0 817.7,93.0 824.0,93.0 830.3,93.0 836.7,93.0 843.0,93.0 849.3,93.0 855.7,93.0 862.0,93.0" fill="none" stroke="#dc2626" stroke-width="2.4"/>
<text x="58" y="400" font-size="12" fill="#4b5563">2019-07-01</text>
<text x="780" y="400" font-size="12" fill="#4b5563">2019-12-31</text>
<rect x="675" y="44" width="14" height="14" fill="#2563eb"/>
<text x="696" y="56" font-size="13" fill="#111827">actual close</text>
<rect x="675" y="68" width="14" height="14" fill="#dc2626"/>
<text x="696" y="80" font-size="13" fill="#111827">sim auction price</text>
</svg>