<svg xmlns="http://www.w3.org/2000/svg" width="920" height="420" viewBox="0 0 920 420">
<rect width="100%" height="100%" fill="#ffffff"/>
<text x="58" y="28" font-size="18" font-family="Arial" font-weight="700" fill="#111827">calib-2019 GOLD named (named, 2019-07-01 to 2019-12-31)</text>
<line x1="58" y1="58.0" x2="862" y2="58.0" stroke="#e6e8ef"/>
<text x="12" y="62.0" font-size="12" fill="#4b5563">14.99</text>
<line x1="58" y1="134.0" x2="862" y2="134.0" stroke="#e6e8ef"/>
<text x="12" y="138.0" font-size="12" fill="#4b5563">13.11</text>
<line x1="58" y1="210.0" x2="862" y2="210.0" stroke="#e6e8ef"/>
<text x="12" y="214.0" font-size="12" fill="#4b5563">11.23</text>
<line x1="58" y1="286.0" x2="862" y2="286.0" stroke="#e6e8ef"/>
<text x="12" y="290.0" font-size="12" fill="#4b5563">9.36</text>
<line x1="58" y1="362.0" x2="862" y2="362.0" stroke="#e6e8ef"/>
<text x="12" y="366.0" font-size="12" fill="#4b5563">7.48</text>
<line x1="58" y1="362" x2="862" y2="362" stroke="#111827"/>
<line x1="58" y1="58" x2="58" y2="362" stroke="#111827"/>
<polyline points="58.0,138.5 64.3,145.4 70.7,134.1 77.0,146.2 83.3,158.8 89.7,162.0 96.0,162.8 102.3,159.6 108.6,187.1 115.0,177.0 121.3,169.3 127.6,166.5 134.0,169.3 140.3,175.7 146.6,175.0 153.0,174.4 159.3,175.4 165.6,176.6 172.0,175.0 178.3,176.2 184.6,162.8 190.9,151.5 197.3,124.7 203.6,113.0 209.9,118.3 216.3,118.7 222.6,90.7 228.9,96.8 235.3,97.6 241.6,104.9 247.9,79.0 254.3,98.6 260.6,97.5 266.9,98.0 273.2,93.5 279.6,81.8 285.9,85.9 292.2,84.2 298.6,90.3 304.9,85.4 311.2,96.4 317.6,86.3 323.9,81.8 330.2,90.7 336.6,91.1 342.9,91.5 349.2,100.0 355.5,98.8 361.9,100.0 368.2,102.1 374.5,96.0 380.9,107.3 387.2,157.1 393.5,168.9 399.9,172.9 406.2,199.3 412.5,203.4 418.9,177.4 425.2,172.9 431.5,179.0 437.8,185.1 444.2,175.8 450.5,179.0 456.8,177.0 463.2,160.0 469.5,165.2 475.8,172.9 482.2,143.0 488.5,137.7 494.8,134.9 501.1,128.4 507.5,128.0 513.8,142.6 520.1,157.5 526.5,160.8 532.8,207.0 539.1,207.0 545.5,210.6 551.8,213.4 558.1,227.6 564.5,227.6 570.8,234.5 577.1,219.5 583.4,230.9 589.8,232.9 596.1,226.0 602.4,216.3 608.8,216.3 615.1,220.3 621.4,229.3 627.8,259.6 634.1,242.2 640.4,244.6 646.8,234.9 653.1,243.8 659.4,245.4 665.7,246.7 672.1,251.7 678.4,254.6 684.7,253.5 691.1,250.7 697.4,256.8 703.7,250.0 710.1,262.0 716.4,274.6 722.7,284.3 729.1,281.9 735.4,292.4 741.7,296.5 748.0,302.1 754.4,285.1 760.7,294.5 767.0,294.9 773.4,299.1 779.7,296.5 786.0,296.9 792.4,300.1 798.7,308.6 805.0,324.8 811.4,333.7 817.7,339.8 824.0,331.3 830.3,332.9 836.7,341.0 843.0,332.5 849.3,335.0 855.7,332.9 862.0,330.1" fill="none" stroke="#2563eb" stroke-width="2.4"/>
<polyline points="58.0,138.5 64.3,138.5 70.7,138.5 77.0,138.5 83.3,138.5 89.7,138.5 96.0,138.5 102.3,138.5 108.6,138.5 115.0,138.5 121.3,138.5 127.6,138.5 134.0,138.5 140.3,138.5 146.6,138.5 153.0,138.5 159.3,138.5 165.6,138.5 172.0,138.5 178.3,138.5 184.6,138.5 190.9,138.5 197.3,138.5 203.6,138.5 209.9,138.5 216.3,138.5 222.6,138.5 228.9,138.5 235.3,138.5 241.6,138.5 247.9,138.5 254.3,138.5 260.6,138.5 266.9,138.5 273.2,138.5 279.6,138.5 285.9,138.5 292.2,138.5 298.6,138.5 304.9,138.5 311.2,138.5 317.6,138.5 323.9,138.5 330.2,138.5 336.6,138.5 342.9,138.5 349.2,138.5 355.5,138.5 361.9,138.5 368.2,138.5 374.5,138.5 380.9,138.5 387.2,138.5 393.5,138.5 399.9,138.5 406.2,138.5 412.5,138.5 418.9,138.5 425.2,138.5 431.5,138.5 437.8,138.5 444.2,138.5 450.5,138.5 456.8,138.5 463.2,138.5 469.5,138.5 475.8,138.5 482.2,138.5 488.5,138.5 494.8,138.5 501.1,138.5 507.5,138.5 513.8,138.5 520.1,138.5 526.5,138.5 532.8,138.5 539.1,138.5 545.5,138.5 551.8,138.5 558.1,138.5 564.5,138.5 570.8,138.5 577.1,138.5 583.4,138.5 589.8,138.5 596.1,138.5 602.4,138.5 608.8,138.5 615.1,138.5 621.4,138.5 627.8,138.5 634.1,138.5 640.4,138.5 646.8,138.5 653.1,138.5 659.4,138.5 665.7,138.5 672.1,138.5 678.4,138.5 684.7,138.5 691.1,138.5 697.4,138.5 703.7,138.5 710.1,138.5 716.4,138.5 722.7,138.5 729.1,138.5 735.4,138.5 741.7,138.5 748.0,138.5 754.4,138.5 760.7,138.5 767.0,138.5 773.4,138.5 779.7,138.5 786.0,138.5 792.4,138.5 798.7,138.5 805.0,138.5 811.4,138.5 817.7,138.5 824.0,138.5 830.3,138.5 836.7,138.5 843.0,138.5 849.3,138.5 855.7,138.5 862.0,138.5" fill="none" stroke="#dc2626" stroke-width="2.4"/>
<text x="58" y="400" font-size="12" fill="#4b5563">2019-07-01</text>
<text x="780" y="400" font-size="12" fill="#4b5563">2019-12-31</text>
<rect x="675" y="44" width="14" height="14" fill="#2563eb"/>
<text x="696" y="56" font-size="13" fill="#111827">actual close</text>
<rect x="675" y="68" width="14" height="14" fill="#dc2626"/>
<text x="696" y="80" font-size="13" fill="#111827">sim auction price</text>
</svg>