<svg xmlns="http://www.w3.org/2000/svg" width="920" height="420" viewBox="0 0 920 420">
<rect width="100%" height="100%" fill="#ffffff"/>
<text x="58" y="28" font-size="18" font-family="Arial" font-weight="700" fill="#111827">calib-2019 IIPR alias (alias, 2019-07-01 to 2019-12-31)</text>
<line x1="58" y1="58.0" x2="862" y2="58.0" stroke="#e6e8ef"/>
<text x="12" y="62.0" font-size="12" fill="#4b5563">143.21</text>
<line x1="58" y1="134.0" x2="862" y2="134.0" stroke="#e6e8ef"/>
<text x="12" y="138.0" font-size="12" fill="#4b5563">122.93</text>
<line x1="58" y1="210.0" x2="862" y2="210.0" stroke="#e6e8ef"/>
<text x="12" y="214.0" font-size="12" fill="#4b5563">102.66</text>
<line x1="58" y1="286.0" x2="862" y2="286.0" stroke="#e6e8ef"/>
<text x="12" y="290.0" font-size="12" fill="#4b5563">82.38</text>
<line x1="58" y1="362.0" x2="862" y2="362.0" stroke="#e6e8ef"/>
<text x="12" y="366.0" font-size="12" fill="#4b5563">62.10</text>
<line x1="58" y1="362" x2="862" y2="362" stroke="#111827"/>
<line x1="58" y1="58" x2="58" y2="362" stroke="#111827"/>
<polyline points="58.0,126.2 64.3,143.0 70.7,112.5 77.0,106.9 83.3,127.7 89.7,98.9 96.0,98.9 102.3,79.0 108.6,122.2 115.0,117.2 121.3,113.3 127.6,123.7 134.0,131.5 140.3,132.6 146.6,170.7 153.0,208.8 159.3,201.5 165.6,199.8 172.0,191.0 178.3,193.9 184.6,186.6 190.9,198.7 197.3,213.1 203.6,209.8 209.9,223.8 216.3,207.1 222.6,197.6 228.9,205.0 235.3,210.6 241.6,219.8 247.9,192.2 254.3,207.6 260.6,210.4 266.9,197.1 273.2,181.7 279.6,172.2 285.9,172.4 292.2,196.2 298.6,214.3 304.9,209.9 311.2,216.0 317.6,211.1 323.9,213.7 330.2,260.6 336.6,254.5 342.9,275.6 349.2,264.0 355.5,282.5 361.9,272.3 368.2,272.8 374.5,254.2 380.9,263.5 387.2,252.4 393.5,253.4 399.9,239.0 406.2,237.2 412.5,229.9 418.9,237.9 425.2,236.7 431.5,258.2 437.8,252.2 444.2,238.3 450.5,235.9 456.8,248.5 463.2,262.8 469.5,254.5 475.8,257.7 482.2,252.6 488.5,259.7 494.8,270.7 501.1,271.9 507.5,306.3 513.8,299.5 520.1,303.1 526.5,301.6 532.8,306.1 539.1,307.9 545.5,322.9 551.8,318.9 558.1,324.4 564.5,326.6 570.8,323.0 577.1,325.4 583.4,341.0 589.8,335.9 596.1,322.5 602.4,309.9 608.8,311.6 615.1,310.3 621.4,305.7 627.8,322.6 634.1,295.5 640.4,275.3 646.8,288.8 653.1,294.8 659.4,287.5 665.7,285.3 672.1,274.4 678.4,284.3 684.7,284.6 691.1,294.9 697.4,295.5 703.7,302.7 710.1,302.5 716.4,302.3 722.7,306.0 729.1,304.6 735.4,304.3 741.7,302.1 748.0,308.7 754.4,322.9 760.7,320.8 767.0,321.8 773.4,317.0 779.7,319.6 786.0,318.7 792.4,317.3 798.7,317.4 805.0,319.5 811.4,317.4 817.7,318.1 824.0,328.7 830.3,312.7 836.7,309.9 843.0,301.1 849.3,312.4 855.7,319.5 862.0,310.4" fill="none" stroke="#2563eb" stroke-width="2.4"/>
<polyline points="58.0,126.2 64.3,126.2 70.7,126.2 77.0,126.2 83.3,126.2 89.7,126.2 96.0,126.2 102.3,126.2 108.6,126.2 115.0,126.2 121.3,126.2 127.6,126.2 134.0,126.2 140.3,126.2 146.6,126.2 153.0,126.2 159.3,126.2 165.6,126.2 172.0,126.2 178.3,126.2 184.6,126.2 190.9,126.2 197.3,126.2 203.6,126.2 209.9,126.2 216.3,126.2 222.6,126.2 228.9,126.2 235.3,126.2 241.6,126.2 247.9,126.2 254.3,126.2 260.6,126.2 266.9,126.2 273.2,126.2 279.6,126.2 285.9,126.2 292.2,126.2 298.6,126.2 304.9,126.2 311.2,126.2 317.6,126.2 323.9,126.2 330.2,126.2 336.6,126.2 342.9,126.2 349.2,126.2 355.5,126.2 361.9,126.2 368.2,126.2 374.5,126.2 380.9,126.2 387.2,126.2 393.5,126.2 399.9,126.2 406.2,126.2 412.5,126.2 418.9,126.2 425.2,126.2 431.5,126.2 437.8,126.2 444.2,126.2 450.5,126.2 456.8,126.2 463.2,126.2 469.5,126.2 475.8,126.2 482.2,126.2 488.5,126.2 494.8,126.2 501.1,126.2 507.5,126.2 513.8,126.2 520.1,126.2 526.5,126.2 532.8,126.2 539.1,126.2 545.5,126.2 551.8,126.2 558.1,126.2 564.5,126.2 570.8,126.2 577.1,126.2 583.4,126.2 589.8,126.2 596.1,126.2 602.4,126.2 608.8,126.2 615.1,126.2 621.4,126.2 627.8,126.2 634.1,126.2 640.4,126.2 646.8,126.2 653.1,126.2 659.4,126.2 665.7,126.2 672.1,126.2 678.4,126.2 684.7,126.2 691.1,126.2 697.4,126.2 703.7,126.2 710.1,126.2 716.4,126.2 722.7,126.2 729.1,126.2 735.4,126.2 741.7,126.2 748.0,126.2 754.4,126.2 760.7,126.2 767.0,126.2 773.4,126.2 779.7,126.2 786.0,126.2 792.4,126.2 798.7,126.2 805.0,126.2 811.4,126.2 817.7,126.2 824.0,126.2 830.3,126.2 836.7,126.2 843.0,126.2 849.3,126.2 855.7,126.2 862.0,126.2" fill="none" stroke="#dc2626" stroke-width="2.4"/>
<text x="58" y="400" font-size="12" fill="#4b5563">2019-07-01</text>
<text x="780" y="400" font-size="12" fill="#4b5563">2019-12-31</text>
<rect x="675" y="44" width="14" height="14" fill="#2563eb"/>
<text x="696" y="56" font-size="13" fill="#111827">actual close</text>
<rect x="675" y="68" width="14" height="14" fill="#dc2626"/>
<text x="696" y="80" font-size="13" fill="#111827">sim auction price</text>
</svg>