<svg xmlns="http://www.w3.org/2000/svg" width="920" height="420" viewBox="0 0 920 420">
<rect width="100%" height="100%" fill="#ffffff"/>
<text x="58" y="28" font-size="18" font-family="Arial" font-weight="700" fill="#111827">calib-2019 IGC alias (alias, 2019-07-01 to 2019-12-31)</text>
<line x1="58" y1="58.0" x2="862" y2="58.0" stroke="#e6e8ef"/>
<text x="12" y="62.0" font-size="12" fill="#4b5563">1.71</text>
<line x1="58" y1="134.0" x2="862" y2="134.0" stroke="#e6e8ef"/>
<text x="12" y="138.0" font-size="12" fill="#4b5563">1.41</text>
<line x1="58" y1="210.0" x2="862" y2="210.0" stroke="#e6e8ef"/>
<text x="12" y="214.0" font-size="12" fill="#4b5563">1.12</text>
<line x1="58" y1="286.0" x2="862" y2="286.0" stroke="#e6e8ef"/>
<text x="12" y="290.0" font-size="12" fill="#4b5563">0.82</text>
<line x1="58" y1="362.0" x2="862" y2="362.0" stroke="#e6e8ef"/>
<text x="12" y="366.0" font-size="12" fill="#4b5563">0.52</text>
<line x1="58" y1="362" x2="862" y2="362" stroke="#111827"/>
<line x1="58" y1="58" x2="58" y2="362" stroke="#111827"/>
<polyline points="58.0,91.8 64.3,117.4 70.7,127.6 77.0,86.6 83.3,96.9 89.7,99.4 96.0,107.1 102.3,79.0 108.6,96.9 115.0,104.6 121.3,109.7 127.6,132.7 134.0,160.9 140.3,137.8 146.6,155.7 153.0,168.5 159.3,168.5 165.6,186.4 172.0,181.3 178.3,176.2 184.6,173.6 190.9,189.0 197.3,199.2 203.6,189.0 209.9,206.9 216.3,190.0 222.6,176.2 228.9,199.2 235.3,206.9 241.6,219.7 247.9,222.3 254.3,229.9 260.6,237.6 266.9,224.8 273.2,222.3 279.6,237.6 285.9,204.4 292.2,212.0 298.6,222.3 304.9,227.4 311.2,232.5 317.6,232.5 323.9,229.9 330.2,232.5 336.6,214.6 342.9,227.4 349.2,209.5 355.5,190.5 361.9,212.0 368.2,212.0 374.5,212.0 380.9,222.3 387.2,206.9 393.5,209.5 399.9,222.3 406.2,219.7 412.5,196.7 418.9,204.4 425.2,209.5 431.5,229.9 437.8,224.8 444.2,232.5 450.5,229.9 456.8,247.4 463.2,251.0 469.5,260.7 475.8,247.9 482.2,250.6 488.5,256.8 494.8,260.7 501.1,272.9 507.5,273.5 513.8,269.5 520.1,276.8 526.5,261.4 532.8,263.2 539.1,240.2 545.5,235.1 551.8,240.2 558.1,243.2 564.5,250.4 570.8,246.6 577.1,247.9 583.4,250.4 589.8,259.4 596.1,253.9 602.4,260.6 608.8,255.6 615.1,255.5 621.4,261.9 627.8,255.5 634.1,265.7 640.4,268.3 646.8,270.9 653.1,276.2 659.4,284.4 665.7,293.9 672.1,298.0 678.4,293.9 684.7,296.6 691.1,293.1 697.4,278.8 703.7,296.5 710.1,294.4 716.4,295.1 722.7,299.0 729.1,299.0 735.4,301.3 741.7,306.7 748.0,308.9 754.4,311.1 760.7,314.4 767.0,308.0 773.4,313.6 779.7,320.8 786.0,320.5 792.4,329.0 798.7,337.4 805.0,339.3 811.4,341.0 817.7,334.6 824.0,329.7 830.3,337.1 836.7,336.1 843.0,338.7 849.3,338.7 855.7,340.0 862.0,334.9" fill="none" stroke="#2563eb" stroke-width="2.4"/>
<polyline points="58.0,91.8 64.3,91.8 70.7,91.8 77.0,91.8 83.3,91.8 89.7,91.8 96.0,91.8 102.3,91.8 108.6,91.8 115.0,91.8 121.3,91.8 127.6,91.8 134.0,91.8 140.3,91.8 146.6,91.8 153.0,91.8 159.3,91.8 165.6,91.8 172.0,91.8 178.3,91.8 184.6,91.8 190.9,91.8 197.3,91.8 203.6,91.8 209.9,91.8 216.3,91.8 222.6,91.8 228.9,91.8 235.3,91.8 241.6,91.8 247.9,91.8 254.3,91.8 260.6,91.8 266.9,91.8 273.2,91.8 279.6,91.8 285.9,91.8 292.2,91.8 298.6,91.8 304.9,91.8 311.2,91.8 317.6,91.8 323.9,91.8 330.2,91.8 336.6,91.8 342.9,91.8 349.2,91.8 355.5,91.8 361.9,91.8 368.2,91.8 374.5,91.8 380.9,91.8 387.2,91.8 393.5,91.8 399.9,91.8 406.2,91.8 412.5,91.8 418.9,91.8 425.2,91.8 431.5,91.8 437.8,91.8 444.2,91.8 450.5,91.8 456.8,91.8 463.2,91.8 469.5,91.8 475.8,91.8 482.2,91.8 488.5,91.8 494.8,91.8 501.1,91.8 507.5,91.8 513.8,91.8 520.1,91.8 526.5,91.8 532.8,91.8 539.1,91.8 545.5,91.8 551.8,91.8 558.1,91.8 564.5,91.8 570.8,91.8 577.1,91.8 583.4,91.8 589.8,91.8 596.1,91.8 602.4,91.8 608.8,91.8 615.1,91.8 621.4,91.8 627.8,91.8 634.1,91.8 640.4,91.8 646.8,91.8 653.1,91.8 659.4,91.8 665.7,91.8 672.1,91.8 678.4,91.8 684.7,91.8 691.1,91.8 697.4,91.8 703.7,91.8 710.1,91.8 716.4,91.8 722.7,91.8 729.1,91.8 735.4,91.8 741.7,91.8 748.0,91.8 754.4,91.8 760.7,91.8 767.0,91.8 773.4,91.8 779.7,91.8 786.0,91.8 792.4,91.8 798.7,91.8 805.0,91.8 811.4,91.8 817.7,91.8 824.0,91.8 830.3,91.8 836.7,91.8 843.0,91.8 849.3,91.8 855.7,91.8 862.0,91.8" fill="none" stroke="#dc2626" stroke-width="2.4"/>
<text x="58" y="400" font-size="12" fill="#4b5563">2019-07-01</text>
<text x="780" y="400" font-size="12" fill="#4b5563">2019-12-31</text>
<rect x="675" y="44" width="14" height="14" fill="#2563eb"/>
<text x="696" y="56" font-size="13" fill="#111827">actual close</text>
<rect x="675" y="68" width="14" height="14" fill="#dc2626"/>
<text x="696" y="80" font-size="13" fill="#111827">sim auction price</text>
</svg>