<svg xmlns="http://www.w3.org/2000/svg" width="920" height="420" viewBox="0 0 920 420">
<rect width="100%" height="100%" fill="#ffffff"/>
<text x="58" y="28" font-size="18" font-family="Arial" font-weight="700" fill="#111827">calib-2019 CRBP alias (alias, 2019-07-01 to 2019-12-31)</text>
<line x1="58" y1="58.0" x2="862" y2="58.0" stroke="#e6e8ef"/>
<text x="12" y="62.0" font-size="12" fill="#4b5563">7.30</text>
<line x1="58" y1="134.0" x2="862" y2="134.0" stroke="#e6e8ef"/>
<text x="12" y="138.0" font-size="12" fill="#4b5563">6.49</text>
<line x1="58" y1="210.0" x2="862" y2="210.0" stroke="#e6e8ef"/>
<text x="12" y="214.0" font-size="12" fill="#4b5563">5.69</text>
<line x1="58" y1="286.0" x2="862" y2="286.0" stroke="#e6e8ef"/>
<text x="12" y="290.0" font-size="12" fill="#4b5563">4.88</text>
<line x1="58" y1="362.0" x2="862" y2="362.0" stroke="#e6e8ef"/>
<text x="12" y="366.0" font-size="12" fill="#4b5563">4.07</text>
<line x1="58" y1="362" x2="862" y2="362" stroke="#111827"/>
<line x1="58" y1="58" x2="58" y2="362" stroke="#111827"/>
<polyline points="58.0,79.0 64.3,94.9 70.7,99.6 77.0,101.5 83.3,110.0 89.7,105.3 96.0,108.1 102.3,117.5 108.6,123.1 115.0,129.7 121.3,146.6 127.6,149.4 134.0,161.6 140.3,175.7 146.6,168.2 153.0,182.3 159.3,170.1 165.6,179.5 172.0,172.0 178.3,179.5 184.6,174.8 190.9,180.4 197.3,182.3 203.6,213.3 209.9,224.6 216.3,214.2 222.6,208.6 228.9,203.9 235.3,191.7 241.6,180.4 247.9,171.0 254.3,205.8 260.6,230.2 266.9,209.5 273.2,206.7 279.6,213.3 285.9,202.0 292.2,218.0 298.6,246.2 304.9,237.7 311.2,248.0 317.6,239.6 323.9,248.0 330.2,257.4 336.6,265.9 342.9,259.3 349.2,252.7 355.5,232.1 361.9,246.2 368.2,240.5 374.5,210.5 380.9,214.2 387.2,204.8 393.5,206.7 399.9,218.9 406.2,218.0 412.5,229.3 418.9,249.9 425.2,249.0 431.5,259.3 437.8,264.9 444.2,267.8 450.5,274.3 456.8,286.6 463.2,287.5 469.5,271.1 475.8,270.1 482.2,285.6 488.5,294.1 494.8,318.5 501.1,310.0 507.5,311.0 513.8,307.2 520.1,307.2 526.5,289.4 532.8,292.7 539.1,280.9 545.5,275.3 551.8,253.7 558.1,259.3 564.5,256.5 570.8,249.0 577.1,234.0 583.4,244.3 589.8,237.7 596.1,262.1 602.4,258.4 608.8,253.7 615.1,254.6 621.4,264.9 627.8,283.7 634.1,320.4 640.4,313.3 646.8,329.8 653.1,334.5 659.4,341.0 665.7,340.1 672.1,326.0 678.4,333.5 684.7,326.9 691.1,316.6 697.4,295.9 703.7,313.8 710.1,301.6 716.4,314.7 722.7,311.9 729.1,302.5 735.4,309.1 741.7,295.9 748.0,266.8 754.4,279.0 760.7,262.1 767.0,284.7 773.4,284.7 779.7,281.9 786.0,266.8 792.4,270.6 798.7,260.3 805.0,262.6 811.4,252.3 817.7,260.3 824.0,257.4 830.3,231.1 836.7,222.7 843.0,214.2 849.3,235.8 855.7,238.6 862.0,231.1" fill="none" stroke="#2563eb" stroke-width="2.4"/>
<polyline points="58.0,79.0 64.3,79.0 70.7,79.0 77.0,79.0 83.3,79.0 89.7,79.0 96.0,79.0 102.3,79.0 108.6,79.0 115.0,79.0 121.3,79.0 127.6,79.0 134.0,79.0 140.3,79.0 146.6,79.0 153.0,79.0 159.3,79.0 165.6,79.0 172.0,79.0 178.3,79.0 184.6,79.0 190.9,79.0 197.3,79.0 203.6,79.0 209.9,79.0 216.3,79.0 222.6,79.0 228.9,79.0 235.3,79.0 241.6,79.0 247.9,79.0 254.3,79.0 260.6,79.0 266.9,79.0 273.2,79.0 279.6,79.0 285.9,79.0 292.2,79.0 298.6,79.0 304.9,79.0 311.2,79.0 317.6,79.0 323.9,79.0 330.2,79.0 336.6,79.0 342.9,79.0 349.2,79.0 355.5,79.0 361.9,79.0 368.2,79.0 374.5,79.0 380.9,79.0 387.2,79.0 393.5,79.0 399.9,79.0 406.2,79.0 412.5,79.0 418.9,79.0 425.2,79.0 431.5,79.0 437.8,79.0 444.2,79.0 450.5,79.0 456.8,79.0 463.2,79.0 469.5,79.0 475.8,79.0 482.2,79.0 488.5,79.0 494.8,79.0 501.1,79.0 507.5,79.0 513.8,79.0 520.1,79.0 526.5,79.0 532.8,79.0 539.1,79.0 545.5,79.0 551.8,79.0 558.1,79.0 564.5,79.0 570.8,79.0 577.1,79.0 583.4,79.0 589.8,79.0 596.1,79.0 602.4,79.0 608.8,79.0 615.1,79.0 621.4,79.0 627.8,79.0 634.1,79.0 640.4,79.0 646.8,79.0 653.1,79.0 659.4,79.0 665.7,79.0 672.1,79.0 678.4,79.0 684.7,79.0 691.1,79.0 697.4,79.0 703.7,79.0 710.1,79.0 716.4,79.0 722.7,79.0 729.1,79.0 735.4,79.0 741.7,79.0 748.0,79.0 754.4,79.0 760.7,79.0 767.0,79.0 773.4,79.0 779.7,79.0 786.0,79.0 792.4,79.0 798.7,79.0 805.0,79.0 811.4,79.0 817.7,79.0 824.0,79.0 830.3,79.0 836.7,79.0 843.0,79.0 849.3,79.0 855.7,79.0 862.0,79.0" fill="none" stroke="#dc2626" stroke-width="2.4"/>
<text x="58" y="400" font-size="12" fill="#4b5563">2019-07-01</text>
<text x="780" y="400" font-size="12" fill="#4b5563">2019-12-31</text>
<rect x="675" y="44" width="14" height="14" fill="#2563eb"/>
<text x="696" y="56" font-size="13" fill="#111827">actual close</text>
<rect x="675" y="68" width="14" height="14" fill="#dc2626"/>
<text x="696" y="80" font-size="13" fill="#111827">sim auction price</text>
</svg>