<svg xmlns="http://www.w3.org/2000/svg" width="920" height="420" viewBox="0 0 920 420">
<rect width="100%" height="100%" fill="#ffffff"/>
<text x="58" y="28" font-size="18" font-family="Arial" font-weight="700" fill="#111827">calib-2019 VKTX alias (alias, 2019-07-01 to 2019-12-31)</text>
<line x1="58" y1="58.0" x2="862" y2="58.0" stroke="#e6e8ef"/>
<text x="12" y="62.0" font-size="12" fill="#4b5563">8.92</text>
<line x1="58" y1="134.0" x2="862" y2="134.0" stroke="#e6e8ef"/>
<text x="12" y="138.0" font-size="12" fill="#4b5563">8.24</text>
<line x1="58" y1="210.0" x2="862" y2="210.0" stroke="#e6e8ef"/>
<text x="12" y="214.0" font-size="12" fill="#4b5563">7.55</text>
<line x1="58" y1="286.0" x2="862" y2="286.0" stroke="#e6e8ef"/>
<text x="12" y="290.0" font-size="12" fill="#4b5563">6.87</text>
<line x1="58" y1="362.0" x2="862" y2="362.0" stroke="#e6e8ef"/>
<text x="12" y="366.0" font-size="12" fill="#4b5563">6.19</text>
<line x1="58" y1="362" x2="862" y2="362" stroke="#111827"/>
<line x1="58" y1="58" x2="58" y2="362" stroke="#111827"/>
<polyline points="58.0,124.6 64.3,160.2 70.7,135.7 77.0,136.8 83.3,130.2 89.7,107.9 96.0,120.1 102.3,143.5 108.6,134.6 115.0,133.5 121.3,93.4 127.6,132.4 134.0,112.4 140.3,132.4 146.6,135.7 153.0,168.0 159.3,154.6 165.6,172.4 172.0,181.3 178.3,184.7 184.6,201.4 190.9,194.7 197.3,208.1 203.6,244.8 209.9,263.7 216.3,245.9 222.6,247.0 228.9,242.5 235.3,257.0 241.6,291.5 247.9,268.1 254.3,285.9 260.6,321.6 266.9,290.4 273.2,279.3 279.6,280.4 285.9,258.1 292.2,270.4 298.6,307.1 304.9,288.2 311.2,310.4 317.6,281.5 323.9,271.5 330.2,277.0 336.6,304.9 342.9,281.5 349.2,224.7 355.5,258.1 361.9,243.7 368.2,189.1 374.5,195.8 380.9,232.5 387.2,254.8 393.5,218.1 399.9,228.1 406.2,250.3 412.5,241.4 418.9,288.2 425.2,281.5 431.5,318.2 437.8,292.6 444.2,283.7 450.5,278.2 456.8,284.8 463.2,298.2 469.5,282.6 475.8,274.8 482.2,277.0 488.5,288.2 494.8,315.4 501.1,341.0 507.5,339.4 513.8,338.3 520.1,338.3 526.5,313.8 532.8,318.2 539.1,304.9 545.5,323.2 551.8,317.1 558.1,318.2 564.5,318.2 570.8,331.6 577.1,328.2 583.4,283.7 589.8,310.4 596.1,324.9 602.4,330.5 608.8,302.6 615.1,320.4 621.4,180.2 627.8,232.5 634.1,222.5 640.4,175.8 646.8,193.6 653.1,143.5 659.4,117.9 665.7,161.3 672.1,159.1 678.4,169.1 684.7,234.8 691.1,263.1 697.4,224.7 703.7,251.5 710.1,250.3 716.4,258.1 722.7,222.0 729.1,235.9 735.4,258.1 741.7,263.7 748.0,259.2 754.4,276.5 760.7,233.6 767.0,203.6 773.4,196.9 779.7,203.6 786.0,171.3 792.4,165.8 798.7,152.4 805.0,144.6 811.4,166.9 817.7,161.3 824.0,185.8 830.3,125.1 836.7,79.0 843.0,83.4 849.3,123.5 855.7,168.0 862.0,158.0" fill="none" stroke="#2563eb" stroke-width="2.4"/>
<polyline points="58.0,124.6 64.3,124.6 70.7,124.6 77.0,124.6 83.3,124.6 89.7,124.6 96.0,124.6 102.3,124.6 108.6,124.6 115.0,124.6 121.3,124.6 127.6,124.6 134.0,124.6 140.3,124.6 146.6,124.6 153.0,124.6 159.3,124.6 165.6,124.6 172.0,124.6 178.3,124.6 184.6,124.6 190.9,124.6 197.3,124.6 203.6,124.6 209.9,124.6 216.3,124.6 222.6,124.6 228.9,124.6 235.3,124.6 241.6,124.6 247.9,124.6 254.3,124.6 260.6,124.6 266.9,124.6 273.2,124.6 279.6,124.6 285.9,124.6 292.2,124.6 298.6,124.6 304.9,124.6 311.2,124.6 317.6,124.6 323.9,124.6 330.2,124.6 336.6,124.6 342.9,124.6 349.2,124.6 355.5,124.6 361.9,124.6 368.2,124.6 374.5,124.6 380.9,124.6 387.2,124.6 393.5,124.6 399.9,124.6 406.2,124.6 412.5,124.6 418.9,124.6 425.2,124.6 431.5,124.6 437.8,124.6 444.2,124.6 450.5,124.6 456.8,124.6 463.2,124.6 469.5,124.6 475.8,124.6 482.2,124.6 488.5,124.6 494.8,124.6 501.1,124.6 507.5,124.6 513.8,124.6 520.1,124.6 526.5,124.6 532.8,124.6 539.1,124.6 545.5,124.6 551.8,124.6 558.1,124.6 564.5,124.6 570.8,124.6 577.1,124.6 583.4,124.6 589.8,124.6 596.1,124.6 602.4,124.6 608.8,124.6 615.1,124.6 621.4,124.6 627.8,124.6 634.1,124.6 640.4,124.6 646.8,124.6 653.1,124.6 659.4,124.6 665.7,124.6 672.1,124.6 678.4,124.6 684.7,124.6 691.1,124.6 697.4,124.6 703.7,124.6 710.1,124.6 716.4,124.6 722.7,124.6 729.1,124.6 735.4,124.6 741.7,124.6 748.0,124.6 754.4,124.6 760.7,124.6 767.0,124.6 773.4,124.6 779.7,124.6 786.0,124.6 792.4,124.6 798.7,124.6 805.0,124.6 811.4,124.6 817.7,124.6 824.0,124.6 830.3,124.6 836.7,124.6 843.0,124.6 849.3,124.6 855.7,124.6 862.0,124.6" fill="none" stroke="#dc2626" stroke-width="2.4"/>
<text x="58" y="400" font-size="12" fill="#4b5563">2019-07-01</text>
<text x="780" y="400" font-size="12" fill="#4b5563">2019-12-31</text>
<rect x="675" y="44" width="14" height="14" fill="#2563eb"/>
<text x="696" y="56" font-size="13" fill="#111827">actual close</text>
<rect x="675" y="68" width="14" height="14" fill="#dc2626"/>
<text x="696" y="80" font-size="13" fill="#111827">sim auction price</text>
</svg>