<svg xmlns="http://www.w3.org/2000/svg" width="920" height="420" viewBox="0 0 920 420">
<rect width="100%" height="100%" fill="#ffffff"/>
<text x="58" y="28" font-size="18" font-family="Arial" font-weight="700" fill="#111827">calib-2019 BLNK named (named, 2019-07-01 to 2019-12-31)</text>
<line x1="58" y1="58.0" x2="862" y2="58.0" stroke="#e6e8ef"/>
<text x="12" y="62.0" font-size="12" fill="#4b5563">3.15</text>
<line x1="58" y1="134.0" x2="862" y2="134.0" stroke="#e6e8ef"/>
<text x="12" y="138.0" font-size="12" fill="#4b5563">2.75</text>
<line x1="58" y1="210.0" x2="862" y2="210.0" stroke="#e6e8ef"/>
<text x="12" y="214.0" font-size="12" fill="#4b5563">2.34</text>
<line x1="58" y1="286.0" x2="862" y2="286.0" stroke="#e6e8ef"/>
<text x="12" y="290.0" font-size="12" fill="#4b5563">1.93</text>
<line x1="58" y1="362.0" x2="862" y2="362.0" stroke="#e6e8ef"/>
<text x="12" y="366.0" font-size="12" fill="#4b5563">1.53</text>
<line x1="58" y1="362" x2="862" y2="362" stroke="#111827"/>
<line x1="58" y1="58" x2="58" y2="362" stroke="#111827"/>
<polyline points="58.0,157.6 64.3,157.6 70.7,138.9 77.0,144.5 83.3,112.7 89.7,138.9 96.0,127.6 102.3,138.9 108.6,148.2 115.0,150.1 121.3,153.8 127.6,150.1 134.0,168.8 140.3,172.6 146.6,176.3 153.0,131.4 159.3,150.1 165.6,150.1 172.0,150.1 178.3,135.1 184.6,82.7 190.9,79.0 197.3,101.4 203.6,116.4 209.9,135.1 216.3,145.4 222.6,148.2 228.9,140.7 235.3,150.1 241.6,123.0 247.9,118.3 254.3,146.4 260.6,155.7 266.9,133.3 273.2,137.0 279.6,137.0 285.9,138.9 292.2,148.2 298.6,163.2 304.9,166.9 311.2,176.3 317.6,170.7 323.9,166.9 330.2,168.8 336.6,183.8 342.9,189.4 349.2,196.9 355.5,180.0 361.9,178.2 368.2,176.3 374.5,146.4 380.9,148.2 387.2,122.0 393.5,101.4 399.9,107.0 406.2,103.3 412.5,93.5 418.9,118.3 425.2,118.3 431.5,149.2 437.8,153.8 444.2,153.8 450.5,163.2 456.8,161.3 463.2,155.7 469.5,183.8 475.8,187.5 482.2,183.8 488.5,185.7 494.8,181.9 501.1,189.4 507.5,202.5 513.8,195.0 520.1,183.7 526.5,198.8 532.8,200.6 539.1,210.0 545.5,219.4 551.8,204.4 558.1,217.5 564.5,238.1 570.8,243.7 577.1,241.8 583.4,231.0 589.8,238.1 596.1,240.0 602.4,253.1 608.8,249.3 615.1,262.4 621.4,260.5 627.8,269.9 634.1,290.5 640.4,307.3 646.8,309.2 653.1,329.8 659.4,288.6 665.7,307.3 672.1,320.4 678.4,339.2 684.7,339.9 691.1,324.2 697.4,326.1 703.7,341.0 710.1,281.1 716.4,284.9 722.7,288.6 729.1,298.0 735.4,311.1 741.7,313.0 748.0,305.5 754.4,292.4 760.7,269.9 767.0,245.6 773.4,254.9 779.7,247.4 786.0,248.4 792.4,247.4 798.7,247.4 805.0,251.2 811.4,264.3 817.7,253.1 824.0,260.5 830.3,269.9 836.7,269.9 843.0,273.6 849.3,288.6 855.7,285.8 862.0,299.9" fill="none" stroke="#2563eb" stroke-width="2.4"/>
<polyline points="58.0,157.6 64.3,157.6 70.7,157.6 77.0,157.6 83.3,157.6 89.7,157.6 96.0,157.6 102.3,157.6 108.6,157.6 115.0,157.6 121.3,157.6 127.6,157.6 134.0,157.6 140.3,157.6 146.6,157.6 153.0,157.6 159.3,157.6 165.6,157.6 172.0,157.6 178.3,157.6 184.6,157.6 190.9,157.6 197.3,157.6 203.6,157.6 209.9,157.6 216.3,157.6 222.6,157.6 228.9,157.6 235.3,157.6 241.6,157.6 247.9,157.6 254.3,157.6 260.6,157.6 266.9,157.6 273.2,157.6 279.6,157.6 285.9,157.6 292.2,157.6 298.6,157.6 304.9,157.6 311.2,157.6 317.6,157.6 323.9,157.6 330.2,157.6 336.6,157.6 342.9,157.6 349.2,157.6 355.5,157.6 361.9,157.6 368.2,157.6 374.5,157.6 380.9,157.6 387.2,157.6 393.5,157.6 399.9,157.6 406.2,103.3 412.5,103.3 418.9,103.3 425.2,103.3 431.5,103.3 437.8,103.3 444.2,103.3 450.5,103.3 456.8,103.3 463.2,103.3 469.5,103.3 475.8,103.3 482.2,103.3 488.5,103.3 494.8,103.3 501.1,103.3 507.5,103.3 513.8,103.3 520.1,103.3 526.5,103.3 532.8,103.3 539.1,103.3 545.5,103.3 551.8,103.3 558.1,103.3 564.5,103.3 570.8,103.3 577.1,103.3 583.4,103.3 589.8,103.3 596.1,103.3 602.4,103.3 608.8,103.3 615.1,103.3 621.4,103.3 627.8,103.3 634.1,103.3 640.4,103.3 646.8,103.3 653.1,103.3 659.4,103.3 665.7,103.3 672.1,103.3 678.4,103.3 684.7,103.3 691.1,103.3 697.4,103.3 703.7,103.3 710.1,103.3 716.4,103.3 722.7,103.3 729.1,103.3 735.4,103.3 741.7,103.3 748.0,103.3 754.4,103.3 760.7,103.3 767.0,103.3 773.4,103.3 779.7,103.3 786.0,103.3 792.4,103.3 798.7,103.3 805.0,103.3 811.4,103.3 817.7,103.3 824.0,103.3 830.3,103.3 836.7,103.3 843.0,103.3 849.3,103.3 855.7,103.3 862.0,103.3" fill="none" stroke="#dc2626" stroke-width="2.4"/>
<text x="58" y="400" font-size="12" fill="#4b5563">2019-07-01</text>
<text x="780" y="400" font-size="12" fill="#4b5563">2019-12-31</text>
<rect x="675" y="44" width="14" height="14" fill="#2563eb"/>
<text x="696" y="56" font-size="13" fill="#111827">actual close</text>
<rect x="675" y="68" width="14" height="14" fill="#dc2626"/>
<text x="696" y="80" font-size="13" fill="#111827">sim auction price</text>
</svg>