<svg xmlns="http://www.w3.org/2000/svg" width="920" height="420" viewBox="0 0 920 420">
<rect width="100%" height="100%" fill="#ffffff"/>
<text x="58" y="28" font-size="18" font-family="Arial" font-weight="700" fill="#111827">calib-2019 LEVI alias (alias, 2019-07-01 to 2019-12-31)</text>
<line x1="58" y1="58.0" x2="862" y2="58.0" stroke="#e6e8ef"/>
<text x="12" y="62.0" font-size="12" fill="#4b5563">24.26</text>
<line x1="58" y1="134.0" x2="862" y2="134.0" stroke="#e6e8ef"/>
<text x="12" y="138.0" font-size="12" fill="#4b5563">22.08</text>
<line x1="58" y1="210.0" x2="862" y2="210.0" stroke="#e6e8ef"/>
<text x="12" y="214.0" font-size="12" fill="#4b5563">19.89</text>
<line x1="58" y1="286.0" x2="862" y2="286.0" stroke="#e6e8ef"/>
<text x="12" y="290.0" font-size="12" fill="#4b5563">17.70</text>
<line x1="58" y1="362.0" x2="862" y2="362.0" stroke="#e6e8ef"/>
<text x="12" y="366.0" font-size="12" fill="#4b5563">15.52</text>
<line x1="58" y1="362" x2="862" y2="362" stroke="#111827"/>
<line x1="58" y1="58" x2="58" y2="362" stroke="#111827"/>
<polyline points="58.0,162.7 64.3,158.9 70.7,144.0 77.0,127.3 83.3,95.3 89.7,79.0 96.0,177.7 102.3,197.5 108.6,202.0 115.0,202.0 121.3,213.1 127.6,244.8 134.0,261.8 140.3,249.6 146.6,260.7 153.0,258.3 159.3,232.6 165.6,229.8 172.0,228.1 178.3,230.9 184.6,247.2 190.9,238.8 197.3,264.9 203.6,245.1 209.9,253.4 216.3,258.0 222.6,278.1 228.9,289.2 235.3,299.0 241.6,311.8 247.9,303.1 254.3,336.5 260.6,341.0 266.9,334.8 273.2,334.4 279.6,329.2 285.9,311.1 292.2,303.5 298.6,322.3 304.9,305.9 311.2,320.5 317.6,306.6 323.9,298.3 330.2,313.9 336.6,311.5 342.9,298.3 349.2,290.3 355.5,307.7 361.9,269.1 368.2,257.3 374.5,240.6 380.9,255.9 387.2,275.7 393.5,278.8 399.9,266.7 406.2,265.3 412.5,258.7 418.9,267.0 425.2,263.5 431.5,269.1 437.8,244.1 444.2,238.2 450.5,233.6 456.8,239.5 463.2,240.6 469.5,230.9 475.8,225.3 482.2,230.9 488.5,214.2 494.8,242.3 501.1,291.7 507.5,291.3 513.8,296.2 520.1,306.3 526.5,297.2 532.8,288.6 539.1,308.7 545.5,306.6 551.8,309.8 558.1,290.3 564.5,294.5 570.8,311.1 577.1,306.3 583.4,304.5 589.8,299.3 596.1,282.6 602.4,281.9 608.8,281.9 615.1,306.3 621.4,298.3 627.8,305.2 634.1,292.7 640.4,305.9 646.8,308.7 653.1,310.4 659.4,312.2 665.7,310.1 672.1,304.2 678.4,308.4 684.7,310.1 691.1,332.3 697.4,325.4 703.7,310.8 710.1,308.7 716.4,315.7 722.7,311.1 729.1,318.1 735.4,323.0 741.7,314.3 748.0,310.8 754.4,303.8 760.7,295.5 767.0,296.2 773.4,276.7 779.7,275.0 786.0,261.4 792.4,242.3 798.7,248.6 805.0,231.2 811.4,211.4 817.7,222.5 824.0,209.3 830.3,222.9 836.7,219.0 843.0,218.0 849.3,232.2 855.7,239.9 862.0,230.9" fill="none" stroke="#2563eb" stroke-width="2.4"/>
<polyline points="58.0,162.7 64.3,162.7 70.7,162.7 77.0,162.7 83.3,162.7 89.7,162.7 96.0,162.7 102.3,162.7 108.6,162.7 115.0,162.7 121.3,162.7 127.6,162.7 134.0,162.7 140.3,162.7 146.6,162.7 153.0,162.7 159.3,162.7 165.6,162.7 172.0,162.7 178.3,162.7 184.6,162.7 190.9,162.7 197.3,162.7 203.6,162.7 209.9,162.7 216.3,162.7 222.6,162.7 228.9,162.7 235.3,162.7 241.6,162.7 247.9,162.7 254.3,162.7 260.6,162.7 266.9,162.7 273.2,162.7 279.6,162.7 285.9,162.7 292.2,162.7 298.6,162.7 304.9,162.7 311.2,162.7 317.6,162.7 323.9,162.7 330.2,162.7 336.6,162.7 342.9,162.7 349.2,162.7 355.5,162.7 361.9,162.7 368.2,162.7 374.5,162.7 380.9,162.7 387.2,162.7 393.5,162.7 399.9,162.7 406.2,162.7 412.5,162.7 418.9,162.7 425.2,162.7 431.5,162.7 437.8,162.7 444.2,162.7 450.5,162.7 456.8,162.7 463.2,162.7 469.5,162.7 475.8,162.7 482.2,162.7 488.5,162.7 494.8,162.7 501.1,162.7 507.5,162.7 513.8,162.7 520.1,162.7 526.5,162.7 532.8,162.7 539.1,162.7 545.5,162.7 551.8,162.7 558.1,162.7 564.5,162.7 570.8,162.7 577.1,162.7 583.4,162.7 589.8,162.7 596.1,162.7 602.4,162.7 608.8,162.7 615.1,162.7 621.4,162.7 627.8,162.7 634.1,162.7 640.4,162.7 646.8,162.7 653.1,162.7 659.4,162.7 665.7,162.7 672.1,162.7 678.4,162.7 684.7,162.7 691.1,162.7 697.4,162.7 703.7,162.7 710.1,162.7 716.4,162.7 722.7,162.7 729.1,162.7 735.4,162.7 741.7,162.7 748.0,162.7 754.4,162.7 760.7,162.7 767.0,162.7 773.4,162.7 779.7,162.7 786.0,162.7 792.4,162.7 798.7,162.7 805.0,162.7 811.4,162.7 817.7,162.7 824.0,162.7 830.3,162.7 836.7,162.7 843.0,162.7 849.3,162.7 855.7,162.7 862.0,162.7" fill="none" stroke="#dc2626" stroke-width="2.4"/>
<text x="58" y="400" font-size="12" fill="#4b5563">2019-07-01</text>
<text x="780" y="400" font-size="12" fill="#4b5563">2019-12-31</text>
<rect x="675" y="44" width="14" height="14" fill="#2563eb"/>
<text x="696" y="56" font-size="13" fill="#111827">actual close</text>
<rect x="675" y="68" width="14" height="14" fill="#dc2626"/>
<text x="696" y="80" font-size="13" fill="#111827">sim auction price</text>
</svg>