<svg xmlns="http://www.w3.org/2000/svg" width="920" height="420" viewBox="0 0 920 420">
<rect width="100%" height="100%" fill="#ffffff"/>
<text x="58" y="28" font-size="18" font-family="Arial" font-weight="700" fill="#111827">calib-2019 PLUG alias (alias, 2019-07-01 to 2019-12-31)</text>
<line x1="58" y1="58.0" x2="862" y2="58.0" stroke="#e6e8ef"/>
<text x="12" y="62.0" font-size="12" fill="#4b5563">4.16</text>
<line x1="58" y1="134.0" x2="862" y2="134.0" stroke="#e6e8ef"/>
<text x="12" y="138.0" font-size="12" fill="#4b5563">3.58</text>
<line x1="58" y1="210.0" x2="862" y2="210.0" stroke="#e6e8ef"/>
<text x="12" y="214.0" font-size="12" fill="#4b5563">3.00</text>
<line x1="58" y1="286.0" x2="862" y2="286.0" stroke="#e6e8ef"/>
<text x="12" y="290.0" font-size="12" fill="#4b5563">2.43</text>
<line x1="58" y1="362.0" x2="862" y2="362.0" stroke="#e6e8ef"/>
<text x="12" y="366.0" font-size="12" fill="#4b5563">1.85</text>
<line x1="58" y1="362" x2="862" y2="362" stroke="#111827"/>
<line x1="58" y1="58" x2="58" y2="362" stroke="#111827"/>
<polyline points="58.0,310.7 64.3,302.8 70.7,305.5 77.0,296.3 83.3,300.2 89.7,302.8 96.0,302.8 102.3,304.2 108.6,304.2 115.0,298.9 121.3,301.5 127.6,298.9 134.0,301.5 140.3,304.2 146.6,305.5 153.0,309.4 159.3,304.2 165.6,306.8 172.0,309.4 178.3,309.4 184.6,310.7 190.9,314.7 197.3,322.6 203.6,322.6 209.9,325.2 216.3,322.6 222.6,329.2 228.9,329.2 235.3,330.5 241.6,335.8 247.9,327.9 254.3,341.0 260.6,341.0 266.9,330.5 273.2,312.1 279.6,314.7 285.9,316.0 292.2,318.6 298.6,327.9 304.9,322.6 311.2,325.2 317.6,323.9 323.9,320.0 330.2,320.0 336.6,323.9 342.9,322.6 349.2,320.0 355.5,308.1 361.9,298.9 368.2,283.1 374.5,276.5 380.9,269.9 387.2,256.8 393.5,242.3 399.9,247.5 406.2,234.4 412.5,235.7 418.9,237.0 425.2,237.0 431.5,247.5 437.8,250.2 444.2,256.8 450.5,264.7 456.8,260.7 463.2,275.2 469.5,288.4 475.8,292.3 482.2,283.1 488.5,271.2 494.8,259.4 501.1,255.4 507.5,251.5 513.8,253.5 520.1,243.6 526.5,239.6 532.8,237.0 539.1,218.6 545.5,205.4 551.8,221.2 558.1,223.8 564.5,214.6 570.8,204.1 577.1,213.3 583.4,221.2 589.8,243.6 596.1,258.1 602.4,256.8 608.8,239.6 615.1,238.3 621.4,240.9 627.8,230.4 634.1,255.4 640.4,246.2 646.8,218.6 653.1,201.4 659.4,160.6 665.7,155.3 672.1,146.1 678.4,111.9 684.7,159.3 691.1,147.4 697.4,161.9 703.7,160.6 710.1,118.5 716.4,93.5 722.7,79.0 729.1,92.1 735.4,105.3 741.7,160.6 748.0,171.2 754.4,198.8 760.7,190.9 767.0,210.7 773.4,201.4 779.7,181.7 786.0,192.2 792.4,198.8 798.7,188.3 805.0,201.4 811.4,223.8 817.7,219.9 824.0,218.6 830.3,215.9 836.7,196.2 843.0,190.9 849.3,200.1 855.7,200.1 862.0,189.6" fill="none" stroke="#2563eb" stroke-width="2.4"/>
<polyline points="58.0,310.7 64.3,310.7 70.7,310.7 77.0,310.7 83.3,310.7 89.7,310.7 96.0,310.7 102.3,310.7 108.6,310.7 115.0,310.7 121.3,310.7 127.6,310.7 134.0,310.7 140.3,310.7 146.6,310.7 153.0,310.7 159.3,310.7 165.6,310.7 172.0,310.7 178.3,310.7 184.6,310.7 190.9,310.7 197.3,310.7 203.6,310.7 209.9,310.7 216.3,310.7 222.6,310.7 228.9,310.7 235.3,310.7 241.6,310.7 247.9,310.7 254.3,310.7 260.6,310.7 266.9,310.7 273.2,310.7 279.6,310.7 285.9,310.7 292.2,310.7 298.6,310.7 304.9,310.7 311.2,310.7 317.6,310.7 323.9,310.7 330.2,310.7 336.6,310.7 342.9,310.7 349.2,310.7 355.5,310.7 361.9,310.7 368.2,310.7 374.5,310.7 380.9,310.7 387.2,310.7 393.5,310.7 399.9,310.7 406.2,230.4 412.5,230.4 418.9,230.4 425.2,230.4 431.5,230.4 437.8,230.4 444.2,230.4 450.5,230.4 456.8,230.4 463.2,230.4 469.5,230.4 475.8,230.4 482.2,230.4 488.5,230.4 494.8,230.4 501.1,230.4 507.5,230.4 513.8,230.4 520.1,230.4 526.5,230.4 532.8,230.4 539.1,230.4 545.5,230.4 551.8,230.4 558.1,230.4 564.5,230.4 570.8,230.4 577.1,230.4 583.4,230.4 589.8,230.4 596.1,230.4 602.4,230.4 608.8,230.4 615.1,230.4 621.4,230.4 627.8,230.4 634.1,230.4 640.4,230.4 646.8,230.4 653.1,230.4 659.4,230.4 665.7,230.4 672.1,230.4 678.4,230.4 684.7,230.4 691.1,230.4 697.4,230.4 703.7,230.4 710.1,230.4 716.4,230.4 722.7,230.4 729.1,230.4 735.4,230.4 741.7,158.0 748.0,158.0 754.4,158.0 760.7,158.0 767.0,158.0 773.4,158.0 779.7,158.0 786.0,158.0 792.4,158.0 798.7,158.0 805.0,158.0 811.4,158.0 817.7,158.0 824.0,158.0 830.3,158.0 836.7,158.0 843.0,158.0 849.3,158.0 855.7,158.0 862.0,158.0" fill="none" stroke="#dc2626" stroke-width="2.4"/>
<text x="58" y="400" font-size="12" fill="#4b5563">2019-07-01</text>
<text x="780" y="400" font-size="12" fill="#4b5563">2019-12-31</text>
<rect x="675" y="44" width="14" height="14" fill="#2563eb"/>
<text x="696" y="56" font-size="13" fill="#111827">actual close</text>
<rect x="675" y="68" width="14" height="14" fill="#dc2626"/>
<text x="696" y="80" font-size="13" fill="#111827">sim auction price</text>
</svg>