<svg xmlns="http://www.w3.org/2000/svg" width="920" height="420" viewBox="0 0 920 420">
<rect width="100%" height="100%" fill="#ffffff"/>
<text x="58" y="28" font-size="18" font-family="Arial" font-weight="700" fill="#111827">calib-2019 XXII alias (alias, 2019-07-01 to 2019-12-31)</text>
<line x1="58" y1="58.0" x2="862" y2="58.0" stroke="#e6e8ef"/>
<text x="12" y="62.0" font-size="12" fill="#4b5563">2.53</text>
<line x1="58" y1="134.0" x2="862" y2="134.0" stroke="#e6e8ef"/>
<text x="12" y="138.0" font-size="12" fill="#4b5563">2.07</text>
<line x1="58" y1="210.0" x2="862" y2="210.0" stroke="#e6e8ef"/>
<text x="12" y="214.0" font-size="12" fill="#4b5563">1.61</text>
<line x1="58" y1="286.0" x2="862" y2="286.0" stroke="#e6e8ef"/>
<text x="12" y="290.0" font-size="12" fill="#4b5563">1.16</text>
<line x1="58" y1="362.0" x2="862" y2="362.0" stroke="#e6e8ef"/>
<text x="12" y="366.0" font-size="12" fill="#4b5563">0.70</text>
<line x1="58" y1="362" x2="862" y2="362" stroke="#111827"/>
<line x1="58" y1="58" x2="58" y2="362" stroke="#111827"/>
<polyline points="58.0,148.9 64.3,137.2 70.7,143.9 77.0,153.8 83.3,145.5 89.7,147.2 96.0,148.9 102.3,153.8 108.6,143.9 115.0,152.2 121.3,153.8 127.6,157.2 134.0,160.5 140.3,157.2 146.6,160.5 153.0,160.5 159.3,163.8 165.6,167.2 172.0,168.8 178.3,177.1 184.6,193.8 190.9,213.7 197.3,252.0 203.6,222.1 209.9,240.4 216.3,213.7 222.6,227.1 228.9,205.4 235.3,158.8 241.6,166.3 247.9,162.2 254.3,163.8 260.6,170.5 266.9,158.8 273.2,162.2 279.6,163.8 285.9,168.8 292.2,148.9 298.6,147.2 304.9,157.2 311.2,170.5 317.6,153.8 323.9,150.5 330.2,152.2 336.6,158.8 342.9,155.5 349.2,138.9 355.5,128.9 361.9,142.2 368.2,127.2 374.5,110.6 380.9,92.3 387.2,87.3 393.5,98.9 399.9,108.9 406.2,105.6 412.5,103.9 418.9,85.6 425.2,100.6 431.5,107.3 437.8,93.9 444.2,79.0 450.5,79.0 456.8,102.3 463.2,120.6 469.5,123.9 475.8,133.9 482.2,113.9 488.5,125.6 494.8,132.2 501.1,125.6 507.5,135.5 513.8,138.9 520.1,147.2 526.5,140.5 532.8,147.2 539.1,145.5 545.5,135.5 551.8,122.2 558.1,117.2 564.5,105.6 570.8,107.3 577.1,125.6 583.4,140.5 589.8,167.2 596.1,165.5 602.4,163.8 608.8,187.1 615.1,175.5 621.4,183.8 627.8,202.1 634.1,215.4 640.4,212.1 646.8,217.1 653.1,230.4 659.4,232.0 665.7,230.4 672.1,240.4 678.4,247.0 684.7,237.0 691.1,340.9 697.4,282.0 703.7,295.3 710.1,308.6 716.4,308.6 722.7,303.6 729.1,306.9 735.4,306.9 741.7,311.9 748.0,308.6 754.4,311.9 760.7,314.8 767.0,320.2 773.4,325.9 779.7,326.5 786.0,329.4 792.4,321.6 798.7,341.0 805.0,301.9 811.4,308.6 817.7,306.9 824.0,311.9 830.3,311.9 836.7,296.9 843.0,291.9 849.3,288.6 855.7,295.3 862.0,295.3" fill="none" stroke="#2563eb" stroke-width="2.4"/>
<polyline points="58.0,148.9 64.3,148.9 70.7,148.9 77.0,148.9 83.3,148.9 89.7,148.9 96.0,148.9 102.3,148.9 108.6,148.9 115.0,148.9 121.3,148.9 127.6,148.9 134.0,148.9 140.3,148.9 146.6,148.9 153.0,148.9 159.3,148.9 165.6,148.9 172.0,148.9 178.3,148.9 184.6,148.9 190.9,148.9 197.3,148.9 203.6,148.9 209.9,148.9 216.3,148.9 222.6,148.9 228.9,148.9 235.3,148.9 241.6,148.9 247.9,148.9 254.3,148.9 260.6,148.9 266.9,148.9 273.2,148.9 279.6,148.9 285.9,148.9 292.2,148.9 298.6,148.9 304.9,148.9 311.2,148.9 317.6,148.9 323.9,148.9 330.2,148.9 336.6,148.9 342.9,148.9 349.2,148.9 355.5,148.9 361.9,148.9 368.2,148.9 374.5,148.9 380.9,148.9 387.2,148.9 393.5,148.9 399.9,148.9 406.2,108.9 412.5,108.9 418.9,108.9 425.2,108.9 431.5,93.9 437.8,93.9 444.2,93.9 450.5,93.9 456.8,93.9 463.2,93.9 469.5,93.9 475.8,93.9 482.2,93.9 488.5,93.9 494.8,93.9 501.1,93.9 507.5,93.9 513.8,93.9 520.1,93.9 526.5,93.9 532.8,93.9 539.1,93.9 545.5,93.9 551.8,93.9 558.1,93.9 564.5,93.9 570.8,93.9 577.1,93.9 583.4,93.9 589.8,93.9 596.1,93.9 602.4,93.9 608.8,93.9 615.1,93.9 621.4,93.9 627.8,93.9 634.1,93.9 640.4,93.9 646.8,93.9 653.1,93.9 659.4,93.9 665.7,93.9 672.1,93.9 678.4,93.9 684.7,93.9 691.1,93.9 697.4,93.9 703.7,93.9 710.1,93.9 716.4,93.9 722.7,93.9 729.1,93.9 735.4,93.9 741.7,93.9 748.0,93.9 754.4,93.9 760.7,93.9 767.0,93.9 773.4,93.9 779.7,93.9 786.0,93.9 792.4,93.9 798.7,93.9 805.0,93.9 811.4,93.9 817.7,93.9 824.0,93.9 830.3,93.9 836.7,93.9 843.0,93.9 849.3,93.9 855.7,93.9 862.0,93.9" fill="none" stroke="#dc2626" stroke-width="2.4"/>
<text x="58" y="400" font-size="12" fill="#4b5563">2019-07-01</text>
<text x="780" y="400" font-size="12" fill="#4b5563">2019-12-31</text>
<rect x="675" y="44" width="14" height="14" fill="#2563eb"/>
<text x="696" y="56" font-size="13" fill="#111827">actual close</text>
<rect x="675" y="68" width="14" height="14" fill="#dc2626"/>
<text x="696" y="80" font-size="13" fill="#111827">sim auction price</text>
</svg>