<svg xmlns="http://www.w3.org/2000/svg" width="980" height="460" viewBox="0 0 980 460">
<rect width="100%" height="100%" fill="#ffffff"/>
<text x="62" y="30" font-size="19" font-family="Arial" font-weight="700" fill="#111827">oos-2025-main main_n200: OOS Backtest Equity</text>
<line x1="62" y1="62.0" x2="918" y2="62.0" stroke="#e5e7eb"/>
<text x="12" y="66.0" font-size="12" fill="#4b5563">1.50x</text>
<line x1="62" y1="146.0" x2="918" y2="146.0" stroke="#e5e7eb"/>
<text x="12" y="150.0" font-size="12" fill="#4b5563">1.25x</text>
<line x1="62" y1="230.0" x2="918" y2="230.0" stroke="#e5e7eb"/>
<text x="12" y="234.0" font-size="12" fill="#4b5563">1.01x</text>
<line x1="62" y1="314.0" x2="918" y2="314.0" stroke="#e5e7eb"/>
<text x="12" y="318.0" font-size="12" fill="#4b5563">0.77x</text>
<line x1="62" y1="398.0" x2="918" y2="398.0" stroke="#e5e7eb"/>
<text x="12" y="402.0" font-size="12" fill="#4b5563">0.52x</text>
<polyline points="62.0,223.4 69.0,217.7 75.9,213.6 82.9,223.4 89.8,235.9 96.8,245.7 103.8,250.3 110.7,237.9 117.7,238.4 124.6,242.6 131.6,235.0 138.6,242.4 145.5,245.1 152.5,184.4 159.4,193.6 166.4,190.5 173.3,184.4 180.3,176.6 187.3,189.0 194.2,188.9 201.2,194.2 208.1,179.8 215.1,189.7 222.1,209.4 229.0,211.9 236.0,231.3 242.9,236.2 249.9,227.7 256.9,222.1 263.8,214.6 270.8,187.3 277.7,214.0 284.7,220.6 291.7,238.9 298.6,250.4 305.6,252.8 312.5,254.8 319.5,270.6 326.5,304.7 333.4,311.2 340.4,296.5 347.3,305.3 354.3,300.8 361.3,316.1 368.2,315.7 375.2,316.6 382.1,328.4 389.1,317.3 396.0,306.7 403.0,309.5 410.0,310.6 416.9,318.7 423.9,317.6 430.8,318.8 437.8,326.0 444.8,326.2 451.7,325.9 458.7,332.9 465.6,334.2 472.6,331.8 479.6,327.5 486.5,336.2 493.5,350.3 500.4,353.1 507.4,367.8 514.4,350.2 521.3,355.1 528.3,351.4 535.2,351.5 542.2,353.7 549.2,356.6 556.1,358.1 563.1,361.8 570.0,351.6 577.0,348.1 584.0,335.7 590.9,336.7 597.9,337.9 604.8,328.1 611.8,304.0 618.7,305.6 625.7,310.3 632.7,305.9 639.6,313.2 646.6,310.5 653.5,303.3 660.5,299.7 667.5,293.8 674.4,304.7 681.4,307.2 688.3,305.5 695.3,296.4 702.3,302.5 709.2,299.3 716.2,305.1 723.1,299.4 730.1,302.5 737.1,299.1 744.0,298.1 751.0,300.2 757.9,310.9 764.9,311.9 771.9,305.3 778.8,298.9 785.8,311.4 792.7,299.0 799.7,291.6 806.7,282.7 813.6,280.6 820.6,285.7 827.5,293.0 834.5,290.4 841.4,296.0 848.4,293.5 855.4,295.7 862.3,299.0 869.3,293.4 876.2,296.6 883.2,288.4 890.2,289.6 897.1,293.4 904.1,289.3 911.0,274.0 918.0,265.2" fill="none" stroke="#111827" stroke-width="2.2"/>
<polyline points="62.0,223.4 69.0,217.7 75.9,213.6 82.9,223.4 89.8,235.9 96.8,245.7 103.8,250.3 110.7,237.9 117.7,238.4 124.6,242.6 131.6,235.0 138.6,242.4 145.5,245.1 152.5,184.4 159.4,193.6 166.4,190.5 173.3,184.4 180.3,176.6 187.3,189.0 194.2,188.9 201.2,194.2 208.1,179.8 215.1,189.7 222.1,209.4 229.0,211.9 236.0,231.3 242.9,236.2 249.9,227.7 256.9,222.1 263.8,214.6 270.8,187.3 277.7,214.0 284.7,220.6 291.7,238.9 298.6,250.4 305.6,252.8 312.5,254.8 319.5,270.6 326.5,304.7 333.4,311.2 340.4,296.5 347.3,305.3 354.3,300.8 361.3,316.1 368.2,315.7 375.2,316.6 382.1,328.4 389.1,317.3 396.0,306.7 403.0,309.5 410.0,310.6 416.9,318.7 423.9,317.6 430.8,318.8 437.8,326.0 444.8,326.2 451.7,325.9 458.7,332.9 465.6,334.2 472.6,331.8 479.6,327.5 486.5,336.2 493.5,350.3 500.4,353.1 507.4,367.8 514.4,350.2 521.3,355.1 528.3,353.0 535.2,353.2 542.2,355.4 549.2,358.2 556.1,359.8 563.1,363.4 570.0,353.3 577.0,349.9 584.0,337.6 590.9,338.5 597.9,339.8 604.8,330.0 611.8,306.0 618.7,307.6 625.7,312.3 632.7,308.0 639.6,315.2 646.6,312.5 653.5,305.4 660.5,301.8 667.5,296.0 674.4,306.8 681.4,306.9 688.3,305.4 695.3,296.2 702.3,302.4 709.2,299.1 716.2,304.9 723.1,299.3 730.1,302.4 737.1,299.0 744.0,298.0 751.0,300.1 757.9,310.7 764.9,311.7 771.9,305.2 778.8,298.7 785.8,311.2 792.7,304.5 799.7,297.3 806.7,288.6 813.6,286.6 820.6,291.6 827.5,298.8 834.5,296.2 841.4,301.7 848.4,299.2 855.4,301.4 862.3,304.6 869.3,299.2 876.2,302.3 883.2,294.2 890.2,295.4 897.1,299.1 904.1,295.1 911.0,280.2 918.0,271.5" fill="none" stroke="#06b6d4" stroke-width="2.2"/>
<polyline points="62.0,223.4 69.0,217.7 75.9,213.6 82.9,223.4 89.8,235.9 96.8,245.7 103.8,250.3 110.7,237.9 117.7,238.4 124.6,242.6 131.6,235.0 138.6,242.4 145.5,245.1 152.5,184.4 159.4,193.6 166.4,190.5 173.3,184.4 180.3,176.6 187.3,189.0 194.2,188.9 201.2,194.2 208.1,179.8 215.1,189.7 222.1,209.4 229.0,211.9 236.0,231.3 242.9,236.2 249.9,227.7 256.9,222.1 263.8,214.6 270.8,187.3 277.7,214.0 284.7,220.6 291.7,238.9 298.6,250.4 305.6,252.8 312.5,254.8 319.5,270.6 326.5,304.7 333.4,311.2 340.4,296.5 347.3,305.3 354.3,300.8 361.3,316.1 368.2,315.7 375.2,316.6 382.1,328.4 389.1,317.3 396.0,306.7 403.0,309.5 410.0,310.6 416.9,318.7 423.9,317.6 430.8,318.8 437.8,326.0 444.8,326.2 451.7,325.9 458.7,332.9 465.6,334.2 472.6,331.8 479.6,327.5 486.5,336.2 493.5,350.3 500.4,353.1 507.4,367.8 514.4,350.2 521.3,355.1 528.3,353.0 535.2,353.2 542.2,355.4 549.2,358.2 556.1,359.8 563.1,363.4 570.0,353.3 577.0,349.9 584.0,337.6 590.9,338.5 597.9,339.8 604.8,330.0 611.8,306.0 618.7,307.6 625.7,312.3 632.7,308.0 639.6,315.2 646.6,312.5 653.5,305.4 660.5,301.8 667.5,296.0 674.4,306.8 681.4,306.9 688.3,305.4 695.3,296.2 702.3,302.4 709.2,299.1 716.2,304.9 723.1,299.3 730.1,302.4 737.1,299.0 744.0,298.0 751.0,300.1 757.9,310.7 764.9,311.7 771.9,305.2 778.8,298.7 785.8,311.2 792.7,304.5 799.7,297.3 806.7,288.6 813.6,286.6 820.6,291.6 827.5,298.8 834.5,296.2 841.4,301.7 848.4,299.2 855.4,301.4 862.3,304.6 869.3,299.2 876.2,302.3 883.2,294.2 890.2,295.4 897.1,299.1 904.1,295.1 911.0,280.2 918.0,271.5" fill="none" stroke="#2563eb" stroke-width="2.2"/>
<polyline points="62.0,233.5 69.0,234.3 75.9,228.0 82.9,242.2 89.8,249.4 96.8,261.3 103.8,259.7 110.7,246.6 117.7,248.8 124.6,250.3 131.6,258.1 138.6,258.5 145.5,259.3 152.5,193.9 159.4,206.8 166.4,209.3 173.3,209.5 180.3,202.6 187.3,209.9 194.2,217.7 201.2,215.6 208.1,205.8 215.1,207.6 222.1,218.2 229.0,222.7 236.0,231.5 242.9,233.9 249.9,221.4 256.9,215.5 263.8,209.5 270.8,211.3 277.7,222.2 284.7,224.1 291.7,242.4 298.6,253.9 305.6,256.2 312.5,258.2 319.5,273.8 326.5,307.6 333.4,314.0 340.4,299.4 347.3,308.2 354.3,303.7 361.3,318.9 368.2,318.5 375.2,319.4 382.1,331.1 389.1,320.0 396.0,309.5 403.0,311.5 410.0,312.7 416.9,320.7 423.9,319.6 430.8,320.8 437.8,327.9 444.8,328.1 451.7,327.9 458.7,334.8 465.6,336.1 472.6,333.7 479.6,329.4 486.5,338.1 493.5,352.0 500.4,354.8 507.4,369.4 514.4,351.9 521.3,356.8 528.3,353.9 535.2,354.0 542.2,356.3 549.2,359.1 556.1,360.6 563.1,364.3 570.0,354.2 577.0,350.8 584.0,340.2 590.9,341.5 597.9,343.4 604.8,332.7 611.8,307.8 618.7,309.5 625.7,313.8 632.7,309.6 639.6,316.7 646.6,314.1 653.5,307.0 660.5,303.4 667.5,297.6 674.4,309.5 681.4,311.0 688.3,308.8 695.3,301.0 702.3,306.4 709.2,303.2 716.2,308.8 723.1,304.8 730.1,307.4 737.1,304.3 744.0,304.7 751.0,305.2 757.9,314.6 764.9,315.4 771.9,312.0 778.8,309.3 785.8,315.3 792.7,305.7 799.7,298.6 806.7,291.4 813.6,287.2 820.6,292.3 827.5,296.8 834.5,294.3 841.4,299.7 848.4,299.9 855.4,300.5 862.3,302.3 869.3,292.9 876.2,295.4 883.2,286.3 890.2,289.7 897.1,292.4 904.1,289.0 911.0,277.7 918.0,269.1" fill="none" stroke="#16a34a" stroke-width="2.2"/>
<polyline points="62.0,233.5 69.0,227.7 75.9,233.5 82.9,203.0 89.8,195.1 96.8,196.0 103.8,202.1 110.7,199.0 117.7,207.7 124.6,217.3 131.6,237.7 138.6,242.8 145.5,237.4 152.5,168.5 159.4,181.6 166.4,191.1 173.3,197.3 180.3,203.4 187.3,212.0 194.2,199.4 201.2,209.4 208.1,209.8 215.1,220.4 222.1,216.3 229.0,213.2 236.0,208.1 242.9,203.7 249.9,196.0 256.9,190.8 263.8,197.9 270.8,167.6 277.7,180.7 284.7,174.5 291.7,176.2 298.6,171.0 305.6,174.4 312.5,165.4 319.5,191.9 326.5,178.9 333.4,170.4 340.4,180.4 347.3,194.5 354.3,202.9 361.3,202.0 368.2,207.2 375.2,208.9 382.1,209.1 389.1,222.0 396.0,208.3 403.0,208.4 410.0,217.0 416.9,227.8 423.9,235.8 430.8,232.7 437.8,238.0 444.8,237.7 451.7,240.2 458.7,241.0 465.6,236.1 472.6,237.4 479.6,237.6 486.5,249.7 493.5,242.8 500.4,238.0 507.4,230.3 514.4,260.1 521.3,264.3 528.3,272.1 535.2,274.7 542.2,272.0 549.2,272.2 556.1,273.9 563.1,270.2 570.0,274.5 577.0,273.0 584.0,268.5 590.9,270.4 597.9,271.5 604.8,282.3 611.8,252.9 618.7,260.6 625.7,258.7 632.7,283.8 639.6,283.8 646.6,284.1 653.5,276.0 660.5,280.2 667.5,273.0 674.4,271.5 681.4,270.9 688.3,267.8 695.3,272.8 702.3,279.6 709.2,286.9 716.2,294.6 723.1,300.6 730.1,306.6 737.1,307.0 744.0,304.5 751.0,304.2 757.9,302.6 764.9,302.7 771.9,303.5 778.8,300.5 785.8,312.3 792.7,323.2 799.7,317.5 806.7,311.4 813.6,306.6 820.6,311.2 827.5,314.3 834.5,322.8 841.4,332.3 848.4,338.4 855.4,340.6 862.3,333.7 869.3,344.2 876.2,342.7 883.2,339.5 890.2,346.1 897.1,349.4 904.1,351.1 911.0,347.5 918.0,343.4" fill="none" stroke="#7c3aed" stroke-width="2.2"/>
<polyline points="62.0,233.5 69.0,240.9 75.9,232.5 82.9,251.2 89.8,254.1 96.8,268.2 103.8,260.7 110.7,246.6 117.7,250.9 124.6,249.7 131.6,272.9 138.6,268.2 145.5,266.7 152.5,196.0 159.4,212.6 166.4,220.5 173.3,226.4 180.3,219.7 187.3,223.7 194.2,239.8 201.2,231.3 208.1,225.4 215.1,220.3 222.1,222.0 229.0,228.5 236.0,230.7 242.9,230.6 249.9,213.9 256.9,208.1 263.8,203.3 270.8,235.3 277.7,232.3 284.7,234.3 291.7,252.1 298.6,263.2 305.6,265.5 312.5,267.4 319.5,282.5 326.5,315.3 333.4,321.6 340.4,307.4 347.3,315.9 354.3,311.6 361.3,326.3 368.2,325.9 375.2,326.8 382.1,338.1 389.1,327.4 396.0,317.2 403.0,318.3 410.0,319.6 416.9,327.4 423.9,326.3 430.8,327.5 437.8,334.4 444.8,334.6 451.7,334.4 458.7,341.1 465.6,342.4 472.6,340.1 479.6,335.8 486.5,344.3 493.5,357.9 500.4,360.6 507.4,374.8 514.4,357.8 521.3,362.5 528.3,359.0 535.2,359.0 542.2,361.2 549.2,364.0 556.1,365.5 563.1,369.0 570.0,359.2 577.0,355.8 584.0,347.2 590.9,348.8 597.9,351.2 604.8,339.9 611.8,314.6 618.7,316.4 625.7,320.1 632.7,316.0 639.6,323.0 646.6,320.5 653.5,313.5 660.5,310.0 667.5,304.4 674.4,317.2 681.4,319.9 688.3,317.2 695.3,310.8 702.3,315.3 709.2,312.2 716.2,317.6 723.1,315.1 730.1,317.3 737.1,314.5 744.0,316.3 751.0,315.3 757.9,323.3 764.9,323.8 771.9,323.6 778.8,324.3 785.8,324.3 792.7,312.6 799.7,305.6 806.7,300.0 813.6,293.9 820.6,298.9 827.5,300.8 834.5,298.3 841.4,303.4 848.4,306.3 855.4,305.5 862.3,305.7 869.3,292.7 876.2,294.4 883.2,284.4 890.2,290.0 897.1,291.8 904.1,289.0 911.0,281.6 918.0,273.2" fill="none" stroke="#dc2626" stroke-width="2.2"/>
<polyline points="62.0,233.5 69.0,227.7 75.9,236.5 82.9,218.3 89.8,216.5 96.8,201.6 103.8,211.0 110.7,228.2 117.7,223.8 124.6,225.2 131.6,200.3 138.6,206.3 145.5,208.8 152.5,293.3 159.4,281.2 166.4,275.1 173.3,270.2 180.3,276.2 187.3,273.1 194.2,259.5 201.2,267.7 208.1,272.9 215.1,277.7 222.1,276.7 229.0,271.4 236.0,269.6 242.9,270.1 249.9,285.0 256.9,290.0 263.8,294.8 270.8,271.2 277.7,274.2 284.7,272.7 291.7,257.2 298.6,246.3 305.6,243.9 312.5,241.8 319.5,225.4 326.5,186.3 333.4,177.0 340.4,199.1 347.3,187.2 354.3,193.6 361.3,172.4 368.2,173.0 375.2,171.6 382.1,153.2 389.1,172.2 396.0,188.8 403.0,187.5 410.0,186.0 416.9,174.2 423.9,175.9 430.8,174.0 437.8,162.8 444.8,162.5 451.7,162.9 458.7,151.4 465.6,149.1 472.6,153.3 479.6,160.9 486.5,146.2 493.5,121.1 500.4,115.5 507.4,85.2 514.4,126.6 521.3,116.9 528.3,124.5 535.2,124.4 542.2,119.8 549.2,114.0 556.1,110.8 563.1,103.0 570.0,125.4 577.0,132.3 584.0,150.1 590.9,147.2 597.9,142.6 604.8,164.3 611.8,208.4 618.7,205.9 625.7,200.5 632.7,206.9 639.6,197.0 646.6,200.8 653.5,211.0 660.5,215.8 667.5,223.5 674.4,207.3 681.4,203.4 688.3,207.3 695.3,216.4 702.3,210.3 709.2,214.6 716.2,207.2 723.1,210.8 730.1,207.8 737.1,211.8 744.0,209.3 751.0,210.6 757.9,199.4 764.9,198.7 771.9,198.9 778.8,197.9 785.8,197.9 792.7,215.9 799.7,225.5 806.7,233.1 813.6,241.0 820.6,235.7 827.5,233.8 834.5,237.2 841.4,231.3 848.4,227.6 855.4,228.7 862.3,228.4 869.3,245.5 876.2,243.8 883.2,255.6 890.2,249.4 897.1,247.4 904.1,250.7 911.0,259.0 918.0,268.0" fill="none" stroke="#f97316" stroke-width="2.2"/>
<line x1="62" y1="398" x2="918" y2="398" stroke="#111827"/>
<line x1="62" y1="62" x2="62" y2="398" stroke="#111827"/>
<text x="62" y="440" font-size="12" fill="#4b5563">2025-01-02</text>
<text x="836" y="440" font-size="12" fill="#4b5563">2025-07-02</text>
<rect x="665" y="48" width="13" height="13" fill="#111827"/>
<text x="685" y="59" font-size="12" fill="#111827">buy_hold_equal_weight</text>
<rect x="665" y="70" width="13" height="13" fill="#2563eb"/>
<text x="685" y="81" font-size="12" fill="#111827">flow_weighted</text>
<rect x="665" y="92" width="13" height="13" fill="#06b6d4"/>
<text x="685" y="103" font-size="12" fill="#111827">flow_unweighted</text>
<rect x="665" y="114" width="13" height="13" fill="#dc2626"/>
<text x="685" y="125" font-size="12" fill="#111827">price_spread_long_rich</text>
<rect x="665" y="136" width="13" height="13" fill="#f97316"/>
<text x="685" y="147" font-size="12" fill="#111827">price_spread_short_rich</text>
<rect x="665" y="158" width="13" height="13" fill="#16a34a"/>
<text x="685" y="169" font-size="12" fill="#111827">hybrid_flow_price_agree</text>
<rect x="665" y="180" width="13" height="13" fill="#7c3aed"/>
<text x="685" y="191" font-size="12" fill="#111827">momentum_1d</text>
</svg>