<svg xmlns="http://www.w3.org/2000/svg" width="980" height="460" viewBox="0 0 980 460">
<rect width="100%" height="100%" fill="#ffffff"/>
<text x="62" y="30" font-size="19" font-family="Arial" font-weight="700" fill="#111827">oos-2025-followups scaling_n50: OOS Backtest Equity</text>
<line x1="62" y1="62.0" x2="918" y2="62.0" stroke="#e5e7eb"/>
<text x="12" y="66.0" font-size="12" fill="#4b5563">2.55x</text>
<line x1="62" y1="146.0" x2="918" y2="146.0" stroke="#e5e7eb"/>
<text x="12" y="150.0" font-size="12" fill="#4b5563">1.87x</text>
<line x1="62" y1="230.0" x2="918" y2="230.0" stroke="#e5e7eb"/>
<text x="12" y="234.0" font-size="12" fill="#4b5563">1.19x</text>
<line x1="62" y1="314.0" x2="918" y2="314.0" stroke="#e5e7eb"/>
<text x="12" y="318.0" font-size="12" fill="#4b5563">0.51x</text>
<line x1="62" y1="398.0" x2="918" y2="398.0" stroke="#e5e7eb"/>
<text x="12" y="402.0" font-size="12" fill="#4b5563">-0.17x</text>
<polyline points="62.0,259.5 76.8,256.4 91.5,256.7 106.3,280.9 121.0,291.3 135.8,298.3 150.6,297.9 165.3,291.5 180.1,296.3 194.8,293.7 209.6,297.9 224.3,298.7 239.1,298.5 253.9,221.3 268.6,225.2 283.4,210.3 298.1,206.0 312.9,200.1 327.7,205.9 342.4,194.6 357.2,207.1 371.9,196.0 386.7,209.8 401.4,231.1 416.2,231.3 431.0,238.2 445.7,243.1 460.5,252.4 475.2,250.4 490.0,267.5 504.8,268.6 519.5,273.1 534.3,265.5 549.0,276.7 563.8,282.4 578.6,287.4 593.3,287.9 608.1,311.4 622.8,334.4 637.6,340.4 652.3,339.1 667.1,342.7 681.9,340.1 696.6,340.4 711.4,342.5 726.1,342.8 740.9,344.1 755.7,342.5 770.4,340.8 785.2,339.6 799.9,342.2 814.7,341.8 829.4,342.7 844.2,345.1 859.0,346.9 873.7,344.8 888.5,342.8 903.2,344.1 918.0,344.0" fill="none" stroke="#111827" stroke-width="2.2"/>
<polyline points="62.0,259.5 76.8,256.4 91.5,256.7 106.3,280.9 121.0,291.3 135.8,298.3 150.6,297.9 165.3,291.5 180.1,296.3 194.8,293.7 209.6,297.9 224.3,298.7 239.1,298.5 253.9,221.3 268.6,225.2 283.4,210.3 298.1,206.0 312.9,200.1 327.7,205.9 342.4,194.6 357.2,207.1 371.9,196.0 386.7,209.8 401.4,231.1 416.2,231.3 431.0,238.2 445.7,243.1 460.5,252.4 475.2,250.4 490.0,267.5 504.8,268.6 519.5,273.1 534.3,265.5 549.0,276.7 563.8,282.4 578.6,287.4 593.3,287.9 608.1,311.4 622.8,334.4 637.6,340.4 652.3,339.1 667.1,342.7 681.9,340.1 696.6,340.4 711.4,342.5 726.1,342.8 740.9,344.1 755.7,342.5 770.4,340.8 785.2,339.6 799.9,342.2 814.7,341.8 829.4,342.7 844.2,345.1 859.0,346.9 873.7,344.8 888.5,342.8 903.2,344.1 918.0,344.0" fill="none" stroke="#06b6d4" stroke-width="2.2"/>
<polyline points="62.0,259.5 76.8,256.4 91.5,256.7 106.3,280.9 121.0,291.3 135.8,298.3 150.6,297.9 165.3,291.5 180.1,296.3 194.8,293.7 209.6,297.9 224.3,298.7 239.1,298.5 253.9,221.3 268.6,225.2 283.4,210.3 298.1,206.0 312.9,200.1 327.7,205.9 342.4,194.6 357.2,207.1 371.9,196.0 386.7,209.8 401.4,231.1 416.2,231.3 431.0,238.2 445.7,243.1 460.5,252.4 475.2,250.4 490.0,267.5 504.8,268.6 519.5,273.1 534.3,265.5 549.0,276.7 563.8,282.4 578.6,287.4 593.3,287.9 608.1,311.4 622.8,334.4 637.6,340.4 652.3,339.1 667.1,342.7 681.9,340.1 696.6,340.4 711.4,342.5 726.1,342.8 740.9,344.1 755.7,342.5 770.4,340.8 785.2,339.6 799.9,342.2 814.7,341.8 829.4,342.7 844.2,345.1 859.0,346.9 873.7,344.8 888.5,342.8 903.2,344.1 918.0,344.0" fill="none" stroke="#2563eb" stroke-width="2.2"/>
<polyline points="62.0,253.4 76.8,250.4 91.5,250.7 106.3,276.2 121.0,287.1 135.8,294.4 150.6,293.9 165.3,287.2 180.1,292.3 194.8,289.6 209.6,294.0 224.3,294.9 239.1,294.7 253.9,213.5 268.6,216.6 283.4,217.3 298.1,221.0 312.9,214.3 327.7,220.0 342.4,224.5 357.2,223.7 371.9,218.4 386.7,219.1 401.4,223.6 416.2,225.1 431.0,228.3 445.7,227.5 460.5,227.9 475.2,228.8 490.0,231.8 504.8,233.4 519.5,239.4 534.3,229.3 549.0,244.2 563.8,251.7 578.6,258.3 593.3,258.9 608.1,290.1 622.8,320.5 637.6,328.5 652.3,326.9 667.1,331.6 681.9,328.1 696.6,328.5 711.4,331.3 726.1,331.7 740.9,333.5 755.7,331.3 770.4,329.1 785.2,327.5 799.9,330.9 814.7,330.3 829.4,331.5 844.2,334.8 859.0,337.2 873.7,334.4 888.5,331.7 903.2,333.4 918.0,333.3" fill="none" stroke="#16a34a" stroke-width="2.2"/>
<polyline points="62.0,253.4 76.8,257.0 91.5,261.9 106.3,245.6 121.0,231.7 135.8,219.9 150.6,220.8 165.3,208.7 180.1,218.2 194.8,222.3 209.6,230.7 224.3,230.0 239.1,228.7 253.9,85.2 268.6,93.3 283.4,122.6 298.1,105.0 312.9,119.1 327.7,130.2 342.4,101.1 357.2,122.8 371.9,122.9 386.7,142.9 401.4,114.1 416.2,113.7 431.0,115.7 445.7,107.0 460.5,90.7 475.2,96.1 490.0,123.3 504.8,121.4 519.5,131.1 534.3,149.7 549.0,173.7 563.8,163.2 578.6,151.9 593.3,150.7 608.1,203.5 622.8,143.2 637.6,110.3 652.3,110.5 667.1,136.5 681.9,156.5 696.6,159.7 711.4,158.8 726.1,157.3 740.9,166.5 755.7,171.0 770.4,161.8 785.2,154.6 799.9,170.0 814.7,173.7 829.4,179.9 844.2,156.3 859.0,144.3 873.7,161.0 888.5,167.3 903.2,175.6 918.0,176.8" fill="none" stroke="#7c3aed" stroke-width="2.2"/>
<polyline points="62.0,253.4 76.8,250.4 91.5,250.7 106.3,276.2 121.0,287.1 135.8,294.4 150.6,293.9 165.3,287.2 180.1,292.3 194.8,289.6 209.6,294.0 224.3,294.9 239.1,294.7 253.9,213.5 268.6,215.5 283.4,232.8 298.1,243.2 312.9,236.2 327.7,241.6 342.4,258.3 357.2,248.9 371.9,248.3 386.7,239.8 401.4,230.0 416.2,232.6 431.0,231.9 445.7,225.2 460.5,215.7 475.2,220.1 490.0,205.3 504.8,207.4 519.5,214.5 534.3,202.6 549.0,220.1 563.8,229.0 578.6,236.8 593.3,237.5 608.1,274.3 622.8,310.3 637.6,319.7 652.3,317.8 667.1,323.4 681.9,319.2 696.6,319.8 711.4,323.0 726.1,323.5 740.9,325.6 755.7,323.0 770.4,320.4 785.2,318.5 799.9,322.6 814.7,321.9 829.4,323.3 844.2,327.2 859.0,329.9 873.7,326.7 888.5,323.5 903.2,325.5 918.0,325.4" fill="none" stroke="#dc2626" stroke-width="2.2"/>
<polyline points="62.0,253.4 76.8,257.0 91.5,256.7 106.3,232.5 121.0,216.9 135.8,203.9 150.6,204.8 165.3,218.7 180.1,209.8 194.8,215.1 209.6,206.9 224.3,205.1 239.1,205.5 253.9,374.5 268.6,374.5 283.4,374.2 298.1,374.0 312.9,374.1 327.7,374.0 342.4,373.7 357.2,373.9 371.9,374.0 386.7,374.2 401.4,374.4 416.2,374.3 431.0,374.3 445.7,374.4 460.5,374.6 475.2,374.5 490.0,374.8 504.8,374.8 519.5,374.7 534.3,374.8 549.0,374.6 563.8,374.5 578.6,374.3 593.3,374.3 608.1,373.6 622.8,372.5 637.6,371.8 652.3,372.0 667.1,371.5 681.9,372.0 696.6,371.9 711.4,371.6 726.1,371.6 740.9,371.4 755.7,371.6 770.4,371.9 785.2,372.1 799.9,371.7 814.7,371.8 829.4,371.7 844.2,371.3 859.0,371.0 873.7,371.4 888.5,371.7 903.2,371.5 918.0,371.5" fill="none" stroke="#f97316" stroke-width="2.2"/>
<line x1="62" y1="398" x2="918" y2="398" stroke="#111827"/>
<line x1="62" y1="62" x2="62" y2="398" stroke="#111827"/>
<text x="62" y="440" font-size="12" fill="#4b5563">2025-01-02</text>
<text x="836" y="440" font-size="12" fill="#4b5563">2025-03-28</text>
<rect x="665" y="48" width="13" height="13" fill="#111827"/>
<text x="685" y="59" font-size="12" fill="#111827">buy_hold_equal_weight</text>
<rect x="665" y="70" width="13" height="13" fill="#2563eb"/>
<text x="685" y="81" font-size="12" fill="#111827">flow_weighted</text>
<rect x="665" y="92" width="13" height="13" fill="#06b6d4"/>
<text x="685" y="103" font-size="12" fill="#111827">flow_unweighted</text>
<rect x="665" y="114" width="13" height="13" fill="#dc2626"/>
<text x="685" y="125" font-size="12" fill="#111827">price_spread_long_rich</text>
<rect x="665" y="136" width="13" height="13" fill="#f97316"/>
<text x="685" y="147" font-size="12" fill="#111827">price_spread_short_rich</text>
<rect x="665" y="158" width="13" height="13" fill="#16a34a"/>
<text x="685" y="169" font-size="12" fill="#111827">hybrid_flow_price_agree</text>
<rect x="665" y="180" width="13" height="13" fill="#7c3aed"/>
<text x="685" y="191" font-size="12" fill="#111827">momentum_1d</text>
</svg>