<svg xmlns="http://www.w3.org/2000/svg" width="920" height="420" viewBox="0 0 920 420">
<rect width="100%" height="100%" fill="#ffffff"/>
<text x="58" y="28" font-size="18" font-family="Arial" font-weight="700" fill="#111827">oos-2025-followups TLRY scaling_n300 (alias, 2025-01-02 to 2025-03-31)</text>
<line x1="58" y1="58.0" x2="862" y2="58.0" stroke="#e6e8ef"/>
<text x="12" y="62.0" font-size="12" fill="#4b5563">1.53</text>
<line x1="58" y1="134.0" x2="862" y2="134.0" stroke="#e6e8ef"/>
<text x="12" y="138.0" font-size="12" fill="#4b5563">1.28</text>
<line x1="58" y1="210.0" x2="862" y2="210.0" stroke="#e6e8ef"/>
<text x="12" y="214.0" font-size="12" fill="#4b5563">1.02</text>
<line x1="58" y1="286.0" x2="862" y2="286.0" stroke="#e6e8ef"/>
<text x="12" y="290.0" font-size="12" fill="#4b5563">0.77</text>
<line x1="58" y1="362.0" x2="862" y2="362.0" stroke="#e6e8ef"/>
<text x="12" y="366.0" font-size="12" fill="#4b5563">0.52</text>
<line x1="58" y1="362" x2="862" y2="362" stroke="#111827"/>
<line x1="58" y1="58" x2="58" y2="362" stroke="#111827"/>
<polyline points="58.0,79.0 71.6,82.0 85.3,97.0 98.9,82.0 112.5,106.0 126.1,148.2 139.8,163.2 153.4,163.2 167.0,163.2 180.6,163.2 194.3,157.2 207.9,166.2 221.5,178.3 235.2,181.3 248.8,175.3 262.4,187.3 276.0,190.3 289.7,205.4 303.3,178.3 316.9,202.3 330.5,220.4 344.2,217.4 357.8,196.3 371.4,199.3 385.1,217.4 398.7,223.3 412.3,235.6 425.9,232.6 439.6,234.4 453.2,237.6 466.8,249.1 480.4,255.4 494.1,257.2 507.7,232.0 521.3,265.5 534.9,275.5 548.6,278.4 562.2,289.6 575.8,297.1 589.5,312.7 603.1,309.4 616.7,302.2 630.3,314.9 644.0,309.6 657.6,322.5 671.2,334.9 684.8,325.8 698.5,341.0 712.1,334.8 725.7,324.4 739.4,315.0 753.0,325.1 766.6,323.2 780.2,322.7 793.9,313.0 807.5,313.2 821.1,321.1 834.7,303.4 848.4,318.9 862.0,320.5" fill="none" stroke="#2563eb" stroke-width="2.4"/>
<polyline points="58.0,79.0 71.6,79.0 85.3,79.0 98.9,79.0 112.5,79.0 126.1,79.0 139.8,79.0 153.4,79.0 167.0,79.0 180.6,79.0 194.3,79.0 207.9,79.0 221.5,79.0 235.2,79.0 248.8,79.0 262.4,79.0 276.0,79.0 289.7,79.0 303.3,79.0 316.9,79.0 330.5,79.0 344.2,79.0 357.8,79.0 371.4,79.0 385.1,79.0 398.7,79.0 412.3,79.0 425.9,79.0 439.6,79.0 453.2,79.0 466.8,79.0 480.4,79.0 494.1,79.0 507.7,79.0 521.3,79.0 534.9,79.0 548.6,79.0 562.2,79.0 575.8,79.0 589.5,79.0 603.1,79.0 616.7,79.0 630.3,79.0 644.0,79.0 657.6,79.0 671.2,79.0 684.8,79.0 698.5,79.0 712.1,79.0 725.7,79.0 739.4,79.0 753.0,79.0 766.6,79.0 780.2,79.0 793.9,79.0 807.5,79.0 821.1,79.0 834.7,79.0 848.4,79.0 862.0,79.0" fill="none" stroke="#dc2626" stroke-width="2.4"/>
<text x="58" y="400" font-size="12" fill="#4b5563">2025-01-02</text>
<text x="780" y="400" font-size="12" fill="#4b5563">2025-03-31</text>
<rect x="675" y="44" width="14" height="14" fill="#2563eb"/>
<text x="696" y="56" font-size="13" fill="#111827">actual close</text>
<rect x="675" y="68" width="14" height="14" fill="#dc2626"/>
<text x="696" y="80" font-size="13" fill="#111827">sim auction price</text>
</svg>