<svg xmlns="http://www.w3.org/2000/svg" width="920" height="420" viewBox="0 0 920 420">
<rect width="100%" height="100%" fill="#ffffff"/>
<text x="58" y="28" font-size="18" font-family="Arial" font-weight="700" fill="#111827">oos-2025-followups NVNI scaling_n50 (alias, 2025-01-02 to 2025-03-31)</text>
<line x1="58" y1="58.0" x2="862" y2="58.0" stroke="#e6e8ef"/>
<text x="12" y="62.0" font-size="12" fill="#4b5563">7.25</text>
<line x1="58" y1="134.0" x2="862" y2="134.0" stroke="#e6e8ef"/>
<text x="12" y="138.0" font-size="12" fill="#4b5563">5.35</text>
<line x1="58" y1="210.0" x2="862" y2="210.0" stroke="#e6e8ef"/>
<text x="12" y="214.0" font-size="12" fill="#4b5563">3.45</text>
<line x1="58" y1="286.0" x2="862" y2="286.0" stroke="#e6e8ef"/>
<text x="12" y="290.0" font-size="12" fill="#4b5563">1.55</text>
<line x1="58" y1="362.0" x2="862" y2="362.0" stroke="#e6e8ef"/>
<text x="12" y="366.0" font-size="12" fill="#4b5563">-0.35</text>
<line x1="58" y1="362" x2="862" y2="362" stroke="#111827"/>
<line x1="58" y1="58" x2="58" y2="362" stroke="#111827"/>
<polyline points="58.0,228.9 71.6,239.3 85.3,229.7 98.9,234.5 112.5,274.0 126.1,282.4 139.8,290.4 153.4,289.8 167.0,280.4 180.6,288.0 194.3,285.2 207.9,290.0 221.5,289.2 235.2,288.4 248.8,172.1 262.4,174.9 276.0,139.3 289.7,118.9 303.3,122.9 316.9,121.7 330.5,79.0 344.2,118.5 357.8,104.5 371.4,139.3 385.1,180.9 398.7,178.1 412.3,186.9 425.9,200.1 439.6,219.7 453.2,214.1 466.8,244.9 480.4,244.5 494.1,252.5 507.7,247.7 521.3,256.1 534.9,262.8 548.6,270.8 562.2,268.0 575.8,307.6 589.5,333.1 603.1,337.5 616.7,337.2 630.3,338.6 644.0,337.4 657.6,336.9 671.2,337.4 684.8,338.2 698.5,338.2 712.1,337.5 725.7,337.1 739.4,336.9 753.0,337.9 766.6,337.7 780.2,338.3 793.9,340.2 807.5,341.0 821.1,339.8 834.7,339.5 848.4,339.5 862.0,339.4" fill="none" stroke="#2563eb" stroke-width="2.4"/>
<polyline points="58.0,228.9 71.6,228.9 85.3,228.9 98.9,228.9 112.5,228.9 126.1,228.9 139.8,228.9 153.4,228.9 167.0,228.9 180.6,228.9 194.3,228.9 207.9,228.9 221.5,228.9 235.2,228.9 248.8,228.9 262.4,228.9 276.0,228.9 289.7,228.9 303.3,228.9 316.9,228.9 330.5,228.9 344.2,228.9 357.8,228.9 371.4,228.9 385.1,228.9 398.7,228.9 412.3,228.9 425.9,228.9 439.6,228.9 453.2,228.9 466.8,228.9 480.4,228.9 494.1,228.9 507.7,228.9 521.3,228.9 534.9,228.9 548.6,228.9 562.2,228.9 575.8,228.9 589.5,228.9 603.1,228.9 616.7,228.9 630.3,228.9 644.0,228.9 657.6,228.9 671.2,228.9 684.8,228.9 698.5,228.9 712.1,228.9 725.7,228.9 739.4,228.9 753.0,228.9 766.6,228.9 780.2,228.9 793.9,228.9 807.5,228.9 821.1,228.9 834.7,228.9 848.4,228.9 862.0,228.9" fill="none" stroke="#dc2626" stroke-width="2.4"/>
<text x="58" y="400" font-size="12" fill="#4b5563">2025-01-02</text>
<text x="780" y="400" font-size="12" fill="#4b5563">2025-03-31</text>
<rect x="675" y="44" width="14" height="14" fill="#2563eb"/>
<text x="696" y="56" font-size="13" fill="#111827">actual close</text>
<rect x="675" y="68" width="14" height="14" fill="#dc2626"/>
<text x="696" y="80" font-size="13" fill="#111827">sim auction price</text>
</svg>