<svg xmlns="http://www.w3.org/2000/svg" width="920" height="420" viewBox="0 0 920 420">
<rect width="100%" height="100%" fill="#ffffff"/>
<text x="58" y="28" font-size="18" font-family="Arial" font-weight="700" fill="#111827">oos-2025-main CCO main_n200 (alias, 2025-01-02 to 2025-07-03)</text>
<line x1="58" y1="58.0" x2="862" y2="58.0" stroke="#e6e8ef"/>
<text x="12" y="62.0" font-size="12" fill="#4b5563">1.57</text>
<line x1="58" y1="134.0" x2="862" y2="134.0" stroke="#e6e8ef"/>
<text x="12" y="138.0" font-size="12" fill="#4b5563">1.38</text>
<line x1="58" y1="210.0" x2="862" y2="210.0" stroke="#e6e8ef"/>
<text x="12" y="214.0" font-size="12" fill="#4b5563">1.19</text>
<line x1="58" y1="286.0" x2="862" y2="286.0" stroke="#e6e8ef"/>
<text x="12" y="290.0" font-size="12" fill="#4b5563">0.99</text>
<line x1="58" y1="362.0" x2="862" y2="362.0" stroke="#e6e8ef"/>
<text x="12" y="366.0" font-size="12" fill="#4b5563">0.80</text>
<line x1="58" y1="362" x2="862" y2="362" stroke="#111827"/>
<line x1="58" y1="58" x2="58" y2="362" stroke="#111827"/>
<polyline points="58.0,125.9 64.5,98.5 71.0,98.5 77.5,110.3 83.9,129.8 90.4,114.2 96.9,106.3 103.4,110.3 109.9,79.0 116.4,102.4 122.8,90.7 129.3,106.3 135.8,125.9 142.3,118.1 148.8,114.2 155.3,110.3 161.7,118.1 168.2,125.9 174.7,125.9 181.2,141.5 187.7,145.5 194.2,133.7 200.6,141.5 207.1,141.5 213.6,141.5 220.1,137.6 226.6,137.6 233.1,149.4 239.5,106.3 246.0,129.8 252.5,118.1 259.0,114.2 265.5,125.9 272.0,145.5 278.5,157.2 284.9,157.2 291.4,168.9 297.9,204.1 304.4,184.6 310.9,188.5 317.4,165.0 323.8,168.9 330.3,176.8 336.8,172.8 343.3,188.5 349.8,196.3 356.3,208.0 362.7,243.2 369.2,223.7 375.7,235.4 382.2,227.6 388.7,223.7 395.2,235.4 401.6,212.0 408.1,219.8 414.6,215.9 421.1,227.6 427.6,235.4 434.1,243.2 440.5,239.3 447.0,243.2 453.5,239.3 460.0,266.7 466.5,309.7 473.0,321.5 479.5,341.0 485.9,266.7 492.4,274.5 498.9,270.6 505.4,297.9 511.9,298.0 518.4,305.8 524.8,299.0 531.3,301.5 537.8,290.7 544.3,283.3 550.8,270.6 557.3,274.5 563.7,274.5 570.2,266.7 576.7,288.5 583.2,266.7 589.7,251.1 596.2,251.1 602.6,247.2 609.1,243.2 615.6,251.1 622.1,235.4 628.6,223.7 635.1,215.9 641.5,212.0 648.0,204.1 654.5,212.0 661.0,219.8 667.5,215.9 674.0,235.4 680.5,239.3 686.9,251.1 693.4,251.1 699.9,258.9 706.4,255.0 712.9,255.0 719.4,262.8 725.8,243.2 732.3,247.2 738.8,247.2 745.3,227.6 751.8,227.6 758.3,212.0 764.7,223.7 771.2,219.8 777.7,243.2 784.2,223.7 790.7,243.2 797.2,243.2 803.6,235.4 810.1,219.8 816.6,219.8 823.1,219.8 829.6,208.0 836.1,204.1 842.5,215.9 849.0,212.0 855.5,192.4 862.0,188.5" fill="none" stroke="#2563eb" stroke-width="2.4"/>
<polyline points="58.0,125.9 64.5,125.9 71.0,125.9 77.5,125.9 83.9,125.9 90.4,125.9 96.9,125.9 103.4,125.9 109.9,125.9 116.4,125.9 122.8,125.9 129.3,125.9 135.8,125.9 142.3,125.9 148.8,125.9 155.3,125.9 161.7,125.9 168.2,125.9 174.7,125.9 181.2,125.9 187.7,125.9 194.2,125.9 200.6,125.9 207.1,125.9 213.6,125.9 220.1,125.9 226.6,125.9 233.1,125.9 239.5,106.3 246.0,106.3 252.5,106.3 259.0,106.3 265.5,106.3 272.0,106.3 278.5,106.3 284.9,106.3 291.4,106.3 297.9,106.3 304.4,106.3 310.9,106.3 317.4,106.3 323.8,106.3 330.3,106.3 336.8,106.3 343.3,106.3 349.8,106.3 356.3,106.3 362.7,106.3 369.2,106.3 375.7,106.3 382.2,106.3 388.7,106.3 395.2,106.3 401.6,106.3 408.1,106.3 414.6,106.3 421.1,106.3 427.6,106.3 434.1,106.3 440.5,106.3 447.0,106.3 453.5,106.3 460.0,106.3 466.5,106.3 473.0,106.3 479.5,106.3 485.9,106.3 492.4,106.3 498.9,106.3 505.4,106.3 511.9,106.3 518.4,106.3 524.8,106.3 531.3,106.3 537.8,106.3 544.3,106.3 550.8,106.3 557.3,106.3 563.7,106.3 570.2,106.3 576.7,106.3 583.2,106.3 589.7,106.3 596.2,106.3 602.6,106.3 609.1,106.3 615.6,106.3 622.1,106.3 628.6,106.3 635.1,106.3 641.5,106.3 648.0,106.3 654.5,106.3 661.0,106.3 667.5,106.3 674.0,106.3 680.5,106.3 686.9,106.3 693.4,106.3 699.9,106.3 706.4,106.3 712.9,106.3 719.4,106.3 725.8,106.3 732.3,106.3 738.8,106.3 745.3,106.3 751.8,106.3 758.3,106.3 764.7,106.3 771.2,106.3 777.7,106.3 784.2,106.3 790.7,106.3 797.2,106.3 803.6,106.3 810.1,106.3 816.6,106.3 823.1,106.3 829.6,106.3 836.1,106.3 842.5,106.3 849.0,106.3 855.5,106.3 862.0,106.3" fill="none" stroke="#dc2626" stroke-width="2.4"/>
<text x="58" y="400" font-size="12" fill="#4b5563">2025-01-02</text>
<text x="780" y="400" font-size="12" fill="#4b5563">2025-07-03</text>
<rect x="675" y="44" width="14" height="14" fill="#2563eb"/>
<text x="696" y="56" font-size="13" fill="#111827">actual close</text>
<rect x="675" y="68" width="14" height="14" fill="#dc2626"/>
<text x="696" y="80" font-size="13" fill="#111827">sim auction price</text>
</svg>