<svg xmlns="http://www.w3.org/2000/svg" width="920" height="420" viewBox="0 0 920 420">
<rect width="100%" height="100%" fill="#ffffff"/>
<text x="58" y="28" font-size="18" font-family="Arial" font-weight="700" fill="#111827">oos-2025-main ICCM main_n200 (alias, 2025-01-02 to 2025-07-03)</text>
<line x1="58" y1="58.0" x2="862" y2="58.0" stroke="#e6e8ef"/>
<text x="12" y="62.0" font-size="12" fill="#4b5563">1.60</text>
<line x1="58" y1="134.0" x2="862" y2="134.0" stroke="#e6e8ef"/>
<text x="12" y="138.0" font-size="12" fill="#4b5563">1.42</text>
<line x1="58" y1="210.0" x2="862" y2="210.0" stroke="#e6e8ef"/>
<text x="12" y="214.0" font-size="12" fill="#4b5563">1.24</text>
<line x1="58" y1="286.0" x2="862" y2="286.0" stroke="#e6e8ef"/>
<text x="12" y="290.0" font-size="12" fill="#4b5563">1.05</text>
<line x1="58" y1="362.0" x2="862" y2="362.0" stroke="#e6e8ef"/>
<text x="12" y="366.0" font-size="12" fill="#4b5563">0.87</text>
<line x1="58" y1="362" x2="862" y2="362" stroke="#111827"/>
<line x1="58" y1="58" x2="58" y2="362" stroke="#111827"/>
<polyline points="58.0,212.1 64.5,183.0 71.0,153.9 77.5,158.0 83.9,187.1 90.4,180.9 96.9,235.0 103.4,207.9 109.9,212.1 116.4,216.3 122.8,216.3 129.3,212.1 135.8,232.9 142.3,207.9 148.8,207.9 155.3,216.3 161.7,212.1 168.2,212.1 174.7,203.8 181.2,203.8 187.7,199.6 194.2,191.3 200.6,187.1 207.1,187.1 213.6,191.3 220.1,183.0 226.6,166.3 233.1,162.2 239.5,153.9 246.0,158.0 252.5,87.3 259.0,79.0 265.5,99.8 272.0,137.2 278.5,137.2 284.9,162.2 291.4,153.9 297.9,137.2 304.4,158.0 310.9,170.5 317.4,183.0 323.8,187.1 330.3,174.7 336.8,162.2 343.3,187.1 349.8,178.8 356.3,170.5 362.7,149.7 369.2,133.1 375.7,91.4 382.2,112.2 388.7,108.1 395.2,203.8 401.6,203.8 408.1,187.1 414.6,232.9 421.1,249.5 427.6,264.1 434.1,262.0 440.5,234.7 447.0,207.9 453.5,207.9 460.0,212.1 466.5,249.5 473.0,262.0 479.5,278.7 485.9,249.5 492.4,245.4 498.9,255.8 505.4,241.2 511.9,257.9 518.4,249.5 524.8,255.8 531.3,270.3 537.8,249.5 544.3,257.9 550.8,232.9 557.3,224.6 563.7,216.3 570.2,195.5 576.7,199.6 583.2,241.2 589.7,237.1 596.2,287.0 602.6,282.8 609.1,284.9 615.6,295.3 622.1,295.3 628.6,320.3 635.1,292.6 641.5,307.8 648.0,295.3 654.5,291.2 661.0,297.4 667.5,299.5 674.0,295.3 680.5,299.5 686.9,282.8 693.4,253.7 699.9,295.3 706.4,295.3 712.9,287.0 719.4,287.0 725.8,299.5 732.3,295.3 738.8,305.7 745.3,301.6 751.8,291.2 758.3,293.2 764.7,295.3 771.2,312.0 777.7,319.4 784.2,331.7 790.7,331.6 797.2,328.6 803.6,328.1 810.1,341.0 816.6,312.0 823.1,299.5 829.6,301.6 836.1,303.6 842.5,309.7 849.0,299.5 855.5,303.6 862.0,284.9" fill="none" stroke="#2563eb" stroke-width="2.4"/>
<polyline points="58.0,212.1 64.5,212.1 71.0,212.1 77.5,212.1 83.9,212.1 90.4,212.1 96.9,212.1 103.4,212.1 109.9,212.1 116.4,212.1 122.8,212.1 129.3,212.1 135.8,212.1 142.3,212.1 148.8,212.1 155.3,212.1 161.7,212.1 168.2,212.1 174.7,212.1 181.2,212.1 187.7,212.1 194.2,212.1 200.6,212.1 207.1,212.1 213.6,212.1 220.1,212.1 226.6,212.1 233.1,212.1 239.5,153.9 246.0,153.9 252.5,153.9 259.0,153.9 265.5,99.8 272.0,99.8 278.5,99.8 284.9,99.8 291.4,99.8 297.9,99.8 304.4,99.8 310.9,99.8 317.4,99.8 323.8,99.8 330.3,99.8 336.8,99.8 343.3,99.8 349.8,99.8 356.3,99.8 362.7,99.8 369.2,99.8 375.7,99.8 382.2,99.8 388.7,99.8 395.2,99.8 401.6,99.8 408.1,99.8 414.6,99.8 421.1,99.8 427.6,99.8 434.1,99.8 440.5,99.8 447.0,99.8 453.5,99.8 460.0,99.8 466.5,99.8 473.0,99.8 479.5,99.8 485.9,99.8 492.4,99.8 498.9,99.8 505.4,99.8 511.9,99.8 518.4,99.8 524.8,99.8 531.3,99.8 537.8,99.8 544.3,99.8 550.8,99.8 557.3,99.8 563.7,99.8 570.2,99.8 576.7,99.8 583.2,99.8 589.7,99.8 596.2,99.8 602.6,99.8 609.1,99.8 615.6,99.8 622.1,99.8 628.6,99.8 635.1,99.8 641.5,99.8 648.0,99.8 654.5,99.8 661.0,99.8 667.5,99.8 674.0,99.8 680.5,99.8 686.9,99.8 693.4,99.8 699.9,99.8 706.4,99.8 712.9,99.8 719.4,99.8 725.8,99.8 732.3,99.8 738.8,99.8 745.3,99.8 751.8,99.8 758.3,99.8 764.7,99.8 771.2,99.8 777.7,99.8 784.2,99.8 790.7,99.8 797.2,99.8 803.6,99.8 810.1,99.8 816.6,99.8 823.1,99.8 829.6,99.8 836.1,99.8 842.5,99.8 849.0,99.8 855.5,99.8 862.0,99.8" fill="none" stroke="#dc2626" stroke-width="2.4"/>
<text x="58" y="400" font-size="12" fill="#4b5563">2025-01-02</text>
<text x="780" y="400" font-size="12" fill="#4b5563">2025-07-03</text>
<rect x="675" y="44" width="14" height="14" fill="#2563eb"/>
<text x="696" y="56" font-size="13" fill="#111827">actual close</text>
<rect x="675" y="68" width="14" height="14" fill="#dc2626"/>
<text x="696" y="80" font-size="13" fill="#111827">sim auction price</text>
</svg>