<svg xmlns="http://www.w3.org/2000/svg" width="920" height="420" viewBox="0 0 920 420">
<rect width="100%" height="100%" fill="#ffffff"/>
<text x="58" y="28" font-size="18" font-family="Arial" font-weight="700" fill="#111827">oos-2025-main EDIT main_n200 (alias, 2025-01-02 to 2025-07-03)</text>
<line x1="58" y1="58.0" x2="862" y2="58.0" stroke="#e6e8ef"/>
<text x="12" y="62.0" font-size="12" fill="#4b5563">3.38</text>
<line x1="58" y1="134.0" x2="862" y2="134.0" stroke="#e6e8ef"/>
<text x="12" y="138.0" font-size="12" fill="#4b5563">2.73</text>
<line x1="58" y1="210.0" x2="862" y2="210.0" stroke="#e6e8ef"/>
<text x="12" y="214.0" font-size="12" fill="#4b5563">2.09</text>
<line x1="58" y1="286.0" x2="862" y2="286.0" stroke="#e6e8ef"/>
<text x="12" y="290.0" font-size="12" fill="#4b5563">1.45</text>
<line x1="58" y1="362.0" x2="862" y2="362.0" stroke="#e6e8ef"/>
<text x="12" y="366.0" font-size="12" fill="#4b5563">0.80</text>
<line x1="58" y1="362" x2="862" y2="362" stroke="#111827"/>
<line x1="58" y1="58" x2="58" y2="362" stroke="#111827"/>
<polyline points="58.0,302.1 64.5,298.5 71.0,287.9 77.5,285.6 83.9,298.5 90.4,308.0 96.9,319.8 103.4,322.2 109.9,312.7 116.4,310.4 122.8,312.7 129.3,313.9 135.8,298.5 142.3,290.3 148.8,293.8 155.3,290.3 161.7,289.1 168.2,298.5 174.7,295.0 181.2,302.1 187.7,306.8 194.2,304.4 200.6,295.0 207.1,303.3 213.6,309.2 220.1,315.1 226.6,317.4 233.1,316.3 239.5,311.5 246.0,293.8 252.5,251.3 259.0,79.0 265.5,213.5 272.0,230.1 278.5,219.5 284.9,237.2 291.4,239.5 297.9,240.7 304.4,230.1 310.9,247.8 317.4,249.0 323.8,214.7 330.3,246.6 336.8,253.7 343.3,272.6 349.8,283.2 356.3,278.5 362.7,295.0 369.2,284.4 375.7,290.3 382.2,301.5 388.7,292.6 395.2,295.0 401.6,302.1 408.1,292.6 414.6,303.3 421.1,306.8 427.6,303.3 434.1,309.2 440.5,319.8 447.0,323.3 453.5,317.4 460.0,324.5 466.5,335.1 473.0,338.7 479.5,341.0 485.9,321.0 492.4,325.7 498.9,303.3 505.4,300.9 511.9,297.4 518.4,306.8 524.8,305.6 531.3,299.7 537.8,272.6 544.3,272.6 550.8,266.7 557.3,274.9 563.7,270.2 570.2,273.8 576.7,261.9 583.2,265.5 589.7,263.1 596.2,274.9 602.6,299.7 609.1,299.7 615.6,292.6 622.1,285.6 628.6,274.9 635.1,279.7 641.5,293.8 648.0,292.1 654.5,278.5 661.0,280.8 667.5,263.1 674.0,279.7 680.5,265.5 686.9,273.8 693.4,261.9 699.9,236.0 706.4,240.7 712.9,253.7 719.4,247.8 725.8,241.9 732.3,241.9 738.8,244.2 745.3,231.3 751.8,228.9 758.3,208.8 764.7,217.1 771.2,199.4 777.7,224.2 784.2,201.7 790.7,204.1 797.2,179.3 803.6,194.7 810.1,208.8 816.6,191.1 823.1,198.2 829.6,206.5 836.1,187.6 842.5,197.0 849.0,191.1 855.5,154.5 862.0,153.3" fill="none" stroke="#2563eb" stroke-width="2.4"/>
<polyline points="58.0,302.1 64.5,302.1 71.0,302.1 77.5,302.1 83.9,302.1 90.4,302.1 96.9,302.1 103.4,302.1 109.9,302.1 116.4,302.1 122.8,302.1 129.3,302.1 135.8,302.1 142.3,302.1 148.8,302.1 155.3,302.1 161.7,302.1 168.2,302.1 174.7,302.1 181.2,302.1 187.7,302.1 194.2,302.1 200.6,302.1 207.1,302.1 213.6,302.1 220.1,302.1 226.6,302.1 233.1,302.1 239.5,302.1 246.0,302.1 252.5,302.1 259.0,302.1 265.5,213.5 272.0,213.5 278.5,213.5 284.9,213.5 291.4,213.5 297.9,213.5 304.4,213.5 310.9,213.5 317.4,213.5 323.8,213.5 330.3,213.5 336.8,213.5 343.3,213.5 349.8,213.5 356.3,213.5 362.7,213.5 369.2,213.5 375.7,213.5 382.2,213.5 388.7,213.5 395.2,213.5 401.6,213.5 408.1,213.5 414.6,213.5 421.1,213.5 427.6,213.5 434.1,213.5 440.5,213.5 447.0,213.5 453.5,213.5 460.0,213.5 466.5,213.5 473.0,213.5 479.5,213.5 485.9,213.5 492.4,213.5 498.9,213.5 505.4,213.5 511.9,213.5 518.4,213.5 524.8,213.5 531.3,213.5 537.8,213.5 544.3,213.5 550.8,213.5 557.3,213.5 563.7,213.5 570.2,213.5 576.7,213.5 583.2,213.5 589.7,213.5 596.2,213.5 602.6,213.5 609.1,213.5 615.6,213.5 622.1,213.5 628.6,213.5 635.1,213.5 641.5,213.5 648.0,213.5 654.5,213.5 661.0,213.5 667.5,213.5 674.0,213.5 680.5,213.5 686.9,213.5 693.4,213.5 699.9,213.5 706.4,213.5 712.9,213.5 719.4,213.5 725.8,213.5 732.3,213.5 738.8,213.5 745.3,213.5 751.8,213.5 758.3,213.5 764.7,213.5 771.2,213.5 777.7,213.5 784.2,213.5 790.7,213.5 797.2,213.5 803.6,213.5 810.1,213.5 816.6,213.5 823.1,213.5 829.6,213.5 836.1,213.5 842.5,213.5 849.0,213.5 855.5,213.5 862.0,213.5" fill="none" stroke="#dc2626" stroke-width="2.4"/>
<text x="58" y="400" font-size="12" fill="#4b5563">2025-01-02</text>
<text x="780" y="400" font-size="12" fill="#4b5563">2025-07-03</text>
<rect x="675" y="44" width="14" height="14" fill="#2563eb"/>
<text x="696" y="56" font-size="13" fill="#111827">actual close</text>
<rect x="675" y="68" width="14" height="14" fill="#dc2626"/>
<text x="696" y="80" font-size="13" fill="#111827">sim auction price</text>
</svg>