<svg xmlns="http://www.w3.org/2000/svg" width="920" height="420" viewBox="0 0 920 420">
<rect width="100%" height="100%" fill="#ffffff"/>
<text x="58" y="28" font-size="18" font-family="Arial" font-weight="700" fill="#111827">oos-2025-main BLNK main_n200 (alias, 2025-01-02 to 2025-07-03)</text>
<line x1="58" y1="58.0" x2="862" y2="58.0" stroke="#e6e8ef"/>
<text x="12" y="62.0" font-size="12" fill="#4b5563">1.76</text>
<line x1="58" y1="134.0" x2="862" y2="134.0" stroke="#e6e8ef"/>
<text x="12" y="138.0" font-size="12" fill="#4b5563">1.47</text>
<line x1="58" y1="210.0" x2="862" y2="210.0" stroke="#e6e8ef"/>
<text x="12" y="214.0" font-size="12" fill="#4b5563">1.17</text>
<line x1="58" y1="286.0" x2="862" y2="286.0" stroke="#e6e8ef"/>
<text x="12" y="290.0" font-size="12" fill="#4b5563">0.88</text>
<line x1="58" y1="362.0" x2="862" y2="362.0" stroke="#e6e8ef"/>
<text x="12" y="366.0" font-size="12" fill="#4b5563">0.58</text>
<line x1="58" y1="362" x2="862" y2="362" stroke="#111827"/>
<line x1="58" y1="58" x2="58" y2="362" stroke="#111827"/>
<polyline points="58.0,125.3 64.5,99.6 71.0,81.5 77.5,79.0 83.9,97.0 90.4,109.9 96.9,115.0 103.4,140.8 109.9,133.1 116.4,133.1 122.8,133.1 129.3,153.7 135.8,165.2 142.3,179.4 148.8,176.8 155.3,194.9 161.7,210.3 168.2,197.4 174.7,192.3 181.2,197.4 187.7,207.7 194.2,210.3 200.6,215.5 207.1,212.9 213.6,233.5 220.1,236.1 226.6,238.7 233.1,236.1 239.5,219.3 246.0,230.9 252.5,228.4 259.0,230.9 265.5,238.7 272.0,247.7 278.5,258.7 284.9,262.0 291.4,255.7 297.9,251.5 304.4,249.0 310.9,278.4 317.4,265.4 323.8,259.3 330.3,238.7 336.8,243.8 343.3,274.1 349.8,251.5 356.3,260.0 362.7,279.8 369.2,265.9 375.7,241.2 382.2,246.4 388.7,246.4 395.2,254.1 401.6,256.6 408.1,246.4 414.6,251.5 421.1,268.3 427.6,270.0 434.1,270.6 440.5,275.3 447.0,269.2 453.5,264.8 460.0,284.7 466.5,298.5 473.0,297.9 479.5,317.0 485.9,316.1 492.4,333.2 498.9,319.2 505.4,327.6 511.9,338.6 518.4,335.6 524.8,335.3 531.3,341.0 537.8,331.5 544.3,329.8 550.8,313.4 557.3,307.3 563.7,315.5 570.2,319.7 576.7,323.1 583.2,321.6 589.7,318.8 596.2,327.6 602.6,323.9 609.1,316.7 615.6,296.2 622.1,295.8 628.6,289.0 635.1,311.5 641.5,320.7 648.0,328.5 654.5,319.3 661.0,323.4 667.5,321.1 674.0,327.2 680.5,330.2 686.9,326.0 693.4,317.7 699.9,318.5 706.4,321.3 712.9,330.6 719.4,328.4 725.8,309.1 732.3,295.3 738.8,310.2 745.3,288.7 751.8,268.2 758.3,263.0 764.7,272.3 771.2,274.5 777.7,288.1 784.2,284.0 790.7,290.0 797.2,267.2 803.6,271.9 810.1,296.9 816.6,290.2 823.1,275.5 829.6,251.5 836.1,273.8 842.5,269.6 849.0,281.1 855.5,276.0 862.0,263.4" fill="none" stroke="#2563eb" stroke-width="2.4"/>
<polyline points="58.0,125.3 64.5,125.3 71.0,125.3 77.5,125.3 83.9,125.3 90.4,125.3 96.9,125.3 103.4,125.3 109.9,125.3 116.4,125.3 122.8,125.3 129.3,125.3 135.8,125.3 142.3,125.3 148.8,125.3 155.3,125.3 161.7,125.3 168.2,125.3 174.7,125.3 181.2,125.3 187.7,125.3 194.2,125.3 200.6,125.3 207.1,125.3 213.6,125.3 220.1,125.3 226.6,125.3 233.1,125.3 239.5,125.3 246.0,125.3 252.5,125.3 259.0,125.3 265.5,125.3 272.0,125.3 278.5,125.3 284.9,125.3 291.4,125.3 297.9,125.3 304.4,125.3 310.9,125.3 317.4,125.3 323.8,125.3 330.3,125.3 336.8,125.3 343.3,125.3 349.8,125.3 356.3,125.3 362.7,125.3 369.2,125.3 375.7,125.3 382.2,125.3 388.7,125.3 395.2,125.3 401.6,125.3 408.1,125.3 414.6,125.3 421.1,125.3 427.6,125.3 434.1,125.3 440.5,125.3 447.0,125.3 453.5,125.3 460.0,125.3 466.5,125.3 473.0,125.3 479.5,125.3 485.9,125.3 492.4,125.3 498.9,125.3 505.4,125.3 511.9,125.3 518.4,125.3 524.8,125.3 531.3,125.3 537.8,125.3 544.3,125.3 550.8,125.3 557.3,125.3 563.7,125.3 570.2,125.3 576.7,125.3 583.2,125.3 589.7,125.3 596.2,125.3 602.6,125.3 609.1,125.3 615.6,125.3 622.1,125.3 628.6,125.3 635.1,125.3 641.5,125.3 648.0,125.3 654.5,125.3 661.0,125.3 667.5,125.3 674.0,125.3 680.5,125.3 686.9,125.3 693.4,125.3 699.9,125.3 706.4,125.3 712.9,125.3 719.4,125.3 725.8,125.3 732.3,125.3 738.8,125.3 745.3,125.3 751.8,125.3 758.3,125.3 764.7,125.3 771.2,125.3 777.7,125.3 784.2,125.3 790.7,125.3 797.2,125.3 803.6,125.3 810.1,125.3 816.6,125.3 823.1,125.3 829.6,125.3 836.1,125.3 842.5,125.3 849.0,125.3 855.5,125.3 862.0,125.3" fill="none" stroke="#dc2626" stroke-width="2.4"/>
<text x="58" y="400" font-size="12" fill="#4b5563">2025-01-02</text>
<text x="780" y="400" font-size="12" fill="#4b5563">2025-07-03</text>
<rect x="675" y="44" width="14" height="14" fill="#2563eb"/>
<text x="696" y="56" font-size="13" fill="#111827">actual close</text>
<rect x="675" y="68" width="14" height="14" fill="#dc2626"/>
<text x="696" y="80" font-size="13" fill="#111827">sim auction price</text>
</svg>