<svg xmlns="http://www.w3.org/2000/svg" width="920" height="420" viewBox="0 0 920 420">
<rect width="100%" height="100%" fill="#ffffff"/>
<text x="58" y="28" font-size="18" font-family="Arial" font-weight="700" fill="#111827">oos-2025-main CHPT main_n200 (alias, 2025-01-02 to 2025-07-03)</text>
<line x1="58" y1="58.0" x2="862" y2="58.0" stroke="#e6e8ef"/>
<text x="12" y="62.0" font-size="12" fill="#4b5563">1.27</text>
<line x1="58" y1="134.0" x2="862" y2="134.0" stroke="#e6e8ef"/>
<text x="12" y="138.0" font-size="12" fill="#4b5563">1.08</text>
<line x1="58" y1="210.0" x2="862" y2="210.0" stroke="#e6e8ef"/>
<text x="12" y="214.0" font-size="12" fill="#4b5563">0.88</text>
<line x1="58" y1="286.0" x2="862" y2="286.0" stroke="#e6e8ef"/>
<text x="12" y="290.0" font-size="12" fill="#4b5563">0.68</text>
<line x1="58" y1="362.0" x2="862" y2="362.0" stroke="#e6e8ef"/>
<text x="12" y="366.0" font-size="12" fill="#4b5563">0.48</text>
<line x1="58" y1="362" x2="862" y2="362" stroke="#111827"/>
<line x1="58" y1="58" x2="58" y2="362" stroke="#111827"/>
<polyline points="58.0,117.3 64.5,102.0 71.0,86.6 77.5,79.0 83.9,117.3 90.4,121.2 96.9,144.2 103.4,148.0 109.9,121.2 116.4,125.0 122.8,132.7 129.3,140.4 135.8,168.5 142.3,185.4 148.8,163.4 155.3,178.4 161.7,187.1 168.2,173.5 174.7,159.6 181.2,177.9 187.7,190.3 194.2,193.9 200.6,194.1 207.1,193.4 213.6,234.7 220.1,244.0 226.6,285.2 233.1,278.7 239.5,245.5 246.0,234.5 252.5,228.7 259.0,229.2 265.5,244.0 272.0,255.5 278.5,299.6 284.9,306.0 291.4,296.2 297.9,298.2 304.4,291.6 310.9,317.9 317.4,293.8 323.8,269.5 330.3,279.2 336.8,266.2 343.3,282.4 349.8,286.5 356.3,292.1 362.7,298.9 369.2,282.4 375.7,278.5 382.2,284.3 388.7,278.1 395.2,293.3 401.6,284.1 408.1,289.4 414.6,283.6 421.1,290.3 427.6,293.2 434.1,309.8 440.5,315.0 447.0,315.2 453.5,307.8 460.0,328.4 466.5,325.9 473.0,322.1 479.5,341.0 485.9,318.2 492.4,322.3 498.9,314.7 505.4,317.4 511.9,317.7 518.4,328.0 524.8,330.7 531.3,325.5 537.8,317.6 544.3,311.8 550.8,294.5 557.3,291.1 563.7,284.0 570.2,295.8 576.7,308.1 583.2,307.0 589.7,310.6 596.2,324.6 602.6,323.2 609.1,318.4 615.6,315.9 622.1,309.3 628.6,291.2 635.1,280.9 641.5,279.1 648.0,285.1 654.5,273.0 661.0,279.7 667.5,279.8 674.0,280.4 680.5,265.8 686.9,269.5 693.4,267.4 699.9,253.1 706.4,269.5 712.9,280.2 719.4,282.9 725.8,251.0 732.3,212.0 738.8,287.3 745.3,260.4 751.8,246.3 758.3,231.2 764.7,245.5 771.2,253.2 777.7,273.0 784.2,270.2 790.7,284.8 797.2,283.7 803.6,288.5 810.1,284.7 816.6,271.9 823.1,272.1 829.6,258.7 836.1,264.5 842.5,277.3 849.0,276.1 855.5,276.1 862.0,272.7" fill="none" stroke="#2563eb" stroke-width="2.4"/>
<polyline points="58.0,117.3 64.5,117.3 71.0,117.3 77.5,117.3 83.9,117.3 90.4,117.3 96.9,117.3 103.4,117.3 109.9,117.3 116.4,117.3 122.8,117.3 129.3,117.3 135.8,117.3 142.3,117.3 148.8,117.3 155.3,117.3 161.7,117.3 168.2,117.3 174.7,117.3 181.2,117.3 187.7,117.3 194.2,117.3 200.6,117.3 207.1,117.3 213.6,117.3 220.1,117.3 226.6,117.3 233.1,117.3 239.5,117.3 246.0,117.3 252.5,117.3 259.0,117.3 265.5,117.3 272.0,117.3 278.5,117.3 284.9,117.3 291.4,117.3 297.9,117.3 304.4,117.3 310.9,117.3 317.4,117.3 323.8,117.3 330.3,117.3 336.8,117.3 343.3,117.3 349.8,117.3 356.3,117.3 362.7,117.3 369.2,117.3 375.7,117.3 382.2,117.3 388.7,117.3 395.2,117.3 401.6,117.3 408.1,117.3 414.6,117.3 421.1,117.3 427.6,117.3 434.1,117.3 440.5,117.3 447.0,117.3 453.5,117.3 460.0,117.3 466.5,117.3 473.0,117.3 479.5,117.3 485.9,117.3 492.4,320.7 498.9,313.1 505.4,313.1 511.9,313.1 518.4,313.1 524.8,313.1 531.3,313.1 537.8,313.1 544.3,313.1 550.8,313.1 557.3,313.1 563.7,313.1 570.2,313.1 576.7,309.2 583.2,309.2 589.7,309.2 596.2,309.2 602.6,309.2 609.1,309.2 615.6,309.2 622.1,309.2 628.6,309.2 635.1,309.2 641.5,309.2 648.0,309.2 654.5,309.2 661.0,309.2 667.5,309.2 674.0,309.2 680.5,309.2 686.9,309.2 693.4,309.2 699.9,309.2 706.4,309.2 712.9,309.2 719.4,309.2 725.8,309.2 732.3,213.3 738.8,286.2 745.3,259.3 751.8,247.8 758.3,232.5 764.7,232.5 771.2,232.5 777.7,232.5 784.2,232.5 790.7,232.5 797.2,232.5 803.6,232.5 810.1,232.5 816.6,232.5 823.1,232.5 829.6,232.5 836.1,232.5 842.5,232.5 849.0,232.5 855.5,232.5 862.0,232.5" fill="none" stroke="#dc2626" stroke-width="2.4"/>
<text x="58" y="400" font-size="12" fill="#4b5563">2025-01-02</text>
<text x="780" y="400" font-size="12" fill="#4b5563">2025-07-03</text>
<rect x="675" y="44" width="14" height="14" fill="#2563eb"/>
<text x="696" y="56" font-size="13" fill="#111827">actual close</text>
<rect x="675" y="68" width="14" height="14" fill="#dc2626"/>
<text x="696" y="80" font-size="13" fill="#111827">sim auction price</text>
</svg>