<svg xmlns="http://www.w3.org/2000/svg" width="920" height="420" viewBox="0 0 920 420">
<rect width="100%" height="100%" fill="#ffffff"/>
<text x="58" y="28" font-size="18" font-family="Arial" font-weight="700" fill="#111827">oos-2025-main TLRY main_n200 (alias, 2025-01-02 to 2025-07-03)</text>
<line x1="58" y1="58.0" x2="862" y2="58.0" stroke="#e6e8ef"/>
<text x="12" y="62.0" font-size="12" fill="#4b5563">1.55</text>
<line x1="58" y1="134.0" x2="862" y2="134.0" stroke="#e6e8ef"/>
<text x="12" y="138.0" font-size="12" fill="#4b5563">1.23</text>
<line x1="58" y1="210.0" x2="862" y2="210.0" stroke="#e6e8ef"/>
<text x="12" y="214.0" font-size="12" fill="#4b5563">0.91</text>
<line x1="58" y1="286.0" x2="862" y2="286.0" stroke="#e6e8ef"/>
<text x="12" y="290.0" font-size="12" fill="#4b5563">0.59</text>
<line x1="58" y1="362.0" x2="862" y2="362.0" stroke="#e6e8ef"/>
<text x="12" y="366.0" font-size="12" fill="#4b5563">0.27</text>
<line x1="58" y1="362" x2="862" y2="362" stroke="#111827"/>
<line x1="58" y1="58" x2="58" y2="362" stroke="#111827"/>
<polyline points="58.0,79.0 64.5,81.3 71.0,93.3 77.5,81.3 83.9,100.4 90.4,133.8 96.9,145.7 103.4,145.7 109.9,145.7 116.4,145.7 122.8,140.9 129.3,148.1 135.8,157.6 142.3,160.0 148.8,155.2 155.3,164.7 161.7,167.1 168.2,179.0 174.7,157.6 181.2,176.6 187.7,190.9 194.2,188.6 200.6,171.9 207.1,174.3 213.6,188.6 220.1,193.2 226.6,203.0 233.1,200.6 239.5,202.1 246.0,204.6 252.5,213.7 259.0,218.6 265.5,220.1 272.0,200.1 278.5,226.7 284.9,234.5 291.4,236.8 297.9,245.7 304.4,251.7 310.9,264.0 317.4,261.4 323.8,255.7 330.3,265.8 336.8,261.5 343.3,271.8 349.8,281.6 356.3,274.4 362.7,286.5 369.2,281.5 375.7,273.3 382.2,265.8 388.7,273.8 395.2,272.3 401.6,271.9 408.1,264.2 414.6,264.4 421.1,270.7 427.6,256.7 434.1,268.9 440.5,270.2 447.0,270.9 453.5,271.6 460.0,279.6 466.5,285.7 473.0,288.8 479.5,318.1 485.9,300.5 492.4,306.4 498.9,310.7 505.4,310.8 511.9,314.2 518.4,313.4 524.8,319.6 531.3,320.2 537.8,317.7 544.3,321.9 550.8,309.5 557.3,310.8 563.7,313.2 570.2,310.1 576.7,311.2 583.2,311.1 589.7,318.4 596.2,322.1 602.6,326.5 609.1,323.8 615.6,321.4 622.1,324.9 628.6,317.4 635.1,319.5 641.5,321.6 648.0,322.0 654.5,308.9 661.0,318.9 667.5,318.9 674.0,323.7 680.5,320.3 686.9,321.4 693.4,321.2 699.9,319.7 706.4,316.1 712.9,325.4 719.4,329.8 725.8,331.4 732.3,329.3 738.8,334.3 745.3,330.2 751.8,329.1 758.3,326.8 764.7,325.4 771.2,327.6 777.7,330.6 784.2,326.1 790.7,335.3 797.2,335.5 803.6,341.0 810.1,340.9 816.6,335.8 823.1,333.0 829.6,328.6 836.1,331.3 842.5,328.1 849.0,326.4 855.5,311.2 862.0,298.5" fill="none" stroke="#2563eb" stroke-width="2.4"/>
<polyline points="58.0,79.0 64.5,79.0 71.0,79.0 77.5,79.0 83.9,79.0 90.4,79.0 96.9,79.0 103.4,79.0 109.9,79.0 116.4,79.0 122.8,79.0 129.3,79.0 135.8,79.0 142.3,79.0 148.8,79.0 155.3,79.0 161.7,79.0 168.2,79.0 174.7,79.0 181.2,79.0 187.7,79.0 194.2,79.0 200.6,79.0 207.1,79.0 213.6,79.0 220.1,79.0 226.6,79.0 233.1,79.0 239.5,79.0 246.0,79.0 252.5,79.0 259.0,79.0 265.5,79.0 272.0,79.0 278.5,79.0 284.9,79.0 291.4,79.0 297.9,79.0 304.4,79.0 310.9,79.0 317.4,79.0 323.8,79.0 330.3,79.0 336.8,79.0 343.3,79.0 349.8,79.0 356.3,79.0 362.7,79.0 369.2,79.0 375.7,79.0 382.2,79.0 388.7,79.0 395.2,79.0 401.6,79.0 408.1,79.0 414.6,79.0 421.1,79.0 427.6,79.0 434.1,79.0 440.5,79.0 447.0,79.0 453.5,79.0 460.0,79.0 466.5,79.0 473.0,79.0 479.5,79.0 485.9,79.0 492.4,79.0 498.9,79.0 505.4,79.0 511.9,79.0 518.4,79.0 524.8,79.0 531.3,79.0 537.8,79.0 544.3,79.0 550.8,79.0 557.3,79.0 563.7,79.0 570.2,79.0 576.7,79.0 583.2,79.0 589.7,79.0 596.2,79.0 602.6,79.0 609.1,79.0 615.6,79.0 622.1,79.0 628.6,79.0 635.1,79.0 641.5,79.0 648.0,79.0 654.5,79.0 661.0,79.0 667.5,79.0 674.0,79.0 680.5,79.0 686.9,79.0 693.4,79.0 699.9,79.0 706.4,79.0 712.9,79.0 719.4,79.0 725.8,79.0 732.3,79.0 738.8,79.0 745.3,79.0 751.8,79.0 758.3,79.0 764.7,79.0 771.2,79.0 777.7,79.0 784.2,79.0 790.7,79.0 797.2,79.0 803.6,79.0 810.1,79.0 816.6,79.0 823.1,79.0 829.6,79.0 836.1,79.0 842.5,79.0 849.0,79.0 855.5,79.0 862.0,79.0" fill="none" stroke="#dc2626" stroke-width="2.4"/>
<text x="58" y="400" font-size="12" fill="#4b5563">2025-01-02</text>
<text x="780" y="400" font-size="12" fill="#4b5563">2025-07-03</text>
<rect x="675" y="44" width="14" height="14" fill="#2563eb"/>
<text x="696" y="56" font-size="13" fill="#111827">actual close</text>
<rect x="675" y="68" width="14" height="14" fill="#dc2626"/>
<text x="696" y="80" font-size="13" fill="#111827">sim auction price</text>
</svg>