<svg xmlns="http://www.w3.org/2000/svg" width="920" height="420" viewBox="0 0 920 420">
<rect width="100%" height="100%" fill="#ffffff"/>
<text x="58" y="28" font-size="18" font-family="Arial" font-weight="700" fill="#111827">oos-2025-main OGI main_n200 (alias, 2025-01-02 to 2025-07-03)</text>
<line x1="58" y1="58.0" x2="862" y2="58.0" stroke="#e6e8ef"/>
<text x="12" y="62.0" font-size="12" fill="#4b5563">1.80</text>
<line x1="58" y1="134.0" x2="862" y2="134.0" stroke="#e6e8ef"/>
<text x="12" y="138.0" font-size="12" fill="#4b5563">1.55</text>
<line x1="58" y1="210.0" x2="862" y2="210.0" stroke="#e6e8ef"/>
<text x="12" y="214.0" font-size="12" fill="#4b5563">1.31</text>
<line x1="58" y1="286.0" x2="862" y2="286.0" stroke="#e6e8ef"/>
<text x="12" y="290.0" font-size="12" fill="#4b5563">1.06</text>
<line x1="58" y1="362.0" x2="862" y2="362.0" stroke="#e6e8ef"/>
<text x="12" y="366.0" font-size="12" fill="#4b5563">0.81</text>
<line x1="58" y1="362" x2="862" y2="362" stroke="#111827"/>
<line x1="58" y1="58" x2="58" y2="362" stroke="#111827"/>
<polyline points="58.0,100.5 64.5,94.4 71.0,94.4 77.5,91.3 83.9,106.7 90.4,128.3 96.9,128.3 103.4,140.6 109.9,137.5 116.4,128.3 122.8,134.5 129.3,137.5 135.8,128.3 142.3,134.5 148.8,125.2 155.3,140.6 161.7,140.6 168.2,149.9 174.7,134.5 181.2,149.9 187.7,165.3 194.2,146.8 200.6,112.9 207.1,100.5 213.6,94.4 220.1,79.0 226.6,168.4 233.1,196.1 239.5,196.1 246.0,220.8 252.5,193.0 259.0,205.4 265.5,214.6 272.0,208.5 278.5,236.2 284.9,251.6 291.4,254.7 297.9,260.9 304.4,257.8 310.9,282.5 317.4,273.2 323.8,267.0 330.3,279.4 336.8,285.5 343.3,304.0 349.8,307.3 356.3,297.9 362.7,308.0 369.2,294.8 375.7,282.5 382.2,282.5 388.7,279.4 395.2,285.5 401.6,270.1 408.1,270.1 414.6,282.5 421.1,288.6 427.6,285.5 434.1,294.8 440.5,301.0 447.0,291.7 453.5,294.8 460.0,310.0 466.5,319.3 473.0,327.3 479.5,341.0 485.9,317.9 492.4,314.5 498.9,294.8 505.4,291.7 511.9,291.7 518.4,291.7 524.8,282.5 531.3,304.0 537.8,285.5 544.3,279.4 550.8,254.7 557.3,254.7 563.7,267.0 570.2,260.9 576.7,254.7 583.2,260.9 589.7,257.8 596.2,270.1 602.6,273.2 609.1,267.0 615.6,270.1 622.1,248.5 628.6,217.7 635.1,230.0 641.5,236.2 648.0,230.0 654.5,193.0 661.0,208.5 667.5,196.1 674.0,199.2 680.5,190.0 686.9,190.0 693.4,200.8 699.9,196.1 706.4,186.9 712.9,196.1 719.4,208.5 725.8,202.3 732.3,199.2 738.8,208.5 745.3,196.1 751.8,186.9 758.3,171.5 764.7,159.1 771.2,159.1 777.7,180.7 784.2,171.5 790.7,190.0 797.2,205.4 803.6,214.6 810.1,217.7 816.6,193.0 823.1,205.4 829.6,180.7 836.1,196.1 842.5,196.1 849.0,205.4 855.5,186.9 862.0,171.5" fill="none" stroke="#2563eb" stroke-width="2.4"/>
<polyline points="58.0,100.5 64.5,100.5 71.0,100.5 77.5,100.5 83.9,100.5 90.4,100.5 96.9,100.5 103.4,100.5 109.9,100.5 116.4,100.5 122.8,100.5 129.3,100.5 135.8,100.5 142.3,100.5 148.8,100.5 155.3,100.5 161.7,100.5 168.2,100.5 174.7,100.5 181.2,100.5 187.7,100.5 194.2,100.5 200.6,100.5 207.1,100.5 213.6,100.5 220.1,100.5 226.6,100.5 233.1,100.5 239.5,100.5 246.0,100.5 252.5,100.5 259.0,100.5 265.5,100.5 272.0,100.5 278.5,100.5 284.9,100.5 291.4,100.5 297.9,100.5 304.4,100.5 310.9,100.5 317.4,100.5 323.8,100.5 330.3,100.5 336.8,100.5 343.3,100.5 349.8,100.5 356.3,100.5 362.7,100.5 369.2,100.5 375.7,100.5 382.2,100.5 388.7,100.5 395.2,100.5 401.6,100.5 408.1,100.5 414.6,100.5 421.1,100.5 427.6,100.5 434.1,100.5 440.5,100.5 447.0,100.5 453.5,100.5 460.0,100.5 466.5,100.5 473.0,100.5 479.5,100.5 485.9,100.5 492.4,100.5 498.9,100.5 505.4,100.5 511.9,100.5 518.4,100.5 524.8,100.5 531.3,100.5 537.8,100.5 544.3,100.5 550.8,100.5 557.3,100.5 563.7,100.5 570.2,100.5 576.7,100.5 583.2,100.5 589.7,100.5 596.2,100.5 602.6,100.5 609.1,100.5 615.6,100.5 622.1,100.5 628.6,100.5 635.1,100.5 641.5,100.5 648.0,100.5 654.5,100.5 661.0,100.5 667.5,100.5 674.0,100.5 680.5,100.5 686.9,100.5 693.4,100.5 699.9,100.5 706.4,100.5 712.9,100.5 719.4,100.5 725.8,100.5 732.3,100.5 738.8,100.5 745.3,100.5 751.8,100.5 758.3,100.5 764.7,100.5 771.2,100.5 777.7,100.5 784.2,100.5 790.7,100.5 797.2,100.5 803.6,100.5 810.1,100.5 816.6,100.5 823.1,100.5 829.6,100.5 836.1,100.5 842.5,100.5 849.0,100.5 855.5,100.5 862.0,100.5" fill="none" stroke="#dc2626" stroke-width="2.4"/>
<text x="58" y="400" font-size="12" fill="#4b5563">2025-01-02</text>
<text x="780" y="400" font-size="12" fill="#4b5563">2025-07-03</text>
<rect x="675" y="44" width="14" height="14" fill="#2563eb"/>
<text x="696" y="56" font-size="13" fill="#111827">actual close</text>
<rect x="675" y="68" width="14" height="14" fill="#dc2626"/>
<text x="696" y="80" font-size="13" fill="#111827">sim auction price</text>
</svg>