<svg xmlns="http://www.w3.org/2000/svg" width="920" height="420" viewBox="0 0 920 420">
<rect width="100%" height="100%" fill="#ffffff"/>
<text x="58" y="28" font-size="18" font-family="Arial" font-weight="700" fill="#111827">oos-2025-main FRSX main_n200 (alias, 2025-01-02 to 2025-07-03)</text>
<line x1="58" y1="58.0" x2="862" y2="58.0" stroke="#e6e8ef"/>
<text x="12" y="62.0" font-size="12" fill="#4b5563">1.82</text>
<line x1="58" y1="134.0" x2="862" y2="134.0" stroke="#e6e8ef"/>
<text x="12" y="138.0" font-size="12" fill="#4b5563">1.46</text>
<line x1="58" y1="210.0" x2="862" y2="210.0" stroke="#e6e8ef"/>
<text x="12" y="214.0" font-size="12" fill="#4b5563">1.09</text>
<line x1="58" y1="286.0" x2="862" y2="286.0" stroke="#e6e8ef"/>
<text x="12" y="290.0" font-size="12" fill="#4b5563">0.72</text>
<line x1="58" y1="362.0" x2="862" y2="362.0" stroke="#e6e8ef"/>
<text x="12" y="366.0" font-size="12" fill="#4b5563">0.36</text>
<line x1="58" y1="362" x2="862" y2="362" stroke="#111827"/>
<line x1="58" y1="58" x2="58" y2="362" stroke="#111827"/>
<polyline points="58.0,135.1 64.5,79.0 71.0,87.3 77.5,116.4 83.9,166.3 90.4,160.0 96.9,176.6 103.4,166.3 109.9,141.3 116.4,136.1 122.8,153.8 129.3,170.4 135.8,174.6 142.3,168.3 148.8,168.3 155.3,215.1 161.7,213.0 168.2,217.2 174.7,214.1 181.2,220.3 187.7,230.2 194.2,232.3 200.6,212.0 207.1,228.6 213.6,228.6 220.1,235.5 226.6,244.5 233.1,251.1 239.5,242.6 246.0,236.9 252.5,242.2 259.0,240.7 265.5,241.1 272.0,250.7 278.5,260.6 284.9,259.7 291.4,270.2 297.9,279.1 304.4,282.4 310.9,283.3 317.4,292.0 323.8,268.1 330.3,280.6 336.8,278.2 343.3,293.0 349.8,279.6 356.3,276.6 362.7,284.7 369.2,287.0 375.7,288.0 382.2,288.9 388.7,289.4 395.2,294.5 401.6,290.1 408.1,288.9 414.6,290.9 421.1,295.0 427.6,298.3 434.1,302.9 440.5,303.8 447.0,298.7 453.5,293.0 460.0,303.4 466.5,307.6 473.0,304.5 479.5,305.7 485.9,307.6 492.4,316.0 498.9,311.5 505.4,302.6 511.9,300.1 518.4,300.3 524.8,305.0 531.3,310.9 537.8,307.2 544.3,297.4 550.8,292.0 557.3,295.5 563.7,290.4 570.2,282.6 576.7,292.0 583.2,289.3 589.7,283.9 596.2,292.0 602.6,292.6 609.1,298.6 615.6,303.0 622.1,299.4 628.6,300.6 635.1,313.4 641.5,307.8 648.0,305.0 654.5,306.7 661.0,314.7 667.5,311.8 674.0,318.6 680.5,318.0 686.9,316.1 693.4,319.0 699.9,321.3 706.4,320.0 712.9,325.3 719.4,326.4 725.8,326.3 732.3,325.8 738.8,324.7 745.3,322.1 751.8,316.9 758.3,318.0 764.7,325.1 771.2,327.2 777.7,331.5 784.2,332.5 790.7,338.7 797.2,336.9 803.6,336.1 810.1,336.6 816.6,341.0 823.1,340.4 829.6,333.6 836.1,332.5 842.5,339.8 849.0,331.1 855.5,325.9 862.0,325.5" fill="none" stroke="#2563eb" stroke-width="2.4"/>
<polyline points="58.0,135.1 64.5,135.1 71.0,135.1 77.5,135.1 83.9,135.1 90.4,135.1 96.9,135.1 103.4,135.1 109.9,135.1 116.4,135.1 122.8,135.1 129.3,135.1 135.8,135.1 142.3,135.1 148.8,135.1 155.3,135.1 161.7,135.1 168.2,135.1 174.7,135.1 181.2,135.1 187.7,135.1 194.2,135.1 200.6,135.1 207.1,135.1 213.6,135.1 220.1,135.1 226.6,135.1 233.1,135.1 239.5,135.1 246.0,135.1 252.5,135.1 259.0,135.1 265.5,135.1 272.0,135.1 278.5,135.1 284.9,135.1 291.4,135.1 297.9,135.1 304.4,135.1 310.9,135.1 317.4,135.1 323.8,135.1 330.3,135.1 336.8,135.1 343.3,135.1 349.8,135.1 356.3,135.1 362.7,135.1 369.2,135.1 375.7,135.1 382.2,135.1 388.7,135.1 395.2,135.1 401.6,135.1 408.1,135.1 414.6,135.1 421.1,135.1 427.6,135.1 434.1,135.1 440.5,135.1 447.0,135.1 453.5,135.1 460.0,135.1 466.5,135.1 473.0,135.1 479.5,135.1 485.9,135.1 492.4,135.1 498.9,135.1 505.4,135.1 511.9,135.1 518.4,135.1 524.8,135.1 531.3,135.1 537.8,135.1 544.3,135.1 550.8,135.1 557.3,135.1 563.7,135.1 570.2,135.1 576.7,135.1 583.2,135.1 589.7,135.1 596.2,135.1 602.6,135.1 609.1,135.1 615.6,135.1 622.1,135.1 628.6,135.1 635.1,135.1 641.5,135.1 648.0,135.1 654.5,135.1 661.0,135.1 667.5,135.1 674.0,135.1 680.5,135.1 686.9,135.1 693.4,135.1 699.9,135.1 706.4,135.1 712.9,135.1 719.4,135.1 725.8,135.1 732.3,135.1 738.8,135.1 745.3,135.1 751.8,135.1 758.3,135.1 764.7,135.1 771.2,135.1 777.7,135.1 784.2,135.1 790.7,135.1 797.2,135.1 803.6,135.1 810.1,135.1 816.6,135.1 823.1,135.1 829.6,135.1 836.1,135.1 842.5,135.1 849.0,135.1 855.5,135.1 862.0,135.1" fill="none" stroke="#dc2626" stroke-width="2.4"/>
<text x="58" y="400" font-size="12" fill="#4b5563">2025-01-02</text>
<text x="780" y="400" font-size="12" fill="#4b5563">2025-07-03</text>
<rect x="675" y="44" width="14" height="14" fill="#2563eb"/>
<text x="696" y="56" font-size="13" fill="#111827">actual close</text>
<rect x="675" y="68" width="14" height="14" fill="#dc2626"/>
<text x="696" y="80" font-size="13" fill="#111827">sim auction price</text>
</svg>