<svg xmlns="http://www.w3.org/2000/svg" width="920" height="420" viewBox="0 0 920 420">
<rect width="100%" height="100%" fill="#ffffff"/>
<text x="58" y="28" font-size="18" font-family="Arial" font-weight="700" fill="#111827">oos-2025-main TPET main_n200 (alias, 2025-01-02 to 2025-07-03)</text>
<line x1="58" y1="58.0" x2="862" y2="58.0" stroke="#e6e8ef"/>
<text x="12" y="62.0" font-size="12" fill="#4b5563">2.79</text>
<line x1="58" y1="134.0" x2="862" y2="134.0" stroke="#e6e8ef"/>
<text x="12" y="138.0" font-size="12" fill="#4b5563">2.33</text>
<line x1="58" y1="210.0" x2="862" y2="210.0" stroke="#e6e8ef"/>
<text x="12" y="214.0" font-size="12" fill="#4b5563">1.87</text>
<line x1="58" y1="286.0" x2="862" y2="286.0" stroke="#e6e8ef"/>
<text x="12" y="290.0" font-size="12" fill="#4b5563">1.40</text>
<line x1="58" y1="362.0" x2="862" y2="362.0" stroke="#e6e8ef"/>
<text x="12" y="366.0" font-size="12" fill="#4b5563">0.94</text>
<line x1="58" y1="362" x2="862" y2="362" stroke="#111827"/>
<line x1="58" y1="58" x2="58" y2="362" stroke="#111827"/>
<polyline points="58.0,324.6 64.5,327.8 71.0,341.0 77.5,308.1 83.9,181.2 90.4,200.9 96.9,148.2 103.4,192.7 109.9,220.7 116.4,191.0 122.8,224.0 129.3,79.0 135.8,136.7 142.3,186.1 148.8,257.0 155.3,230.6 161.7,245.4 168.2,209.2 174.7,212.5 181.2,227.3 187.7,214.1 194.2,233.9 200.6,224.0 207.1,225.7 213.6,235.5 220.1,237.2 226.6,263.6 233.1,263.6 239.5,257.0 246.0,233.9 252.5,233.9 259.0,248.7 265.5,273.5 272.0,288.3 278.5,293.2 284.9,301.5 291.4,289.9 297.9,276.8 304.4,286.6 310.9,289.9 317.4,314.7 323.8,308.1 330.3,294.9 336.8,298.2 343.3,308.1 349.8,303.1 356.3,309.7 362.7,321.3 369.2,310.5 375.7,278.4 382.2,288.3 388.7,289.9 395.2,288.3 401.6,293.2 408.1,294.9 414.6,289.9 421.1,273.5 427.6,288.3 434.1,293.2 440.5,289.9 447.0,283.3 453.5,271.8 460.0,268.5 466.5,285.0 473.0,285.0 479.5,296.5 485.9,294.9 492.4,286.6 498.9,303.1 505.4,319.6 511.9,322.9 518.4,316.3 524.8,315.5 531.3,304.8 537.8,311.4 544.3,304.8 550.8,304.8 557.3,303.1 563.7,306.4 570.2,314.7 576.7,319.6 583.2,306.4 589.7,316.3 596.2,311.4 602.6,308.1 609.1,309.7 615.6,306.4 622.1,313.0 628.6,306.4 635.1,314.7 641.5,316.3 648.0,324.6 654.5,321.3 661.0,322.9 667.5,324.6 674.0,311.4 680.5,306.4 686.9,322.9 693.4,331.1 699.9,336.1 706.4,336.1 712.9,339.4 719.4,327.8 725.8,327.8 732.3,334.4 738.8,337.7 745.3,332.8 751.8,334.4 758.3,331.1 764.7,301.5 771.2,311.4 777.7,283.3 784.2,301.5 790.7,268.5 797.2,285.0 803.6,258.6 810.1,232.3 816.6,293.2 823.1,318.0 829.6,322.9 836.1,314.7 842.5,313.0 849.0,294.9 855.5,296.5 862.0,298.2" fill="none" stroke="#2563eb" stroke-width="2.4"/>
<polyline points="58.0,324.6 64.5,324.6 71.0,324.6 77.5,324.6 83.9,324.6 90.4,324.6 96.9,324.6 103.4,324.6 109.9,324.6 116.4,324.6 122.8,324.6 129.3,324.6 135.8,324.6 142.3,324.6 148.8,324.6 155.3,324.6 161.7,324.6 168.2,324.6 174.7,324.6 181.2,324.6 187.7,324.6 194.2,324.6 200.6,324.6 207.1,324.6 213.6,324.6 220.1,237.2 226.6,237.2 233.1,237.2 239.5,237.2 246.0,237.2 252.5,237.2 259.0,237.2 265.5,237.2 272.0,237.2 278.5,237.2 284.9,237.2 291.4,237.2 297.9,237.2 304.4,237.2 310.9,237.2 317.4,237.2 323.8,237.2 330.3,237.2 336.8,237.2 343.3,237.2 349.8,237.2 356.3,237.2 362.7,237.2 369.2,237.2 375.7,237.2 382.2,237.2 388.7,237.2 395.2,237.2 401.6,237.2 408.1,237.2 414.6,237.2 421.1,237.2 427.6,237.2 434.1,237.2 440.5,237.2 447.0,237.2 453.5,237.2 460.0,237.2 466.5,237.2 473.0,237.2 479.5,237.2 485.9,237.2 492.4,237.2 498.9,237.2 505.4,237.2 511.9,237.2 518.4,237.2 524.8,237.2 531.3,237.2 537.8,237.2 544.3,237.2 550.8,237.2 557.3,237.2 563.7,237.2 570.2,237.2 576.7,237.2 583.2,237.2 589.7,237.2 596.2,237.2 602.6,237.2 609.1,237.2 615.6,237.2 622.1,237.2 628.6,237.2 635.1,237.2 641.5,237.2 648.0,237.2 654.5,237.2 661.0,237.2 667.5,237.2 674.0,237.2 680.5,237.2 686.9,237.2 693.4,237.2 699.9,237.2 706.4,237.2 712.9,237.2 719.4,237.2 725.8,237.2 732.3,237.2 738.8,237.2 745.3,237.2 751.8,237.2 758.3,237.2 764.7,237.2 771.2,237.2 777.7,237.2 784.2,237.2 790.7,237.2 797.2,237.2 803.6,237.2 810.1,237.2 816.6,237.2 823.1,237.2 829.6,237.2 836.1,237.2 842.5,237.2 849.0,237.2 855.5,237.2 862.0,237.2" fill="none" stroke="#dc2626" stroke-width="2.4"/>
<text x="58" y="400" font-size="12" fill="#4b5563">2025-01-02</text>
<text x="780" y="400" font-size="12" fill="#4b5563">2025-07-03</text>
<rect x="675" y="44" width="14" height="14" fill="#2563eb"/>
<text x="696" y="56" font-size="13" fill="#111827">actual close</text>
<rect x="675" y="68" width="14" height="14" fill="#dc2626"/>
<text x="696" y="80" font-size="13" fill="#111827">sim auction price</text>
</svg>