<svg xmlns="http://www.w3.org/2000/svg" width="920" height="420" viewBox="0 0 920 420">
<rect width="100%" height="100%" fill="#ffffff"/>
<text x="58" y="28" font-size="18" font-family="Arial" font-weight="700" fill="#111827">oos-2025-main NVNI main_n200 (alias, 2025-01-02 to 2025-07-03)</text>
<line x1="58" y1="58.0" x2="862" y2="58.0" stroke="#e6e8ef"/>
<text x="12" y="62.0" font-size="12" fill="#4b5563">7.26</text>
<line x1="58" y1="134.0" x2="862" y2="134.0" stroke="#e6e8ef"/>
<text x="12" y="138.0" font-size="12" fill="#4b5563">5.35</text>
<line x1="58" y1="210.0" x2="862" y2="210.0" stroke="#e6e8ef"/>
<text x="12" y="214.0" font-size="12" fill="#4b5563">3.44</text>
<line x1="58" y1="286.0" x2="862" y2="286.0" stroke="#e6e8ef"/>
<text x="12" y="290.0" font-size="12" fill="#4b5563">1.53</text>
<line x1="58" y1="362.0" x2="862" y2="362.0" stroke="#e6e8ef"/>
<text x="12" y="366.0" font-size="12" fill="#4b5563">-0.38</text>
<line x1="58" y1="362" x2="862" y2="362" stroke="#111827"/>
<line x1="58" y1="58" x2="58" y2="362" stroke="#111827"/>
<polyline points="58.0,228.3 64.5,238.7 71.0,229.1 77.5,233.9 83.9,273.3 90.4,281.7 96.9,289.6 103.4,289.0 109.9,279.7 116.4,287.2 122.8,284.5 129.3,289.2 135.8,288.4 142.3,287.6 148.8,171.8 155.3,174.5 161.7,139.1 168.2,118.8 174.7,122.8 181.2,121.6 187.7,79.0 194.2,118.4 200.6,104.5 207.1,139.1 213.6,180.5 220.1,177.7 226.6,186.5 233.1,199.6 239.5,219.1 246.0,213.6 252.5,244.2 259.0,243.8 265.5,251.8 272.0,247.0 278.5,255.4 284.9,262.2 291.4,270.1 297.9,267.3 304.4,306.8 310.9,332.1 317.4,336.5 323.8,336.2 330.3,337.6 336.8,336.4 343.3,335.9 349.8,336.5 356.3,337.2 362.7,337.2 369.2,336.6 375.7,336.1 382.2,335.9 388.7,336.9 395.2,336.8 401.6,337.3 408.1,339.2 414.6,340.0 421.1,338.8 427.6,338.5 434.1,338.5 440.5,338.4 447.0,338.8 453.5,338.8 460.0,338.0 466.5,338.9 473.0,339.2 479.5,339.6 485.9,339.4 492.4,339.4 498.9,340.2 505.4,339.7 511.9,339.7 518.4,340.3 524.8,340.4 531.3,341.0 537.8,340.7 544.3,340.5 550.8,340.4 557.3,340.5 563.7,340.8 570.2,338.5 576.7,329.1 583.2,330.8 589.7,333.6 596.2,326.5 602.6,329.3 609.1,328.5 615.6,325.8 622.1,325.8 628.6,328.1 635.1,331.9 641.5,331.1 648.0,329.9 654.5,330.9 661.0,329.9 667.5,330.7 674.0,331.0 680.5,330.6 686.9,330.9 693.4,330.4 699.9,330.7 706.4,331.6 712.9,333.0 719.4,333.4 725.8,333.8 732.3,333.3 738.8,333.8 745.3,333.6 751.8,333.4 758.3,332.6 764.7,331.6 771.2,333.0 777.7,332.7 784.2,333.1 790.7,333.5 797.2,334.0 803.6,334.5 810.1,335.4 816.6,334.1 823.1,335.1 829.6,335.1 836.1,335.2 842.5,335.2 849.0,335.7 855.5,334.6 862.0,334.2" fill="none" stroke="#2563eb" stroke-width="2.4"/>
<polyline points="58.0,228.3 64.5,228.3 71.0,228.3 77.5,228.3 83.9,228.3 90.4,228.3 96.9,228.3 103.4,228.3 109.9,228.3 116.4,228.3 122.8,228.3 129.3,228.3 135.8,228.3 142.3,228.3 148.8,228.3 155.3,228.3 161.7,228.3 168.2,228.3 174.7,228.3 181.2,228.3 187.7,228.3 194.2,228.3 200.6,228.3 207.1,228.3 213.6,228.3 220.1,228.3 226.6,228.3 233.1,228.3 239.5,219.1 246.0,219.1 252.5,219.1 259.0,219.1 265.5,219.1 272.0,219.1 278.5,219.1 284.9,219.1 291.4,219.1 297.9,219.1 304.4,219.1 310.9,219.1 317.4,219.1 323.8,219.1 330.3,219.1 336.8,219.1 343.3,219.1 349.8,219.1 356.3,219.1 362.7,219.1 369.2,219.1 375.7,219.1 382.2,219.1 388.7,219.1 395.2,219.1 401.6,219.1 408.1,219.1 414.6,219.1 421.1,219.1 427.6,219.1 434.1,219.1 440.5,219.1 447.0,219.1 453.5,219.1 460.0,219.1 466.5,219.1 473.0,219.1 479.5,219.1 485.9,219.1 492.4,219.1 498.9,219.1 505.4,219.1 511.9,219.1 518.4,219.1 524.8,219.1 531.3,219.1 537.8,219.1 544.3,219.1 550.8,219.1 557.3,219.1 563.7,219.1 570.2,219.1 576.7,219.1 583.2,219.1 589.7,219.1 596.2,219.1 602.6,219.1 609.1,219.1 615.6,219.1 622.1,219.1 628.6,219.1 635.1,219.1 641.5,219.1 648.0,219.1 654.5,219.1 661.0,219.1 667.5,219.1 674.0,219.1 680.5,219.1 686.9,219.1 693.4,219.1 699.9,219.1 706.4,219.1 712.9,219.1 719.4,219.1 725.8,219.1 732.3,219.1 738.8,219.1 745.3,219.1 751.8,219.1 758.3,219.1 764.7,219.1 771.2,219.1 777.7,219.1 784.2,219.1 790.7,219.1 797.2,219.1 803.6,219.1 810.1,219.1 816.6,219.1 823.1,219.1 829.6,219.1 836.1,219.1 842.5,219.1 849.0,219.1 855.5,219.1 862.0,219.1" fill="none" stroke="#dc2626" stroke-width="2.4"/>
<text x="58" y="400" font-size="12" fill="#4b5563">2025-01-02</text>
<text x="780" y="400" font-size="12" fill="#4b5563">2025-07-03</text>
<rect x="675" y="44" width="14" height="14" fill="#2563eb"/>
<text x="696" y="56" font-size="13" fill="#111827">actual close</text>
<rect x="675" y="68" width="14" height="14" fill="#dc2626"/>
<text x="696" y="80" font-size="13" fill="#111827">sim auction price</text>
</svg>