<svg xmlns="http://www.w3.org/2000/svg" width="720" height="220" viewBox="0 0 720 220">
<rect width="100%" height="100%" fill="white" />
<text x="28" y="18" font-family="Arial" font-size="13">CRBP named: flow vs Robintrack d_holders</text>
<line x1="503.8" y1="28" x2="503.8" y2="192" stroke="#999" stroke-dasharray="4 3" />
<line x1="169.2" y1="28" x2="169.2" y2="192" stroke="#999" stroke-dasharray="4 3" />
<line x1="362.6" y1="28" x2="362.6" y2="192" stroke="#999" stroke-dasharray="4 3" />
<line x1="367.8" y1="28" x2="367.8" y2="192" stroke="#999" stroke-dasharray="4 3" />
<line x1="388.8" y1="28" x2="388.8" y2="192" stroke="#999" stroke-dasharray="4 3" />
<polyline fill="none" stroke="#6666cc" stroke-width="2" points="28.0,155.1 33.2,136.0 38.5,140.8 43.7,129.1 48.9,139.0 54.1,145.7 59.4,131.2 64.6,153.8 69.8,150.5 75.1,144.0 80.3,152.1 85.5,143.1 90.7,143.0 96.0,152.8 101.2,119.8 106.4,135.8 111.7,128.0 116.9,129.9 122.1,139.5 127.3,114.5 132.6,146.6 137.8,126.6 143.0,128.3 148.3,134.7 153.5,132.5 158.7,93.8 163.9,81.8 169.2,48.3 174.4,70.2 179.6,28.0 184.9,103.4 190.1,156.2 195.3,159.7 200.5,125.1 205.8,103.9 211.0,137.5 216.2,149.5 221.4,121.2 226.7,150.2 231.9,140.8 237.1,145.4 242.4,142.8 247.6,128.4 252.8,146.4 258.0,150.5 263.3,139.7 268.5,130.8 273.7,146.8 279.0,99.2 284.2,131.3 289.4,128.8 294.6,119.1 299.9,134.3 305.1,69.9 310.3,131.9 315.6,148.2 320.8,141.3 326.0,133.5 331.2,125.0 336.5,139.8 341.7,154.9 346.9,142.1 352.2,131.7 357.4,137.5 362.6,129.4 367.8,128.0 373.1,132.8 378.3,133.5 383.5,130.2 388.8,157.6 394.0,151.0 399.2,150.1 404.4,164.7 409.7,136.8 414.9,144.3 420.1,131.6 425.4,143.4 430.6,140.1 435.8,108.3 441.0,145.6 446.3,156.9 451.5,151.4 456.7,156.5 462.0,135.1 467.2,153.9 472.4,129.9 477.6,135.6 482.9,163.8 488.1,168.3 493.3,169.7 498.6,125.1 503.8,155.7 509.0,181.9 514.2,176.2 519.5,184.6 524.7,183.0 529.9,172.5 535.1,170.2 540.4,187.2 545.6,168.0 550.8,167.5 556.1,176.7 561.3,169.7 566.5,182.4 571.7,167.5 577.0,167.5 582.2,161.7 587.4,169.1 592.7,168.8 597.9,192.0 603.1,166.0 608.3,155.6 613.6,133.9 618.8,154.7 624.0,159.9 629.3,163.2 634.5,155.6 639.7,173.8 644.9,160.4 650.2,178.3 655.4,150.9 660.6,176.1 665.9,154.9 671.1,141.7 676.3,131.0 681.5,138.8 686.8,182.8 692.0,162.8" />
<polyline fill="none" stroke="#cc6633" stroke-width="2" points="28.0,36.8 33.2,87.5 38.5,108.4 43.7,93.3 48.9,51.7 54.1,90.3 59.4,36.2 64.6,52.6 69.8,30.9 75.1,57.5 80.3,77.1 85.5,75.8 90.7,63.7 96.0,50.8 101.2,39.6 106.4,32.7 111.7,146.1 116.9,38.7 122.1,52.7 127.3,173.9 132.6,87.5 137.8,64.3 143.0,63.0 148.3,57.8 153.5,111.4 158.7,28.4 163.9,88.7 169.2,28.1 174.4,28.3 179.6,29.3 184.9,29.7 190.1,31.5 195.3,55.0 200.5,30.0 205.8,34.8 211.0,34.5 216.2,73.8 221.4,28.0 226.7,167.1 231.9,31.2 237.1,48.2 242.4,69.4 247.6,40.7 252.8,66.1 258.0,32.9 263.3,58.2 268.5,40.0 273.7,35.1 279.0,28.0 284.2,40.0 289.4,28.6 294.6,68.2 299.9,31.8 305.1,139.1 310.3,81.4 315.6,101.1 320.8,28.1 326.0,38.1 331.2,29.7 336.5,108.2 341.7,77.6 346.9,43.6 352.2,37.2 357.4,44.5 362.6,45.2 367.8,43.4 373.1,45.3 378.3,30.4 383.5,72.5 388.8,52.9 394.0,192.0 399.2,43.7 404.4,76.9 409.7,37.2 414.9,28.3 420.1,45.1 425.4,74.2 430.6,66.1 435.8,31.3 441.0,36.1 446.3,108.2 451.5,97.3 456.7,90.9 462.0,100.4 467.2,84.7 472.4,36.0 477.6,178.5 482.9,130.7 488.1,68.5 493.3,106.3 498.6,52.1 503.8,31.5 509.0,45.0 514.2,30.0 519.5,45.0 524.7,38.9 529.9,74.3 535.1,36.9 540.4,28.5 545.6,28.8 550.8,87.8 556.1,75.9 561.3,28.8 566.5,29.1 571.7,54.9 577.0,76.7 582.2,34.8 587.4,28.0 592.7,41.6 597.9,57.1 603.1,39.5 608.3,129.9 613.6,30.5 618.8,72.5 624.0,39.5 629.3,50.2 634.5,111.8 639.7,86.7 644.9,73.5 650.2,76.4 655.4,39.5 660.6,28.8 665.9,37.9 671.1,106.7 676.3,32.1 681.5,88.0 686.8,39.7 692.0,99.9" />
<text x="28" y="212" font-family="Arial" font-size="11" fill="#cc6633">flow imbalance</text>
<text x="158" y="212" font-family="Arial" font-size="11" fill="#6666cc">Robintrack d_holders</text>
</svg>