<svg xmlns="http://www.w3.org/2000/svg" width="720" height="220" viewBox="0 0 720 220">
<rect width="100%" height="100%" fill="white" />
<text x="28" y="18" font-family="Arial" font-size="13">GOLD alias: flow vs Robintrack d_holders</text>
<line x1="38.5" y1="28" x2="38.5" y2="192" stroke="#999" stroke-dasharray="4 3" />
<line x1="179.6" y1="28" x2="179.6" y2="192" stroke="#999" stroke-dasharray="4 3" />
<line x1="498.6" y1="28" x2="498.6" y2="192" stroke="#999" stroke-dasharray="4 3" />
<line x1="655.4" y1="28" x2="655.4" y2="192" stroke="#999" stroke-dasharray="4 3" />
<line x1="96.0" y1="28" x2="96.0" y2="192" stroke="#999" stroke-dasharray="4 3" />
<polyline fill="none" stroke="#6666cc" stroke-width="2" points="28.0,151.7 33.2,150.4 38.5,149.4 43.7,141.7 48.9,150.1 54.1,150.4 59.4,141.5 64.6,143.8 69.8,158.6 75.1,149.1 80.3,157.3 85.5,137.8 90.7,111.2 96.0,137.5 101.2,127.8 106.4,145.4 111.7,139.4 116.9,148.6 122.1,153.0 127.3,143.6 132.6,139.9 137.8,148.0 143.0,131.7 148.3,117.8 153.5,28.0 158.7,135.7 163.9,54.3 169.2,152.5 174.4,95.9 179.6,42.5 184.9,134.3 190.1,76.7 195.3,133.8 200.5,167.8 205.8,176.5 211.0,163.8 216.2,148.3 221.4,138.8 226.7,82.8 231.9,58.0 237.1,72.8 242.4,80.6 247.6,176.5 252.8,141.7 258.0,100.1 263.3,155.4 268.5,124.3 273.7,150.7 279.0,192.0 284.2,158.8 289.4,165.9 294.6,152.0 299.9,154.4 305.1,144.4 310.3,155.9 315.6,151.2 320.8,167.0 326.0,155.7 331.2,144.9 336.5,157.5 341.7,152.5 346.9,160.9 352.2,158.3 357.4,160.9 362.6,149.1 367.8,143.3 373.1,150.7 378.3,158.0 383.5,156.7 388.8,147.5 394.0,161.5 399.2,151.7 404.4,123.0 409.7,150.1 414.9,159.1 420.1,150.9 425.4,167.3 430.6,155.9 435.8,154.1 441.0,151.5 446.3,155.1 451.5,174.4 456.7,162.8 462.0,145.4 467.2,142.8 472.4,153.0 477.6,165.4 482.9,144.6 488.1,136.2 493.3,135.1 498.6,157.3 503.8,144.9 509.0,146.2 514.2,144.9 519.5,151.7 524.7,171.7 529.9,159.4 535.1,156.5 540.4,164.4 545.6,157.8 550.8,157.8 556.1,154.9 561.3,150.4 566.5,148.8 571.7,160.1 577.0,151.7 582.2,155.7 587.4,145.4 592.7,151.5 597.9,157.8 603.1,148.8 608.3,148.3 613.6,149.9 618.8,158.3 624.0,164.4 629.3,158.3 634.5,155.9 639.7,153.0 644.9,156.5 650.2,162.0 655.4,148.6 660.6,153.3 665.9,158.3 671.1,154.4 676.3,149.6 681.5,149.4 686.8,128.8 692.0,154.6" />
<polyline fill="none" stroke="#cc6633" stroke-width="2" points="28.0,53.8 33.2,48.8 38.5,64.9 43.7,47.2 48.9,29.2 54.1,28.0 59.4,28.0 64.6,39.4 69.8,52.5 75.1,35.0 80.3,54.8 85.5,31.3 90.7,44.4 96.0,48.6 101.2,32.5 106.4,29.5 111.7,30.5 116.9,56.7 122.1,56.0 127.3,53.3 132.6,39.0 137.8,38.4 143.0,74.9 148.3,89.4 153.5,110.6 158.7,85.5 163.9,51.9 169.2,29.3 174.4,34.5 179.6,30.1 184.9,31.1 190.1,36.6 195.3,28.4 200.5,28.0 205.8,31.1 211.0,28.3 216.2,30.1 221.4,31.0 226.7,78.5 231.9,29.2 237.1,33.0 242.4,35.7 247.6,30.2 252.8,32.3 258.0,31.8 263.3,36.9 268.5,51.1 273.7,28.0 279.0,28.0 284.2,66.0 289.4,29.3 294.6,49.2 299.9,30.2 305.1,59.9 310.3,45.2 315.6,83.9 320.8,55.6 326.0,31.9 331.2,57.3 336.5,50.4 341.7,63.4 346.9,33.8 352.2,30.1 357.4,30.1 362.6,40.3 367.8,51.7 373.1,75.9 378.3,28.6 383.5,39.0 388.8,44.3 394.0,61.5 399.2,55.9 404.4,87.4 409.7,68.3 414.9,29.2 420.1,56.4 425.4,66.0 430.6,48.6 435.8,36.0 441.0,28.0 446.3,71.1 451.5,35.9 456.7,28.5 462.0,32.4 467.2,48.1 472.4,33.3 477.6,110.5 482.9,32.0 488.1,75.1 493.3,94.3 498.6,32.9 503.8,50.6 509.0,29.1 514.2,30.9 519.5,54.4 524.7,54.3 529.9,52.5 535.1,46.9 540.4,31.9 545.6,28.9 550.8,38.1 556.1,31.4 561.3,52.5 566.5,31.5 571.7,32.5 577.0,36.5 582.2,79.4 587.4,42.0 592.7,31.7 597.9,192.0 603.1,48.2 608.3,45.8 613.6,39.4 618.8,31.5 624.0,29.1 629.3,57.3 634.5,44.1 639.7,33.3 644.9,49.0 650.2,43.8 655.4,29.9 660.6,29.7 665.9,29.2 671.1,42.6 676.3,36.7 681.5,58.2 686.8,35.9 692.0,30.3" />
<text x="28" y="212" font-family="Arial" font-size="11" fill="#cc6633">flow imbalance</text>
<text x="158" y="212" font-family="Arial" font-size="11" fill="#6666cc">Robintrack d_holders</text>
</svg>