<svg xmlns="http://www.w3.org/2000/svg" width="720" height="220" viewBox="0 0 720 220">
<rect width="100%" height="100%" fill="white" />
<text x="28" y="18" font-family="Arial" font-size="13">IGC alias: flow vs Robintrack d_holders</text>
<line x1="498.6" y1="28" x2="498.6" y2="192" stroke="#999" stroke-dasharray="4 3" />
<line x1="174.4" y1="28" x2="174.4" y2="192" stroke="#999" stroke-dasharray="4 3" />
<line x1="326.0" y1="28" x2="326.0" y2="192" stroke="#999" stroke-dasharray="4 3" />
<line x1="48.9" y1="28" x2="48.9" y2="192" stroke="#999" stroke-dasharray="4 3" />
<line x1="54.1" y1="28" x2="54.1" y2="192" stroke="#999" stroke-dasharray="4 3" />
<polyline fill="none" stroke="#6666cc" stroke-width="2" points="28.0,107.5 33.2,173.1 38.5,192.0 43.7,30.9 48.9,30.9 54.1,149.2 59.4,134.3 64.6,114.2 69.8,109.9 75.1,153.5 80.3,145.4 85.5,123.5 90.7,141.9 96.0,45.5 101.2,69.4 106.4,138.7 111.7,153.5 116.9,127.3 122.1,104.6 127.3,28.0 132.6,99.1 137.8,96.7 143.0,68.8 148.3,105.5 153.5,104.6 158.7,95.0 163.9,100.2 169.2,86.8 174.4,94.1 179.6,88.9 184.9,142.5 190.1,118.0 195.3,107.5 200.5,97.3 205.8,95.6 211.0,118.0 216.2,75.2 221.4,73.7 226.7,130.8 231.9,125.9 237.1,103.7 242.4,111.0 247.6,100.8 252.8,111.0 258.0,122.4 263.3,97.3 268.5,99.4 273.7,81.0 279.0,77.5 284.2,104.3 289.4,125.9 294.6,97.9 299.9,112.5 305.1,97.3 310.3,117.1 315.6,78.1 320.8,88.0 326.0,115.1 331.2,132.9 336.5,99.1 341.7,89.5 346.9,108.1 352.2,83.3 357.4,68.5 362.6,89.2 367.8,127.6 373.1,60.9 378.3,102.3 383.5,139.0 388.8,126.7 394.0,103.7 399.2,100.8 404.4,112.5 409.7,93.0 414.9,72.9 420.1,105.5 425.4,35.3 430.6,79.0 435.8,89.5 441.0,117.1 446.3,148.3 451.5,118.3 456.7,106.4 462.0,135.8 467.2,135.2 472.4,95.6 477.6,104.9 482.9,86.8 488.1,61.8 493.3,109.9 498.6,102.9 503.8,127.3 509.0,109.9 514.2,99.1 519.5,127.0 524.7,140.1 529.9,113.1 535.1,111.6 540.4,91.2 545.6,134.0 550.8,95.9 556.1,37.9 561.3,116.3 566.5,114.5 571.7,120.3 577.0,126.2 582.2,94.1 587.4,127.3 592.7,110.4 597.9,101.1 603.1,115.1 608.3,109.9 613.6,84.5 618.8,104.3 624.0,124.4 629.3,111.0 634.5,106.1 639.7,95.9 644.9,99.7 650.2,92.4 655.4,73.4 660.6,78.7 665.9,88.3 671.1,123.8 676.3,99.7 681.5,124.1 686.8,129.1 692.0,74.0" />
<polyline fill="none" stroke="#cc6633" stroke-width="2" points="28.0,28.5 33.2,30.3 38.5,28.9 43.7,28.8 48.9,28.0 54.1,28.5 59.4,29.1 64.6,28.8 69.8,41.1 75.1,29.0 80.3,31.6 85.5,30.2 90.7,35.3 96.0,28.8 101.2,28.5 106.4,28.4 111.7,30.8 116.9,31.1 122.1,30.0 127.3,31.3 132.6,28.0 137.8,29.6 143.0,30.7 148.3,30.3 153.5,31.6 158.7,28.2 163.9,32.7 169.2,28.0 174.4,28.3 179.6,28.6 184.9,28.8 190.1,28.4 195.3,29.7 200.5,28.2 205.8,32.5 211.0,28.1 216.2,28.1 221.4,28.1 226.7,32.1 231.9,28.4 237.1,28.4 242.4,28.8 247.6,29.0 252.8,29.5 258.0,28.6 263.3,28.7 268.5,29.4 273.7,28.0 279.0,29.1 284.2,30.6 289.4,32.1 294.6,29.4 299.9,28.3 305.1,30.8 310.3,38.3 315.6,29.1 320.8,30.3 326.0,28.0 331.2,28.0 336.5,31.9 341.7,32.1 346.9,29.2 352.2,28.1 357.4,28.2 362.6,28.2 367.8,29.2 373.1,28.1 378.3,28.1 383.5,37.9 388.8,28.3 394.0,37.5 399.2,29.7 404.4,41.2 409.7,29.1 414.9,28.3 420.1,30.1 425.4,28.0 430.6,39.6 435.8,28.4 441.0,28.9 446.3,34.6 451.5,29.9 456.7,45.9 462.0,28.2 467.2,42.2 472.4,28.5 477.6,31.8 482.9,28.2 488.1,34.3 493.3,28.4 498.6,29.1 503.8,28.4 509.0,28.8 514.2,28.1 519.5,30.2 524.7,29.5 529.9,30.2 535.1,28.1 540.4,28.4 545.6,28.2 550.8,29.3 556.1,42.0 561.3,30.8 566.5,192.0 571.7,30.1 577.0,29.1 582.2,28.0 587.4,86.3 592.7,28.8 597.9,72.5 603.1,28.8 608.3,35.0 613.6,28.7 618.8,29.8 624.0,28.4 629.3,30.8 634.5,28.1 639.7,29.6 644.9,31.8 650.2,30.3 655.4,29.2 660.6,29.7 665.9,50.2 671.1,31.0 676.3,28.4 681.5,28.7 686.8,28.8 692.0,29.6" />
<text x="28" y="212" font-family="Arial" font-size="11" fill="#cc6633">flow imbalance</text>
<text x="158" y="212" font-family="Arial" font-size="11" fill="#6666cc">Robintrack d_holders</text>
</svg>