<svg xmlns="http://www.w3.org/2000/svg" width="720" height="220" viewBox="0 0 720 220">
<rect width="100%" height="100%" fill="white" />
<text x="28" y="18" font-family="Arial" font-size="13">XXII named: flow vs Robintrack d_holders</text>
<line x1="644.9" y1="28" x2="644.9" y2="192" stroke="#999" stroke-dasharray="4 3" />
<line x1="80.3" y1="28" x2="80.3" y2="192" stroke="#999" stroke-dasharray="4 3" />
<line x1="96.0" y1="28" x2="96.0" y2="192" stroke="#999" stroke-dasharray="4 3" />
<line x1="148.3" y1="28" x2="148.3" y2="192" stroke="#999" stroke-dasharray="4 3" />
<line x1="153.5" y1="28" x2="153.5" y2="192" stroke="#999" stroke-dasharray="4 3" />
<polyline fill="none" stroke="#6666cc" stroke-width="2" points="28.0,149.9 33.2,154.9 38.5,148.1 43.7,118.9 48.9,147.8 54.1,163.9 59.4,165.0 64.6,148.6 69.8,172.8 75.1,126.8 80.3,154.6 85.5,162.3 90.7,150.9 96.0,159.3 101.2,146.8 106.4,151.2 111.7,167.9 116.9,157.7 122.1,164.4 127.3,168.4 132.6,155.6 137.8,146.3 143.0,165.5 148.3,122.4 153.5,132.2 158.7,114.6 163.9,133.6 169.2,153.6 174.4,163.9 179.6,164.4 184.9,178.2 190.1,171.2 195.3,174.3 200.5,170.9 205.8,159.3 211.0,157.7 216.2,164.7 221.4,175.1 226.7,156.1 231.9,160.1 237.1,154.6 242.4,165.5 247.6,161.4 252.8,154.0 258.0,138.9 263.3,163.4 268.5,192.0 273.7,172.5 279.0,155.8 284.2,162.9 289.4,164.0 294.6,153.5 299.9,158.0 305.1,180.9 310.3,165.8 315.6,167.5 320.8,159.0 326.0,154.3 331.2,148.8 336.5,164.7 341.7,169.6 346.9,157.4 352.2,151.9 357.4,138.2 362.6,153.8 367.8,155.6 373.1,149.7 378.3,149.1 383.5,145.8 388.8,153.3 394.0,156.1 399.2,160.8 404.4,156.4 409.7,158.7 414.9,155.6 420.1,151.0 425.4,154.5 430.6,159.2 435.8,157.7 441.0,161.1 446.3,160.3 451.5,157.7 456.7,147.8 462.0,155.4 467.2,127.0 472.4,134.8 477.6,143.7 482.9,127.1 488.1,156.4 493.3,147.8 498.6,130.9 503.8,145.2 509.0,147.0 514.2,148.1 519.5,152.3 524.7,147.3 529.9,147.8 535.1,153.0 540.4,166.6 545.6,143.1 550.8,28.0 556.1,94.3 561.3,155.1 566.5,170.1 571.7,147.1 577.0,155.4 582.2,161.1 587.4,159.8 592.7,150.4 597.9,125.7 603.1,143.6 608.3,142.9 613.6,147.1 618.8,144.5 624.0,152.8 629.3,154.6 634.5,156.7 639.7,108.5 644.9,131.0 650.2,127.0 655.4,155.1 660.6,161.0 665.9,153.5 671.1,155.6 676.3,118.0 681.5,132.7 686.8,140.2 692.0,165.8" />
<polyline fill="none" stroke="#cc6633" stroke-width="2" points="28.0,40.3 33.2,73.5 38.5,32.8 43.7,46.3 48.9,30.7 54.1,39.5 59.4,56.1 64.6,48.5 69.8,69.1 75.1,32.2 80.3,47.8 85.5,51.7 90.7,28.9 96.0,32.4 101.2,68.2 106.4,33.7 111.7,56.1 116.9,63.7 122.1,36.5 127.3,48.5 132.6,32.1 137.8,35.2 143.0,47.9 148.3,56.7 153.5,43.9 158.7,181.2 163.9,30.4 169.2,28.8 174.4,28.5 179.6,30.2 184.9,31.0 190.1,29.5 195.3,44.6 200.5,58.7 205.8,32.1 211.0,28.1 216.2,29.1 221.4,28.5 226.7,68.9 231.9,29.4 237.1,43.2 242.4,31.1 247.6,48.9 252.8,30.9 258.0,34.6 263.3,28.3 268.5,36.6 273.7,29.4 279.0,28.2 284.2,102.0 289.4,28.0 294.6,39.9 299.9,31.7 305.1,53.7 310.3,28.8 315.6,28.6 320.8,28.7 326.0,31.0 331.2,46.9 336.5,108.0 341.7,28.6 346.9,75.5 352.2,33.6 357.4,29.4 362.6,32.9 367.8,30.2 373.1,70.7 378.3,29.8 383.5,48.1 388.8,38.4 394.0,91.3 399.2,40.5 404.4,43.2 409.7,69.1 414.9,28.1 420.1,39.1 425.4,45.4 430.6,47.2 435.8,31.3 441.0,181.7 446.3,72.8 451.5,192.0 456.7,39.9 462.0,31.5 467.2,78.2 472.4,49.4 477.6,136.1 482.9,47.6 488.1,97.1 493.3,69.5 498.6,90.6 503.8,47.6 509.0,28.3 514.2,41.1 519.5,47.1 524.7,45.4 529.9,72.3 535.1,29.5 540.4,47.2 545.6,28.1 550.8,33.0 556.1,34.5 561.3,36.0 566.5,55.7 571.7,29.9 577.0,34.2 582.2,31.6 587.4,34.5 592.7,29.9 597.9,53.9 603.1,33.8 608.3,40.1 613.6,28.4 618.8,30.9 624.0,31.1 629.3,33.4 634.5,30.7 639.7,36.8 644.9,33.0 650.2,29.6 655.4,46.9 660.6,34.1 665.9,39.7 671.1,41.4 676.3,37.3 681.5,97.1 686.8,35.0 692.0,63.6" />
<text x="28" y="212" font-family="Arial" font-size="11" fill="#cc6633">flow imbalance</text>
<text x="158" y="212" font-family="Arial" font-size="11" fill="#6666cc">Robintrack d_holders</text>
</svg>