<svg xmlns="http://www.w3.org/2000/svg" width="720" height="220" viewBox="0 0 720 220">
<rect width="100%" height="100%" fill="white" />
<text x="28" y="18" font-family="Arial" font-size="13">BLNK alias: flow vs Robintrack d_holders</text>
<line x1="524.7" y1="28" x2="524.7" y2="192" stroke="#999" stroke-dasharray="4 3" />
<line x1="326.0" y1="28" x2="326.0" y2="192" stroke="#999" stroke-dasharray="4 3" />
<line x1="127.3" y1="28" x2="127.3" y2="192" stroke="#999" stroke-dasharray="4 3" />
<line x1="132.6" y1="28" x2="132.6" y2="192" stroke="#999" stroke-dasharray="4 3" />
<line x1="190.1" y1="28" x2="190.1" y2="192" stroke="#999" stroke-dasharray="4 3" />
<polyline fill="none" stroke="#6666cc" stroke-width="2" points="28.0,111.7 33.2,125.7 38.5,144.8 43.7,114.1 48.9,192.0 54.1,114.1 59.4,111.7 64.6,105.9 69.8,122.4 75.1,148.1 80.3,125.7 85.5,143.1 90.7,125.7 96.0,127.4 101.2,108.3 106.4,147.3 111.7,139.0 116.9,134.0 122.1,119.1 127.3,128.2 132.6,182.1 137.8,131.5 143.0,116.6 148.3,113.3 153.5,129.1 158.7,113.3 163.9,128.2 169.2,128.2 174.4,120.8 179.6,91.8 184.9,81.0 190.1,116.6 195.3,157.2 200.5,116.6 205.8,114.1 211.0,103.4 216.2,106.7 221.4,100.9 226.7,94.3 231.9,116.6 237.1,126.6 242.4,109.2 247.6,110.8 252.8,100.1 258.0,91.8 263.3,86.0 268.5,87.6 273.7,103.4 279.0,66.1 284.2,78.5 289.4,122.4 294.6,83.5 299.9,101.7 305.1,103.4 310.3,76.0 315.6,92.6 320.8,84.3 326.0,78.5 331.2,107.5 336.5,98.4 341.7,94.3 346.9,96.7 352.2,93.4 357.4,104.2 362.6,101.7 367.8,89.3 373.1,81.8 378.3,77.7 383.5,65.3 388.8,80.2 394.0,76.9 399.2,71.9 404.4,80.2 409.7,76.9 414.9,88.5 420.1,101.7 425.4,96.7 430.6,102.5 435.8,84.3 441.0,76.0 446.3,65.3 451.5,90.1 456.7,80.2 462.0,105.0 467.2,117.5 472.4,119.9 477.6,115.8 482.9,105.0 488.1,101.7 493.3,126.6 498.6,108.3 503.8,116.6 509.0,106.7 514.2,126.6 519.5,100.1 524.7,28.0 529.9,151.4 535.1,140.6 540.4,143.1 545.6,119.9 550.8,115.0 556.1,111.7 561.3,89.3 566.5,31.3 571.7,146.4 577.0,110.0 582.2,112.5 587.4,95.9 592.7,111.7 597.9,110.0 603.1,124.1 608.3,136.5 613.6,79.4 618.8,117.5 624.0,115.0 629.3,121.6 634.5,129.9 639.7,148.1 644.9,110.0 650.2,147.3 655.4,110.0 660.6,114.1 665.9,122.4 671.1,115.0 676.3,92.6 681.5,105.0 686.8,78.5 692.0,68.6" />
<polyline fill="none" stroke="#cc6633" stroke-width="2" points="28.0,33.9 33.2,52.7 38.5,100.5 43.7,141.3 48.9,70.8 54.1,87.3 59.4,36.3 64.6,65.0 69.8,67.4 75.1,45.0 80.3,84.5 85.5,119.1 90.7,77.7 96.0,64.9 101.2,28.0 106.4,38.0 111.7,28.0 116.9,138.9 122.1,46.2 127.3,61.1 132.6,50.1 137.8,45.0 143.0,74.0 148.3,76.3 153.5,81.0 158.7,59.9 163.9,71.8 169.2,35.3 174.4,30.9 179.6,34.3 184.9,40.3 190.1,43.4 195.3,47.7 200.5,28.0 205.8,42.7 211.0,32.9 216.2,71.9 221.4,30.3 226.7,55.3 231.9,28.0 237.1,29.7 242.4,49.4 247.6,54.5 252.8,42.3 258.0,32.5 263.3,33.1 268.5,29.3 273.7,28.0 279.0,28.0 284.2,38.9 289.4,28.0 294.6,31.0 299.9,28.4 305.1,89.9 310.3,72.9 315.6,139.1 320.8,69.9 326.0,39.3 331.2,82.3 336.5,68.1 341.7,69.1 346.9,28.1 352.2,33.2 357.4,38.7 362.6,64.5 367.8,39.5 373.1,44.6 378.3,28.5 383.5,74.9 388.8,33.2 394.0,86.1 399.2,60.3 404.4,51.9 409.7,39.9 414.9,28.7 420.1,40.8 425.4,57.0 430.6,57.3 435.8,28.2 441.0,32.1 446.3,61.1 451.5,45.3 456.7,65.4 462.0,37.9 467.2,36.3 472.4,28.5 477.6,39.9 482.9,30.9 488.1,35.7 493.3,38.5 498.6,43.1 503.8,41.8 509.0,29.7 514.2,37.8 519.5,33.4 524.7,29.7 529.9,31.2 535.1,31.2 540.4,65.5 545.6,29.3 550.8,59.0 556.1,55.3 561.3,31.7 566.5,29.3 571.7,29.7 577.0,32.3 582.2,29.1 587.4,28.3 592.7,32.1 597.9,102.1 603.1,36.6 608.3,29.3 613.6,31.8 618.8,192.0 624.0,28.4 629.3,110.6 634.5,53.9 639.7,47.4 644.9,41.3 650.2,105.1 655.4,50.8 660.6,55.4 665.9,45.9 671.1,34.7 676.3,31.3 681.5,43.0 686.8,43.2 692.0,51.0" />
<text x="28" y="212" font-family="Arial" font-size="11" fill="#cc6633">flow imbalance</text>
<text x="158" y="212" font-family="Arial" font-size="11" fill="#6666cc">Robintrack d_holders</text>
</svg>