<svg xmlns="http://www.w3.org/2000/svg" width="720" height="220" viewBox="0 0 720 220">
<rect width="100%" height="100%" fill="white" />
<text x="28" y="18" font-family="Arial" font-size="13">RIOT alias: flow vs Robintrack d_holders</text>
<line x1="153.5" y1="28" x2="153.5" y2="192" stroke="#999" stroke-dasharray="4 3" />
<line x1="28.0" y1="28" x2="28.0" y2="192" stroke="#999" stroke-dasharray="4 3" />
<line x1="33.2" y1="28" x2="33.2" y2="192" stroke="#999" stroke-dasharray="4 3" />
<line x1="38.5" y1="28" x2="38.5" y2="192" stroke="#999" stroke-dasharray="4 3" />
<line x1="75.1" y1="28" x2="75.1" y2="192" stroke="#999" stroke-dasharray="4 3" />
<polyline fill="none" stroke="#6666cc" stroke-width="2" points="28.0,143.5 33.2,116.1 38.5,130.3 43.7,190.4 48.9,106.6 54.1,140.8 59.4,153.5 64.6,145.1 69.8,104.5 75.1,192.0 80.3,187.3 85.5,118.7 90.7,96.6 96.0,146.1 101.2,137.7 106.4,149.3 111.7,139.8 116.9,159.8 122.1,126.6 127.3,172.0 132.6,152.5 137.8,124.5 143.0,180.4 148.3,140.8 153.5,28.0 158.7,177.8 163.9,150.9 169.2,147.7 174.4,183.6 179.6,131.4 184.9,131.9 190.1,150.3 195.3,146.1 200.5,145.6 205.8,121.3 211.0,146.6 216.2,143.5 221.4,118.2 226.7,124.5 231.9,118.7 237.1,155.6 242.4,166.2 247.6,162.5 252.8,138.2 258.0,139.3 263.3,180.9 268.5,176.7 273.7,170.9 279.0,154.6 284.2,146.6 289.4,150.9 294.6,140.3 299.9,170.4 305.1,168.8 310.3,177.2 315.6,130.3 320.8,130.3 326.0,161.4 331.2,141.4 336.5,166.7 341.7,138.2 346.9,155.1 352.2,144.0 357.4,126.6 362.6,149.3 367.8,166.2 373.1,153.0 378.3,141.9 383.5,147.2 388.8,158.3 394.0,146.6 399.2,158.8 404.4,160.4 409.7,145.6 414.9,158.8 420.1,155.1 425.4,160.4 430.6,145.1 435.8,143.0 441.0,133.5 446.3,133.5 451.5,153.5 456.7,124.5 462.0,106.0 467.2,139.3 472.4,148.2 477.6,140.3 482.9,159.3 488.1,137.2 493.3,140.3 498.6,153.5 503.8,156.7 509.0,140.8 514.2,155.1 519.5,164.1 524.7,168.3 529.9,166.7 535.1,141.9 540.4,152.5 545.6,145.6 550.8,157.7 556.1,155.1 561.3,146.1 566.5,118.2 571.7,131.4 577.0,134.5 582.2,145.6 587.4,140.8 592.7,150.3 597.9,136.1 603.1,134.0 608.3,160.4 613.6,148.8 618.8,150.3 624.0,136.1 629.3,139.8 634.5,139.3 639.7,146.6 644.9,145.1 650.2,155.1 655.4,120.3 660.6,146.1 665.9,118.2 671.1,158.3 676.3,127.7 681.5,129.2 686.8,113.4 692.0,163.0" />
<polyline fill="none" stroke="#cc6633" stroke-width="2" points="28.0,30.1 33.2,99.5 38.5,103.1 43.7,81.0 48.9,45.9 54.1,45.3 59.4,28.0 64.6,87.7 69.8,49.4 75.1,48.1 80.3,36.0 85.5,31.3 90.7,29.2 96.0,39.5 101.2,30.7 106.4,28.6 111.7,35.5 116.9,36.6 122.1,34.0 127.3,56.0 132.6,29.4 137.8,30.3 143.0,51.8 148.3,28.5 153.5,31.3 158.7,32.9 163.9,30.9 169.2,29.2 174.4,28.0 179.6,28.8 184.9,32.4 190.1,33.2 195.3,28.4 200.5,50.7 205.8,30.7 211.0,30.7 216.2,39.0 221.4,28.6 226.7,34.4 231.9,40.6 237.1,31.0 242.4,38.1 247.6,62.8 252.8,28.7 258.0,28.9 263.3,32.0 268.5,33.7 273.7,28.0 279.0,29.0 284.2,41.9 289.4,28.0 294.6,31.3 299.9,29.5 305.1,74.3 310.3,120.7 315.6,34.8 320.8,49.6 326.0,32.4 331.2,48.3 336.5,169.0 341.7,37.0 346.9,50.5 352.2,37.1 357.4,38.3 362.6,192.0 367.8,30.5 373.1,68.0 378.3,28.3 383.5,30.1 388.8,32.2 394.0,45.9 399.2,50.5 404.4,120.1 409.7,61.9 414.9,33.7 420.1,50.3 425.4,41.7 430.6,29.3 435.8,30.9 441.0,118.1 446.3,82.6 451.5,53.8 456.7,40.0 462.0,28.0 467.2,70.3 472.4,28.6 477.6,74.3 482.9,28.7 488.1,49.9 493.3,28.2 498.6,29.4 503.8,41.7 509.0,31.6 514.2,31.7 519.5,38.4 524.7,38.3 529.9,48.4 535.1,28.9 540.4,90.8 545.6,31.2 550.8,43.7 556.1,44.3 561.3,57.9 566.5,38.0 571.7,31.3 577.0,40.3 582.2,29.0 587.4,31.6 592.7,30.4 597.9,98.5 603.1,95.1 608.3,43.7 613.6,30.8 618.8,36.5 624.0,48.8 629.3,41.6 634.5,56.8 639.7,61.4 644.9,134.3 650.2,44.2 655.4,106.1 660.6,87.4 665.9,37.4 671.1,37.2 676.3,58.1 681.5,163.7 686.8,30.6 692.0,46.8" />
<text x="28" y="212" font-family="Arial" font-size="11" fill="#cc6633">flow imbalance</text>
<text x="158" y="212" font-family="Arial" font-size="11" fill="#6666cc">Robintrack d_holders</text>
</svg>