<svg xmlns="http://www.w3.org/2000/svg" width="720" height="220" viewBox="0 0 720 220">
<rect width="100%" height="100%" fill="white" />
<text x="28" y="18" font-family="Arial" font-size="13">VKTX named: flow vs Robintrack d_holders</text>
<line x1="493.3" y1="28" x2="493.3" y2="192" stroke="#999" stroke-dasharray="4 3" />
<line x1="556.1" y1="28" x2="556.1" y2="192" stroke="#999" stroke-dasharray="4 3" />
<line x1="80.3" y1="28" x2="80.3" y2="192" stroke="#999" stroke-dasharray="4 3" />
<line x1="399.2" y1="28" x2="399.2" y2="192" stroke="#999" stroke-dasharray="4 3" />
<line x1="132.6" y1="28" x2="132.6" y2="192" stroke="#999" stroke-dasharray="4 3" />
<polyline fill="none" stroke="#6666cc" stroke-width="2" points="28.0,123.9 33.2,84.5 38.5,113.0 43.7,125.1 48.9,116.1 54.1,114.8 59.4,105.7 64.6,122.6 69.8,89.6 75.1,85.0 80.3,133.0 85.5,67.9 90.7,97.4 96.0,106.2 101.2,98.4 106.4,81.7 111.7,90.6 116.9,105.2 122.1,72.7 127.3,110.5 132.6,96.9 137.8,51.5 143.0,28.0 148.3,171.8 153.5,138.3 158.7,112.5 163.9,118.3 169.2,101.4 174.4,120.6 179.6,98.6 184.9,110.0 190.1,123.4 195.3,135.2 200.5,102.2 205.8,80.2 211.0,116.3 216.2,106.7 221.4,114.3 226.7,120.3 231.9,110.0 237.1,126.9 242.4,127.9 247.6,117.6 252.8,122.6 258.0,110.5 263.3,125.6 268.5,152.9 273.7,113.3 279.0,99.2 284.2,103.9 289.4,103.7 294.6,115.3 299.9,78.2 305.1,92.6 310.3,102.2 315.6,105.0 320.8,111.0 326.0,49.7 331.2,78.0 336.5,80.5 341.7,112.8 346.9,96.9 352.2,107.5 357.4,97.1 362.6,122.6 367.8,137.0 373.1,125.4 378.3,114.3 383.5,139.0 388.8,108.5 394.0,109.7 399.2,129.2 404.4,111.8 409.7,95.6 414.9,118.1 420.1,120.1 425.4,120.6 430.6,114.0 435.8,119.6 441.0,120.6 446.3,123.9 451.5,106.7 456.7,120.6 462.0,116.1 467.2,83.0 472.4,89.6 477.6,86.5 482.9,146.6 488.1,30.0 493.3,192.0 498.6,133.5 503.8,102.4 509.0,137.0 514.2,109.7 519.5,157.4 524.7,102.9 529.9,124.4 535.1,98.1 540.4,113.5 545.6,48.9 550.8,93.3 556.1,117.8 561.3,86.0 566.5,97.4 571.7,101.2 577.0,114.3 582.2,94.9 587.4,89.3 592.7,107.0 597.9,100.9 603.1,78.2 608.3,111.5 613.6,82.0 618.8,93.9 624.0,121.9 629.3,136.2 634.5,108.2 639.7,99.9 644.9,100.7 650.2,110.5 655.4,118.3 660.6,99.9 665.9,89.8 671.1,75.9 676.3,96.9 681.5,127.2 686.8,102.9 692.0,95.6" />
<polyline fill="none" stroke="#cc6633" stroke-width="2" points="28.0,42.4 33.2,54.3 38.5,64.2 43.7,60.9 48.9,29.8 54.1,77.2 59.4,41.1 64.6,35.9 69.8,36.5 75.1,39.3 80.3,28.7 85.5,34.9 90.7,28.5 96.0,32.7 101.2,37.5 106.4,28.5 111.7,50.7 116.9,35.1 122.1,37.7 127.3,42.3 132.6,35.3 137.8,72.8 143.0,113.4 148.3,81.5 153.5,68.6 158.7,82.6 163.9,28.1 169.2,30.3 174.4,29.7 179.6,29.5 184.9,34.4 190.1,79.8 195.3,54.4 200.5,60.6 205.8,42.3 211.0,31.5 216.2,67.8 221.4,28.9 226.7,28.9 231.9,30.9 237.1,99.8 242.4,28.1 247.6,50.0 252.8,39.4 258.0,30.6 263.3,31.1 268.5,50.1 273.7,36.1 279.0,28.0 284.2,34.4 289.4,28.0 294.6,46.0 299.9,49.1 305.1,48.5 310.3,81.1 315.6,85.0 320.8,60.8 326.0,31.3 331.2,87.0 336.5,30.1 341.7,56.9 346.9,59.9 352.2,31.7 357.4,32.4 362.6,61.5 367.8,65.0 373.1,76.6 378.3,28.8 383.5,103.9 388.8,43.5 394.0,43.6 399.2,97.4 404.4,80.7 409.7,78.1 414.9,33.0 420.1,72.8 425.4,34.7 430.6,54.3 435.8,28.3 441.0,33.6 446.3,34.9 451.5,69.3 456.7,55.2 462.0,33.1 467.2,33.6 472.4,28.8 477.6,67.3 482.9,50.8 488.1,79.0 493.3,91.2 498.6,138.9 503.8,46.2 509.0,107.9 514.2,38.4 519.5,62.4 524.7,55.2 529.9,38.7 535.1,34.6 540.4,56.5 545.6,31.0 550.8,72.6 556.1,51.8 561.3,34.8 566.5,42.0 571.7,29.1 577.0,41.0 582.2,29.8 587.4,30.6 592.7,29.2 597.9,172.2 603.1,61.5 608.3,67.3 613.6,29.5 618.8,42.7 624.0,96.2 629.3,37.9 634.5,44.0 639.7,75.5 644.9,76.2 650.2,135.9 655.4,44.4 660.6,37.1 665.9,166.1 671.1,44.5 676.3,34.4 681.5,54.2 686.8,192.0 692.0,55.6" />
<text x="28" y="212" font-family="Arial" font-size="11" fill="#cc6633">flow imbalance</text>
<text x="158" y="212" font-family="Arial" font-size="11" fill="#6666cc">Robintrack d_holders</text>
</svg>