<svg xmlns="http://www.w3.org/2000/svg" width="720" height="220" viewBox="0 0 720 220">
<rect width="100%" height="100%" fill="white" />
<text x="28" y="18" font-family="Arial" font-size="13">GOLD named: flow vs Robintrack d_holders</text>
<line x1="38.5" y1="28" x2="38.5" y2="192" stroke="#999" stroke-dasharray="4 3" />
<line x1="179.6" y1="28" x2="179.6" y2="192" stroke="#999" stroke-dasharray="4 3" />
<line x1="498.6" y1="28" x2="498.6" y2="192" stroke="#999" stroke-dasharray="4 3" />
<line x1="655.4" y1="28" x2="655.4" y2="192" stroke="#999" stroke-dasharray="4 3" />
<line x1="96.0" y1="28" x2="96.0" y2="192" stroke="#999" stroke-dasharray="4 3" />
<polyline fill="none" stroke="#6666cc" stroke-width="2" points="28.0,151.7 33.2,150.4 38.5,149.4 43.7,141.7 48.9,150.1 54.1,150.4 59.4,141.5 64.6,143.8 69.8,158.6 75.1,149.1 80.3,157.3 85.5,137.8 90.7,111.2 96.0,137.5 101.2,127.8 106.4,145.4 111.7,139.4 116.9,148.6 122.1,153.0 127.3,143.6 132.6,139.9 137.8,148.0 143.0,131.7 148.3,117.8 153.5,28.0 158.7,135.7 163.9,54.3 169.2,152.5 174.4,95.9 179.6,42.5 184.9,134.3 190.1,76.7 195.3,133.8 200.5,167.8 205.8,176.5 211.0,163.8 216.2,148.3 221.4,138.8 226.7,82.8 231.9,58.0 237.1,72.8 242.4,80.6 247.6,176.5 252.8,141.7 258.0,100.1 263.3,155.4 268.5,124.3 273.7,150.7 279.0,192.0 284.2,158.8 289.4,165.9 294.6,152.0 299.9,154.4 305.1,144.4 310.3,155.9 315.6,151.2 320.8,167.0 326.0,155.7 331.2,144.9 336.5,157.5 341.7,152.5 346.9,160.9 352.2,158.3 357.4,160.9 362.6,149.1 367.8,143.3 373.1,150.7 378.3,158.0 383.5,156.7 388.8,147.5 394.0,161.5 399.2,151.7 404.4,123.0 409.7,150.1 414.9,159.1 420.1,150.9 425.4,167.3 430.6,155.9 435.8,154.1 441.0,151.5 446.3,155.1 451.5,174.4 456.7,162.8 462.0,145.4 467.2,142.8 472.4,153.0 477.6,165.4 482.9,144.6 488.1,136.2 493.3,135.1 498.6,157.3 503.8,144.9 509.0,146.2 514.2,144.9 519.5,151.7 524.7,171.7 529.9,159.4 535.1,156.5 540.4,164.4 545.6,157.8 550.8,157.8 556.1,154.9 561.3,150.4 566.5,148.8 571.7,160.1 577.0,151.7 582.2,155.7 587.4,145.4 592.7,151.5 597.9,157.8 603.1,148.8 608.3,148.3 613.6,149.9 618.8,158.3 624.0,164.4 629.3,158.3 634.5,155.9 639.7,153.0 644.9,156.5 650.2,162.0 655.4,148.6 660.6,153.3 665.9,158.3 671.1,154.4 676.3,149.6 681.5,149.4 686.8,128.8 692.0,154.6" />
<polyline fill="none" stroke="#cc6633" stroke-width="2" points="28.0,56.4 33.2,74.5 38.5,90.5 43.7,71.4 48.9,28.7 54.1,29.6 59.4,28.0 64.6,41.8 69.8,60.5 75.1,37.0 80.3,49.5 85.5,56.9 90.7,45.9 96.0,53.9 101.2,35.9 106.4,29.5 111.7,57.9 116.9,75.7 122.1,52.8 127.3,55.1 132.6,40.3 137.8,38.0 143.0,90.9 148.3,93.4 153.5,66.2 158.7,99.2 163.9,69.5 169.2,28.0 174.4,32.1 179.6,61.8 184.9,30.5 190.1,36.9 195.3,28.9 200.5,28.0 205.8,34.7 211.0,28.5 216.2,40.5 221.4,30.0 226.7,43.8 231.9,28.3 237.1,42.5 242.4,37.9 247.6,42.2 252.8,28.8 258.0,38.7 263.3,32.5 268.5,46.0 273.7,28.0 279.0,29.5 284.2,73.1 289.4,28.0 294.6,56.0 299.9,30.3 305.1,66.9 310.3,72.8 315.6,82.8 320.8,47.6 326.0,32.8 331.2,57.5 336.5,89.8 341.7,56.4 346.9,28.0 352.2,30.9 357.4,30.2 362.6,66.8 367.8,51.9 373.1,102.6 378.3,29.2 383.5,38.4 388.8,35.1 394.0,49.7 399.2,60.3 404.4,91.8 409.7,70.3 414.9,28.8 420.1,52.7 425.4,65.1 430.6,52.1 435.8,33.2 441.0,28.0 446.3,76.5 451.5,37.6 456.7,29.1 462.0,30.3 467.2,33.5 472.4,34.0 477.6,106.0 482.9,29.7 488.1,92.6 493.3,113.1 498.6,47.1 503.8,58.1 509.0,29.2 514.2,30.9 519.5,53.1 524.7,53.3 529.9,53.4 535.1,28.0 540.4,31.8 545.6,29.4 550.8,37.2 556.1,31.4 561.3,51.9 566.5,33.6 571.7,32.7 577.0,36.8 582.2,74.6 587.4,40.6 592.7,32.0 597.9,192.0 603.1,50.9 608.3,45.7 613.6,40.8 618.8,31.2 624.0,40.0 629.3,79.1 634.5,44.0 639.7,32.4 644.9,74.8 650.2,38.3 655.4,29.9 660.6,29.7 665.9,29.3 671.1,41.1 676.3,43.9 681.5,33.6 686.8,30.9 692.0,30.5" />
<text x="28" y="212" font-family="Arial" font-size="11" fill="#cc6633">flow imbalance</text>
<text x="158" y="212" font-family="Arial" font-size="11" fill="#6666cc">Robintrack d_holders</text>
</svg>