<svg xmlns="http://www.w3.org/2000/svg" width="720" height="220" viewBox="0 0 720 220">
<rect width="100%" height="100%" fill="white" />
<text x="28" y="18" font-family="Arial" font-size="13">PLUG named: flow vs Robintrack d_holders</text>
<line x1="315.6" y1="28" x2="315.6" y2="192" stroke="#999" stroke-dasharray="4 3" />
<line x1="435.8" y1="28" x2="435.8" y2="192" stroke="#999" stroke-dasharray="4 3" />
<line x1="524.7" y1="28" x2="524.7" y2="192" stroke="#999" stroke-dasharray="4 3" />
<line x1="529.9" y1="28" x2="529.9" y2="192" stroke="#999" stroke-dasharray="4 3" />
<line x1="592.7" y1="28" x2="592.7" y2="192" stroke="#999" stroke-dasharray="4 3" />
<polyline fill="none" stroke="#6666cc" stroke-width="2" points="28.0,147.1 33.2,140.5 38.5,157.5 43.7,151.6 48.9,130.3 54.1,169.8 59.4,149.8 64.6,147.8 69.8,158.6 75.1,160.4 80.3,162.9 85.5,152.1 90.7,149.4 96.0,155.3 101.2,130.6 106.4,147.2 111.7,141.0 116.9,136.0 122.1,151.9 127.3,137.8 132.6,139.3 137.8,157.8 143.0,144.1 148.3,135.0 153.5,76.0 158.7,90.5 163.9,147.3 169.2,139.6 174.4,125.0 179.6,154.9 184.9,136.8 190.1,133.1 195.3,139.7 200.5,137.4 205.8,122.2 211.0,143.9 216.2,152.9 221.4,152.4 226.7,151.9 231.9,129.2 237.1,156.8 242.4,150.2 247.6,144.8 252.8,132.8 258.0,119.7 263.3,148.9 268.5,145.0 273.7,153.0 279.0,104.9 284.2,152.5 289.4,127.8 294.6,157.0 299.9,145.0 305.1,67.3 310.3,151.6 315.6,86.5 320.8,83.2 326.0,122.4 331.2,151.1 336.5,154.7 341.7,168.3 346.9,162.1 352.2,156.5 357.4,142.9 362.6,143.0 367.8,154.8 373.1,153.4 378.3,128.0 383.5,104.5 388.8,100.8 394.0,107.2 399.2,119.4 404.4,151.2 409.7,144.0 414.9,157.3 420.1,148.9 425.4,171.2 430.6,124.9 435.8,80.5 441.0,148.4 446.3,147.5 451.5,144.9 456.7,142.3 462.0,164.9 467.2,127.3 472.4,148.2 477.6,119.1 482.9,120.2 488.1,79.3 493.3,131.8 498.6,107.6 503.8,121.5 509.0,154.9 514.2,164.9 519.5,192.0 524.7,74.6 529.9,105.1 535.1,123.7 540.4,39.7 545.6,111.5 550.8,145.3 556.1,145.7 561.3,138.4 566.5,90.8 571.7,28.0 577.0,50.5 582.2,95.5 587.4,109.8 592.7,101.7 597.9,122.7 603.1,160.6 608.3,107.7 613.6,34.7 618.8,121.9 624.0,93.0 629.3,102.7 634.5,115.3 639.7,120.2 644.9,123.7 650.2,97.1 655.4,133.3 660.6,122.9 665.9,86.1 671.1,126.9 676.3,107.7 681.5,113.7 686.8,125.6 692.0,151.5" />
<polyline fill="none" stroke="#cc6633" stroke-width="2" points="28.0,31.3 33.2,34.4 38.5,40.5 43.7,79.9 48.9,36.8 54.1,55.9 59.4,28.1 64.6,31.6 69.8,32.8 75.1,34.8 80.3,51.7 85.5,57.3 90.7,29.7 96.0,34.6 101.2,40.5 106.4,32.5 111.7,33.3 116.9,94.1 122.1,39.6 127.3,33.9 132.6,31.2 137.8,33.8 143.0,47.1 148.3,29.2 153.5,36.3 158.7,80.5 163.9,31.6 169.2,31.4 174.4,29.0 179.6,28.7 184.9,29.7 190.1,28.2 195.3,32.2 200.5,30.6 205.8,34.1 211.0,29.0 216.2,30.3 221.4,29.2 226.7,37.8 231.9,29.0 237.1,32.0 242.4,33.0 247.6,109.4 252.8,28.7 258.0,28.3 263.3,29.1 268.5,32.4 273.7,28.1 279.0,90.4 284.2,42.9 289.4,28.5 294.6,33.9 299.9,30.9 305.1,46.9 310.3,53.2 315.6,39.2 320.8,58.8 326.0,34.1 331.2,29.9 336.5,168.1 341.7,37.1 346.9,52.6 352.2,28.2 357.4,28.7 362.6,37.5 367.8,31.4 373.1,51.6 378.3,28.6 383.5,36.0 388.8,31.4 394.0,54.4 399.2,82.8 404.4,63.1 409.7,31.6 414.9,33.6 420.1,58.8 425.4,36.5 430.6,33.8 435.8,28.3 441.0,98.3 446.3,36.7 451.5,150.0 456.7,102.2 462.0,44.3 467.2,40.6 472.4,38.4 477.6,148.5 482.9,44.1 488.1,135.5 493.3,82.5 498.6,52.0 503.8,39.0 509.0,28.0 514.2,36.1 519.5,46.5 524.7,72.2 529.9,45.6 535.1,31.9 540.4,28.5 545.6,28.9 550.8,96.4 556.1,71.9 561.3,34.4 566.5,59.8 571.7,31.7 577.0,64.9 582.2,49.0 587.4,28.4 592.7,28.3 597.9,192.0 603.1,31.6 608.3,29.1 613.6,28.0 618.8,28.3 624.0,28.9 629.3,33.1 634.5,35.6 639.7,39.3 644.9,39.0 650.2,36.6 655.4,33.8 660.6,39.2 665.9,37.3 671.1,36.1 676.3,40.4 681.5,62.6 686.8,41.3 692.0,75.2" />
<text x="28" y="212" font-family="Arial" font-size="11" fill="#cc6633">flow imbalance</text>
<text x="158" y="212" font-family="Arial" font-size="11" fill="#6666cc">Robintrack d_holders</text>
</svg>