<svg xmlns="http://www.w3.org/2000/svg" width="720" height="220" viewBox="0 0 720 220">
<rect width="100%" height="100%" fill="white" />
<text x="28" y="18" font-family="Arial" font-size="13">IIPR alias: flow vs Robintrack d_holders</text>
<line x1="69.8" y1="28" x2="69.8" y2="192" stroke="#999" stroke-dasharray="4 3" />
<line x1="127.3" y1="28" x2="127.3" y2="192" stroke="#999" stroke-dasharray="4 3" />
<line x1="64.6" y1="28" x2="64.6" y2="192" stroke="#999" stroke-dasharray="4 3" />
<line x1="299.9" y1="28" x2="299.9" y2="192" stroke="#999" stroke-dasharray="4 3" />
<line x1="498.6" y1="28" x2="498.6" y2="192" stroke="#999" stroke-dasharray="4 3" />
<polyline fill="none" stroke="#6666cc" stroke-width="2" points="28.0,119.7 33.2,130.3 38.5,132.7 43.7,117.4 48.9,108.1 54.1,120.4 59.4,117.9 64.6,85.8 69.8,28.0 75.1,104.2 80.3,121.8 85.5,128.5 90.7,136.4 96.0,121.3 101.2,134.1 106.4,192.0 111.7,121.4 116.9,88.1 122.1,105.4 127.3,117.1 132.6,112.1 137.8,126.1 143.0,149.2 148.3,122.5 153.5,136.6 158.7,93.9 163.9,88.1 169.2,132.3 174.4,125.5 179.6,132.8 184.9,120.0 190.1,148.2 195.3,133.1 200.5,121.3 205.8,118.6 211.0,112.6 216.2,127.1 221.4,125.7 226.7,126.6 231.9,116.9 237.1,130.3 242.4,124.3 247.6,128.0 252.8,99.8 258.0,113.8 263.3,149.9 268.5,123.0 273.7,126.7 279.0,123.5 284.2,133.8 289.4,119.0 294.6,123.9 299.9,120.5 305.1,111.0 310.3,115.2 315.6,126.4 320.8,119.1 326.0,122.5 331.2,124.6 336.5,126.7 341.7,123.0 346.9,122.4 352.2,123.0 357.4,128.5 362.6,122.1 367.8,122.7 373.1,126.0 378.3,121.6 383.5,124.6 388.8,116.9 394.0,124.7 399.2,129.5 404.4,119.9 409.7,132.2 414.9,119.1 420.1,123.9 425.4,122.5 430.6,129.5 435.8,128.8 441.0,126.4 446.3,124.9 451.5,128.6 456.7,124.3 462.0,128.6 467.2,118.6 472.4,105.7 477.6,97.9 482.9,113.7 488.1,119.6 493.3,114.9 498.6,108.1 503.8,111.3 509.0,105.9 514.2,117.6 519.5,118.2 524.7,118.2 529.9,119.9 535.1,123.0 540.4,122.7 545.6,116.9 550.8,125.3 556.1,121.6 561.3,120.5 566.5,126.3 571.7,123.2 577.0,123.0 582.2,123.5 587.4,122.4 592.7,121.6 597.9,121.6 603.1,119.7 608.3,123.9 613.6,123.2 618.8,117.6 624.0,119.7 629.3,120.7 634.5,118.8 639.7,119.3 644.9,121.6 650.2,121.8 655.4,117.1 660.6,113.3 665.9,126.1 671.1,116.6 676.3,112.4 681.5,115.5 686.8,121.1 692.0,119.6" />
<polyline fill="none" stroke="#cc6633" stroke-width="2" points="28.0,37.1 33.2,152.5 38.5,160.9 43.7,100.7 48.9,30.5 54.1,92.2 59.4,76.0 64.6,71.4 69.8,73.0 75.1,53.0 80.3,123.0 85.5,91.3 90.7,113.1 96.0,28.1 101.2,89.4 106.4,73.5 111.7,106.3 116.9,82.7 122.1,102.2 127.3,56.4 132.6,37.5 137.8,192.0 143.0,94.2 148.3,84.8 153.5,81.7 158.7,97.0 163.9,84.9 169.2,32.6 174.4,71.2 179.6,44.6 184.9,120.6 190.1,31.3 195.3,62.7 200.5,74.5 205.8,171.6 211.0,40.0 216.2,84.3 221.4,81.8 226.7,28.8 231.9,50.0 237.1,79.1 242.4,63.2 247.6,80.5 252.8,171.3 258.0,66.1 263.3,50.5 268.5,33.8 273.7,63.5 279.0,28.0 284.2,88.2 289.4,28.0 294.6,37.7 299.9,31.8 305.1,72.5 310.3,88.7 315.6,133.7 320.8,53.2 326.0,77.4 331.2,49.6 336.5,83.6 341.7,65.5 346.9,37.4 352.2,93.5 357.4,65.5 362.6,62.2 367.8,123.5 373.1,121.9 378.3,44.0 383.5,77.2 388.8,47.5 394.0,32.3 399.2,70.2 404.4,177.0 409.7,46.8 414.9,64.6 420.1,41.8 425.4,31.8 430.6,78.0 435.8,32.0 441.0,79.8 446.3,93.2 451.5,42.7 456.7,53.9 462.0,72.0 467.2,47.5 472.4,57.9 477.6,96.4 482.9,44.0 488.1,81.9 493.3,28.2 498.6,81.7 503.8,115.0 509.0,73.0 514.2,86.8 519.5,125.2 524.7,80.8 529.9,63.5 535.1,62.8 540.4,75.8 545.6,33.7 550.8,158.1 556.1,95.5 561.3,61.2 566.5,142.5 571.7,164.7 577.0,142.9 582.2,77.8 587.4,31.2 592.7,41.3 597.9,84.1 603.1,28.8 608.3,94.9 613.6,36.4 618.8,94.3 624.0,52.5 629.3,109.5 634.5,79.8 639.7,85.3 644.9,97.2 650.2,50.9 655.4,76.8 660.6,41.3 665.9,173.6 671.1,74.2 676.3,48.9 681.5,101.7 686.8,56.3 692.0,84.1" />
<text x="28" y="212" font-family="Arial" font-size="11" fill="#cc6633">flow imbalance</text>
<text x="158" y="212" font-family="Arial" font-size="11" fill="#6666cc">Robintrack d_holders</text>
</svg>