<svg xmlns="http://www.w3.org/2000/svg" width="720" height="220" viewBox="0 0 720 220">
<rect width="100%" height="100%" fill="white" />
<text x="28" y="18" font-family="Arial" font-size="13">LEVI alias: flow vs Robintrack d_holders</text>
<line x1="59.4" y1="28" x2="59.4" y2="192" stroke="#999" stroke-dasharray="4 3" />
<line x1="394.0" y1="28" x2="394.0" y2="192" stroke="#999" stroke-dasharray="4 3" />
<line x1="54.1" y1="28" x2="54.1" y2="192" stroke="#999" stroke-dasharray="4 3" />
<line x1="195.3" y1="28" x2="195.3" y2="192" stroke="#999" stroke-dasharray="4 3" />
<line x1="388.8" y1="28" x2="388.8" y2="192" stroke="#999" stroke-dasharray="4 3" />
<polyline fill="none" stroke="#6666cc" stroke-width="2" points="28.0,168.1 33.2,165.0 38.5,169.1 43.7,170.7 48.9,72.2 54.1,38.7 59.4,28.0 64.6,192.0 69.8,189.2 75.1,179.8 80.3,181.5 85.5,167.8 90.7,191.5 96.0,170.1 101.2,175.0 106.4,177.2 111.7,175.5 116.9,169.3 122.1,172.4 127.3,174.4 132.6,172.4 137.8,136.8 143.0,164.3 148.3,166.3 153.5,167.6 158.7,171.1 163.9,165.6 169.2,164.8 174.4,165.1 179.6,173.5 184.9,174.0 190.1,165.1 195.3,166.1 200.5,165.5 205.8,158.4 211.0,170.2 216.2,172.2 221.4,164.6 226.7,172.1 231.9,171.4 237.1,172.2 242.4,172.6 247.6,169.6 252.8,166.8 258.0,166.9 263.3,168.6 268.5,170.7 273.7,157.1 279.0,176.8 284.2,170.7 289.4,169.7 294.6,172.2 299.9,166.5 305.1,164.8 310.3,168.1 315.6,168.4 320.8,166.3 326.0,170.1 331.2,172.2 336.5,174.0 341.7,165.3 346.9,170.2 352.2,173.4 357.4,175.2 362.6,171.2 367.8,177.2 373.1,168.6 378.3,170.2 383.5,136.6 388.8,114.0 394.0,162.7 399.2,174.9 404.4,172.9 409.7,169.1 414.9,175.5 420.1,172.6 425.4,155.2 430.6,166.5 435.8,168.4 441.0,176.2 446.3,171.6 451.5,161.0 456.7,172.7 462.0,167.6 467.2,173.0 472.4,177.5 477.6,175.0 482.9,168.1 488.1,166.0 493.3,174.0 498.6,163.3 503.8,173.9 509.0,159.4 514.2,166.5 519.5,163.2 524.7,169.9 529.9,171.1 535.1,175.8 540.4,166.9 545.6,169.4 550.8,159.9 556.1,169.9 561.3,170.1 566.5,165.1 571.7,167.4 577.0,169.4 582.2,165.6 587.4,166.5 592.7,170.4 597.9,177.3 603.1,175.4 608.3,182.3 613.6,169.3 618.8,177.0 624.0,174.9 629.3,176.5 634.5,184.4 639.7,169.3 644.9,172.1 650.2,170.4 655.4,172.2 660.6,147.2 665.9,157.6 671.1,169.1 676.3,167.8 681.5,168.4 686.8,168.9 692.0,169.9" />
<polyline fill="none" stroke="#cc6633" stroke-width="2" points="28.0,29.8 33.2,60.1 38.5,31.2 43.7,57.5 48.9,36.5 54.1,120.0 59.4,37.2 64.6,57.1 69.8,32.3 75.1,33.5 80.3,52.7 85.5,51.6 90.7,58.6 96.0,67.3 101.2,81.0 106.4,60.7 111.7,133.0 116.9,90.4 122.1,87.4 127.3,77.1 132.6,73.1 137.8,45.1 143.0,73.1 148.3,98.4 153.5,59.4 158.7,111.9 163.9,67.8 169.2,49.0 174.4,33.2 179.6,29.3 184.9,32.4 190.1,30.1 195.3,54.8 200.5,31.0 205.8,39.6 211.0,34.4 216.2,36.3 221.4,28.0 226.7,109.8 231.9,28.0 237.1,33.2 242.4,51.8 247.6,100.6 252.8,62.9 258.0,29.3 263.3,38.5 268.5,28.1 273.7,29.5 279.0,31.0 284.2,46.2 289.4,28.2 294.6,40.2 299.9,37.1 305.1,69.1 310.3,59.8 315.6,46.1 320.8,28.0 326.0,66.7 331.2,49.2 336.5,192.0 341.7,60.4 346.9,35.8 352.2,76.2 357.4,75.4 362.6,72.6 367.8,79.4 373.1,34.5 378.3,28.0 383.5,112.2 388.8,28.3 394.0,28.2 399.2,28.1 404.4,63.4 409.7,43.6 414.9,29.5 420.1,62.7 425.4,45.9 430.6,50.4 435.8,28.0 441.0,30.8 446.3,96.0 451.5,53.0 456.7,70.2 462.0,28.7 467.2,47.4 472.4,29.8 477.6,72.2 482.9,28.9 488.1,45.4 493.3,73.6 498.6,39.4 503.8,37.5 509.0,29.3 514.2,31.7 519.5,48.3 524.7,63.3 529.9,48.8 535.1,28.1 540.4,43.1 545.6,30.7 550.8,51.2 556.1,34.4 561.3,53.8 566.5,91.1 571.7,75.4 577.0,70.0 582.2,53.4 587.4,30.6 592.7,31.2 597.9,32.8 603.1,28.1 608.3,53.7 613.6,29.5 618.8,60.7 624.0,49.9 629.3,66.5 634.5,40.5 639.7,73.3 644.9,75.7 650.2,94.1 655.4,53.3 660.6,42.5 665.9,36.1 671.1,65.5 676.3,40.3 681.5,60.2 686.8,33.3 692.0,34.3" />
<text x="28" y="212" font-family="Arial" font-size="11" fill="#cc6633">flow imbalance</text>
<text x="158" y="212" font-family="Arial" font-size="11" fill="#6666cc">Robintrack d_holders</text>
</svg>