<svg xmlns="http://www.w3.org/2000/svg" width="720" height="220" viewBox="0 0 720 220">
<rect width="100%" height="100%" fill="white" />
<text x="28" y="18" font-family="Arial" font-size="13">PLUG alias: flow vs Robintrack d_holders</text>
<line x1="315.6" y1="28" x2="315.6" y2="192" stroke="#999" stroke-dasharray="4 3" />
<line x1="435.8" y1="28" x2="435.8" y2="192" stroke="#999" stroke-dasharray="4 3" />
<line x1="524.7" y1="28" x2="524.7" y2="192" stroke="#999" stroke-dasharray="4 3" />
<line x1="529.9" y1="28" x2="529.9" y2="192" stroke="#999" stroke-dasharray="4 3" />
<line x1="592.7" y1="28" x2="592.7" y2="192" stroke="#999" stroke-dasharray="4 3" />
<polyline fill="none" stroke="#6666cc" stroke-width="2" points="28.0,147.1 33.2,140.5 38.5,157.5 43.7,151.6 48.9,130.3 54.1,169.8 59.4,149.8 64.6,147.8 69.8,158.6 75.1,160.4 80.3,162.9 85.5,152.1 90.7,149.4 96.0,155.3 101.2,130.6 106.4,147.2 111.7,141.0 116.9,136.0 122.1,151.9 127.3,137.8 132.6,139.3 137.8,157.8 143.0,144.1 148.3,135.0 153.5,76.0 158.7,90.5 163.9,147.3 169.2,139.6 174.4,125.0 179.6,154.9 184.9,136.8 190.1,133.1 195.3,139.7 200.5,137.4 205.8,122.2 211.0,143.9 216.2,152.9 221.4,152.4 226.7,151.9 231.9,129.2 237.1,156.8 242.4,150.2 247.6,144.8 252.8,132.8 258.0,119.7 263.3,148.9 268.5,145.0 273.7,153.0 279.0,104.9 284.2,152.5 289.4,127.8 294.6,157.0 299.9,145.0 305.1,67.3 310.3,151.6 315.6,86.5 320.8,83.2 326.0,122.4 331.2,151.1 336.5,154.7 341.7,168.3 346.9,162.1 352.2,156.5 357.4,142.9 362.6,143.0 367.8,154.8 373.1,153.4 378.3,128.0 383.5,104.5 388.8,100.8 394.0,107.2 399.2,119.4 404.4,151.2 409.7,144.0 414.9,157.3 420.1,148.9 425.4,171.2 430.6,124.9 435.8,80.5 441.0,148.4 446.3,147.5 451.5,144.9 456.7,142.3 462.0,164.9 467.2,127.3 472.4,148.2 477.6,119.1 482.9,120.2 488.1,79.3 493.3,131.8 498.6,107.6 503.8,121.5 509.0,154.9 514.2,164.9 519.5,192.0 524.7,74.6 529.9,105.1 535.1,123.7 540.4,39.7 545.6,111.5 550.8,145.3 556.1,145.7 561.3,138.4 566.5,90.8 571.7,28.0 577.0,50.5 582.2,95.5 587.4,109.8 592.7,101.7 597.9,122.7 603.1,160.6 608.3,107.7 613.6,34.7 618.8,121.9 624.0,93.0 629.3,102.7 634.5,115.3 639.7,120.2 644.9,123.7 650.2,97.1 655.4,133.3 660.6,122.9 665.9,86.1 671.1,126.9 676.3,107.7 681.5,113.7 686.8,125.6 692.0,151.5" />
<polyline fill="none" stroke="#cc6633" stroke-width="2" points="28.0,30.8 33.2,33.6 38.5,30.6 43.7,74.1 48.9,30.7 54.1,50.1 59.4,28.2 64.6,35.4 69.8,31.8 75.1,34.1 80.3,54.2 85.5,51.8 90.7,29.2 96.0,34.7 101.2,35.9 106.4,32.4 111.7,53.8 116.9,63.5 122.1,34.0 127.3,28.5 132.6,30.8 137.8,34.9 143.0,46.5 148.3,29.2 153.5,34.0 158.7,35.8 163.9,33.2 169.2,33.4 174.4,29.3 179.6,31.7 184.9,31.4 190.1,28.6 195.3,32.6 200.5,29.6 205.8,34.6 211.0,28.8 216.2,29.9 221.4,29.1 226.7,37.6 231.9,28.5 237.1,33.1 242.4,33.0 247.6,68.5 252.8,28.7 258.0,28.2 263.3,28.3 268.5,29.3 273.7,28.2 279.0,40.9 284.2,43.7 289.4,28.3 294.6,35.2 299.9,32.2 305.1,45.5 310.3,70.6 315.6,34.4 320.8,28.3 326.0,31.5 331.2,30.6 336.5,76.3 341.7,34.7 346.9,33.9 352.2,28.0 357.4,32.4 362.6,28.7 367.8,31.5 373.1,42.2 378.3,28.4 383.5,35.7 388.8,31.3 394.0,54.6 399.2,73.5 404.4,88.3 409.7,31.7 414.9,34.0 420.1,55.9 425.4,33.9 430.6,32.4 435.8,29.4 441.0,51.8 446.3,38.8 451.5,148.7 456.7,115.4 462.0,51.0 467.2,106.4 472.4,40.9 477.6,110.4 482.9,51.0 488.1,169.1 493.3,79.6 498.6,50.2 503.8,50.0 509.0,31.0 514.2,28.0 519.5,43.4 524.7,61.0 529.9,43.8 535.1,34.0 540.4,28.0 545.6,30.6 550.8,90.2 556.1,42.7 561.3,34.0 566.5,41.6 571.7,31.6 577.0,41.1 582.2,31.2 587.4,28.7 592.7,28.3 597.9,192.0 603.1,32.9 608.3,29.1 613.6,28.1 618.8,28.0 624.0,29.0 629.3,32.6 634.5,35.4 639.7,39.8 644.9,36.7 650.2,31.3 655.4,32.2 660.6,37.5 665.9,37.0 671.1,35.4 676.3,35.0 681.5,34.8 686.8,40.8 692.0,51.0" />
<text x="28" y="212" font-family="Arial" font-size="11" fill="#cc6633">flow imbalance</text>
<text x="158" y="212" font-family="Arial" font-size="11" fill="#6666cc">Robintrack d_holders</text>
</svg>