<svg xmlns="http://www.w3.org/2000/svg" width="720" height="220" viewBox="0 0 720 220">
<rect width="100%" height="100%" fill="white" />
<text x="28" y="18" font-family="Arial" font-size="13">CRBP alias: flow vs Robintrack d_holders</text>
<line x1="503.8" y1="28" x2="503.8" y2="192" stroke="#999" stroke-dasharray="4 3" />
<line x1="169.2" y1="28" x2="169.2" y2="192" stroke="#999" stroke-dasharray="4 3" />
<line x1="362.6" y1="28" x2="362.6" y2="192" stroke="#999" stroke-dasharray="4 3" />
<line x1="367.8" y1="28" x2="367.8" y2="192" stroke="#999" stroke-dasharray="4 3" />
<line x1="388.8" y1="28" x2="388.8" y2="192" stroke="#999" stroke-dasharray="4 3" />
<polyline fill="none" stroke="#6666cc" stroke-width="2" points="28.0,155.1 33.2,136.0 38.5,140.8 43.7,129.1 48.9,139.0 54.1,145.7 59.4,131.2 64.6,153.8 69.8,150.5 75.1,144.0 80.3,152.1 85.5,143.1 90.7,143.0 96.0,152.8 101.2,119.8 106.4,135.8 111.7,128.0 116.9,129.9 122.1,139.5 127.3,114.5 132.6,146.6 137.8,126.6 143.0,128.3 148.3,134.7 153.5,132.5 158.7,93.8 163.9,81.8 169.2,48.3 174.4,70.2 179.6,28.0 184.9,103.4 190.1,156.2 195.3,159.7 200.5,125.1 205.8,103.9 211.0,137.5 216.2,149.5 221.4,121.2 226.7,150.2 231.9,140.8 237.1,145.4 242.4,142.8 247.6,128.4 252.8,146.4 258.0,150.5 263.3,139.7 268.5,130.8 273.7,146.8 279.0,99.2 284.2,131.3 289.4,128.8 294.6,119.1 299.9,134.3 305.1,69.9 310.3,131.9 315.6,148.2 320.8,141.3 326.0,133.5 331.2,125.0 336.5,139.8 341.7,154.9 346.9,142.1 352.2,131.7 357.4,137.5 362.6,129.4 367.8,128.0 373.1,132.8 378.3,133.5 383.5,130.2 388.8,157.6 394.0,151.0 399.2,150.1 404.4,164.7 409.7,136.8 414.9,144.3 420.1,131.6 425.4,143.4 430.6,140.1 435.8,108.3 441.0,145.6 446.3,156.9 451.5,151.4 456.7,156.5 462.0,135.1 467.2,153.9 472.4,129.9 477.6,135.6 482.9,163.8 488.1,168.3 493.3,169.7 498.6,125.1 503.8,155.7 509.0,181.9 514.2,176.2 519.5,184.6 524.7,183.0 529.9,172.5 535.1,170.2 540.4,187.2 545.6,168.0 550.8,167.5 556.1,176.7 561.3,169.7 566.5,182.4 571.7,167.5 577.0,167.5 582.2,161.7 587.4,169.1 592.7,168.8 597.9,192.0 603.1,166.0 608.3,155.6 613.6,133.9 618.8,154.7 624.0,159.9 629.3,163.2 634.5,155.6 639.7,173.8 644.9,160.4 650.2,178.3 655.4,150.9 660.6,176.1 665.9,154.9 671.1,141.7 676.3,131.0 681.5,138.8 686.8,182.8 692.0,162.8" />
<polyline fill="none" stroke="#cc6633" stroke-width="2" points="28.0,36.7 33.2,86.1 38.5,93.9 43.7,108.8 48.9,53.1 54.1,71.4 59.4,39.3 64.6,54.0 69.8,43.4 75.1,56.3 80.3,79.3 85.5,77.1 90.7,51.5 96.0,51.7 101.2,40.1 106.4,33.2 111.7,92.6 116.9,40.9 122.1,48.1 127.3,61.3 132.6,92.3 137.8,64.5 143.0,70.7 148.3,109.1 153.5,121.9 158.7,28.4 163.9,72.1 169.2,28.1 174.4,28.2 179.6,29.3 184.9,30.8 190.1,43.6 195.3,45.7 200.5,63.8 205.8,46.5 211.0,35.4 216.2,80.1 221.4,28.0 226.7,168.4 231.9,31.6 237.1,50.2 242.4,74.2 247.6,71.8 252.8,73.4 258.0,30.3 263.3,46.1 268.5,50.4 273.7,32.3 279.0,28.0 284.2,39.3 289.4,28.1 294.6,75.0 299.9,32.6 305.1,153.5 310.3,102.5 315.6,119.2 320.8,28.6 326.0,59.0 331.2,30.0 336.5,63.7 341.7,59.7 346.9,37.5 352.2,37.2 357.4,47.5 362.6,48.5 367.8,41.9 373.1,47.5 378.3,29.1 383.5,102.7 388.8,55.9 394.0,160.7 399.2,44.4 404.4,86.3 409.7,56.4 414.9,28.3 420.1,63.4 425.4,77.9 430.6,54.1 435.8,31.3 441.0,37.1 446.3,107.3 451.5,111.1 456.7,96.1 462.0,97.3 467.2,91.8 472.4,36.2 477.6,192.0 482.9,139.8 488.1,74.6 493.3,116.4 498.6,47.9 503.8,29.3 509.0,46.3 514.2,29.2 519.5,47.1 524.7,41.2 529.9,79.7 535.1,36.1 540.4,29.0 545.6,29.4 550.8,93.9 556.1,77.4 561.3,28.9 566.5,29.3 571.7,92.0 577.0,85.8 582.2,35.6 587.4,28.0 592.7,99.3 597.9,64.4 603.1,40.0 608.3,136.9 613.6,33.9 618.8,50.0 624.0,39.9 629.3,52.3 634.5,101.2 639.7,94.8 644.9,78.7 650.2,81.1 655.4,40.8 660.6,28.3 665.9,41.0 671.1,123.7 676.3,45.1 681.5,84.8 686.8,98.0 692.0,96.9" />
<text x="28" y="212" font-family="Arial" font-size="11" fill="#cc6633">flow imbalance</text>
<text x="158" y="212" font-family="Arial" font-size="11" fill="#6666cc">Robintrack d_holders</text>
</svg>