<svg xmlns="http://www.w3.org/2000/svg" width="720" height="220" viewBox="0 0 720 220">
<rect width="100%" height="100%" fill="white" />
<text x="28" y="18" font-family="Arial" font-size="13">BLNK named: flow vs Robintrack d_holders</text>
<line x1="524.7" y1="28" x2="524.7" y2="192" stroke="#999" stroke-dasharray="4 3" />
<line x1="326.0" y1="28" x2="326.0" y2="192" stroke="#999" stroke-dasharray="4 3" />
<line x1="127.3" y1="28" x2="127.3" y2="192" stroke="#999" stroke-dasharray="4 3" />
<line x1="132.6" y1="28" x2="132.6" y2="192" stroke="#999" stroke-dasharray="4 3" />
<line x1="190.1" y1="28" x2="190.1" y2="192" stroke="#999" stroke-dasharray="4 3" />
<polyline fill="none" stroke="#6666cc" stroke-width="2" points="28.0,111.7 33.2,125.7 38.5,144.8 43.7,114.1 48.9,192.0 54.1,114.1 59.4,111.7 64.6,105.9 69.8,122.4 75.1,148.1 80.3,125.7 85.5,143.1 90.7,125.7 96.0,127.4 101.2,108.3 106.4,147.3 111.7,139.0 116.9,134.0 122.1,119.1 127.3,128.2 132.6,182.1 137.8,131.5 143.0,116.6 148.3,113.3 153.5,129.1 158.7,113.3 163.9,128.2 169.2,128.2 174.4,120.8 179.6,91.8 184.9,81.0 190.1,116.6 195.3,157.2 200.5,116.6 205.8,114.1 211.0,103.4 216.2,106.7 221.4,100.9 226.7,94.3 231.9,116.6 237.1,126.6 242.4,109.2 247.6,110.8 252.8,100.1 258.0,91.8 263.3,86.0 268.5,87.6 273.7,103.4 279.0,66.1 284.2,78.5 289.4,122.4 294.6,83.5 299.9,101.7 305.1,103.4 310.3,76.0 315.6,92.6 320.8,84.3 326.0,78.5 331.2,107.5 336.5,98.4 341.7,94.3 346.9,96.7 352.2,93.4 357.4,104.2 362.6,101.7 367.8,89.3 373.1,81.8 378.3,77.7 383.5,65.3 388.8,80.2 394.0,76.9 399.2,71.9 404.4,80.2 409.7,76.9 414.9,88.5 420.1,101.7 425.4,96.7 430.6,102.5 435.8,84.3 441.0,76.0 446.3,65.3 451.5,90.1 456.7,80.2 462.0,105.0 467.2,117.5 472.4,119.9 477.6,115.8 482.9,105.0 488.1,101.7 493.3,126.6 498.6,108.3 503.8,116.6 509.0,106.7 514.2,126.6 519.5,100.1 524.7,28.0 529.9,151.4 535.1,140.6 540.4,143.1 545.6,119.9 550.8,115.0 556.1,111.7 561.3,89.3 566.5,31.3 571.7,146.4 577.0,110.0 582.2,112.5 587.4,95.9 592.7,111.7 597.9,110.0 603.1,124.1 608.3,136.5 613.6,79.4 618.8,117.5 624.0,115.0 629.3,121.6 634.5,129.9 639.7,148.1 644.9,110.0 650.2,147.3 655.4,110.0 660.6,114.1 665.9,122.4 671.1,115.0 676.3,92.6 681.5,105.0 686.8,78.5 692.0,68.6" />
<polyline fill="none" stroke="#cc6633" stroke-width="2" points="28.0,41.2 33.2,58.6 38.5,146.5 43.7,181.1 48.9,88.6 54.1,120.8 59.4,29.2 64.6,79.9 69.8,85.4 75.1,52.9 80.3,106.3 85.5,152.8 90.7,92.5 96.0,82.1 101.2,28.0 106.4,43.9 111.7,28.0 116.9,186.9 122.1,53.8 127.3,37.3 132.6,63.3 137.8,55.6 143.0,76.2 148.3,101.0 153.5,97.0 158.7,78.2 163.9,52.0 169.2,36.4 174.4,28.0 179.6,34.6 184.9,57.5 190.1,37.6 195.3,55.7 200.5,28.1 205.8,38.6 211.0,34.9 216.2,80.1 221.4,31.3 226.7,66.0 231.9,28.0 237.1,29.3 242.4,53.7 247.6,64.8 252.8,28.9 258.0,34.5 263.3,32.2 268.5,30.4 273.7,28.0 279.0,28.0 284.2,43.1 289.4,28.0 294.6,30.6 299.9,29.3 305.1,125.8 310.3,87.3 315.6,187.8 320.8,88.8 326.0,45.0 331.2,109.0 336.5,84.1 341.7,81.8 346.9,28.0 352.2,37.0 357.4,44.1 362.6,74.3 367.8,38.5 373.1,44.5 378.3,29.1 383.5,82.6 388.8,35.2 394.0,122.6 399.2,83.6 404.4,61.1 409.7,44.7 414.9,33.5 420.1,46.2 425.4,53.3 430.6,96.4 435.8,28.6 441.0,33.6 446.3,72.1 451.5,50.9 456.7,80.2 462.0,38.3 467.2,51.9 472.4,28.8 477.6,39.7 482.9,32.0 488.1,37.7 493.3,43.2 498.6,49.5 503.8,53.7 509.0,32.4 514.2,36.6 519.5,35.5 524.7,31.1 529.9,34.1 535.1,29.5 540.4,128.4 545.6,29.5 550.8,104.0 556.1,66.4 561.3,31.7 566.5,29.8 571.7,31.4 577.0,36.3 582.2,29.1 587.4,28.6 592.7,36.2 597.9,131.6 603.1,39.7 608.3,29.8 613.6,33.3 618.8,192.0 624.0,28.7 629.3,129.5 634.5,65.4 639.7,67.1 644.9,46.5 650.2,147.0 655.4,48.4 660.6,63.0 665.9,42.8 671.1,36.9 676.3,29.4 681.5,50.2 686.8,49.9 692.0,62.6" />
<text x="28" y="212" font-family="Arial" font-size="11" fill="#cc6633">flow imbalance</text>
<text x="158" y="212" font-family="Arial" font-size="11" fill="#6666cc">Robintrack d_holders</text>
</svg>