<svg xmlns="http://www.w3.org/2000/svg" width="720" height="220" viewBox="0 0 720 220">
<rect width="100%" height="100%" fill="white" />
<text x="28" y="18" font-family="Arial" font-size="13">VKTX alias: flow vs Robintrack d_holders</text>
<line x1="493.3" y1="28" x2="493.3" y2="192" stroke="#999" stroke-dasharray="4 3" />
<line x1="556.1" y1="28" x2="556.1" y2="192" stroke="#999" stroke-dasharray="4 3" />
<line x1="80.3" y1="28" x2="80.3" y2="192" stroke="#999" stroke-dasharray="4 3" />
<line x1="399.2" y1="28" x2="399.2" y2="192" stroke="#999" stroke-dasharray="4 3" />
<line x1="132.6" y1="28" x2="132.6" y2="192" stroke="#999" stroke-dasharray="4 3" />
<polyline fill="none" stroke="#6666cc" stroke-width="2" points="28.0,123.9 33.2,84.5 38.5,113.0 43.7,125.1 48.9,116.1 54.1,114.8 59.4,105.7 64.6,122.6 69.8,89.6 75.1,85.0 80.3,133.0 85.5,67.9 90.7,97.4 96.0,106.2 101.2,98.4 106.4,81.7 111.7,90.6 116.9,105.2 122.1,72.7 127.3,110.5 132.6,96.9 137.8,51.5 143.0,28.0 148.3,171.8 153.5,138.3 158.7,112.5 163.9,118.3 169.2,101.4 174.4,120.6 179.6,98.6 184.9,110.0 190.1,123.4 195.3,135.2 200.5,102.2 205.8,80.2 211.0,116.3 216.2,106.7 221.4,114.3 226.7,120.3 231.9,110.0 237.1,126.9 242.4,127.9 247.6,117.6 252.8,122.6 258.0,110.5 263.3,125.6 268.5,152.9 273.7,113.3 279.0,99.2 284.2,103.9 289.4,103.7 294.6,115.3 299.9,78.2 305.1,92.6 310.3,102.2 315.6,105.0 320.8,111.0 326.0,49.7 331.2,78.0 336.5,80.5 341.7,112.8 346.9,96.9 352.2,107.5 357.4,97.1 362.6,122.6 367.8,137.0 373.1,125.4 378.3,114.3 383.5,139.0 388.8,108.5 394.0,109.7 399.2,129.2 404.4,111.8 409.7,95.6 414.9,118.1 420.1,120.1 425.4,120.6 430.6,114.0 435.8,119.6 441.0,120.6 446.3,123.9 451.5,106.7 456.7,120.6 462.0,116.1 467.2,83.0 472.4,89.6 477.6,86.5 482.9,146.6 488.1,30.0 493.3,192.0 498.6,133.5 503.8,102.4 509.0,137.0 514.2,109.7 519.5,157.4 524.7,102.9 529.9,124.4 535.1,98.1 540.4,113.5 545.6,48.9 550.8,93.3 556.1,117.8 561.3,86.0 566.5,97.4 571.7,101.2 577.0,114.3 582.2,94.9 587.4,89.3 592.7,107.0 597.9,100.9 603.1,78.2 608.3,111.5 613.6,82.0 618.8,93.9 624.0,121.9 629.3,136.2 634.5,108.2 639.7,99.9 644.9,100.7 650.2,110.5 655.4,118.3 660.6,99.9 665.9,89.8 671.1,75.9 676.3,96.9 681.5,127.2 686.8,102.9 692.0,95.6" />
<polyline fill="none" stroke="#cc6633" stroke-width="2" points="28.0,44.6 33.2,58.3 38.5,65.3 43.7,53.9 48.9,29.6 54.1,72.4 59.4,41.3 64.6,35.7 69.8,87.5 75.1,38.6 80.3,29.3 85.5,33.1 90.7,28.4 96.0,32.5 101.2,36.2 106.4,28.4 111.7,66.2 116.9,33.7 122.1,36.8 127.3,34.3 132.6,36.8 137.8,68.0 143.0,107.0 148.3,86.6 153.5,51.1 158.7,73.2 163.9,30.6 169.2,29.8 174.4,29.7 179.6,29.5 184.9,28.1 190.1,34.8 195.3,51.7 200.5,52.3 205.8,41.2 211.0,31.6 216.2,62.9 221.4,28.7 226.7,28.6 231.9,38.0 237.1,63.0 242.4,28.0 247.6,45.8 252.8,37.1 258.0,39.8 263.3,36.7 268.5,48.8 273.7,29.2 279.0,29.4 284.2,40.9 289.4,28.2 294.6,36.3 299.9,45.0 305.1,46.4 310.3,72.3 315.6,92.1 320.8,57.7 326.0,31.2 331.2,78.4 336.5,29.8 341.7,61.9 346.9,52.7 352.2,28.2 357.4,30.8 362.6,33.7 367.8,53.1 373.1,72.7 378.3,28.4 383.5,51.8 388.8,36.3 394.0,36.0 399.2,71.6 404.4,120.7 409.7,74.5 414.9,36.3 420.1,69.7 425.4,34.1 430.6,56.1 435.8,37.0 441.0,33.0 446.3,33.6 451.5,69.9 456.7,51.6 462.0,33.5 467.2,29.3 472.4,29.3 477.6,56.0 482.9,47.2 488.1,29.6 493.3,90.1 498.6,135.8 503.8,35.1 509.0,96.3 514.2,79.5 519.5,53.6 524.7,53.6 529.9,63.6 535.1,33.4 540.4,52.2 545.6,30.9 550.8,68.7 556.1,51.0 561.3,39.8 566.5,41.7 571.7,28.9 577.0,38.6 582.2,29.5 587.4,32.4 592.7,29.7 597.9,148.6 603.1,46.2 608.3,73.7 613.6,30.6 618.8,47.9 624.0,61.5 629.3,41.4 634.5,31.3 639.7,42.6 644.9,71.6 650.2,192.0 655.4,43.7 660.6,69.9 665.9,156.1 671.1,35.4 676.3,51.2 681.5,56.4 686.8,92.4 692.0,50.2" />
<text x="28" y="212" font-family="Arial" font-size="11" fill="#cc6633">flow imbalance</text>
<text x="158" y="212" font-family="Arial" font-size="11" fill="#6666cc">Robintrack d_holders</text>
</svg>