<svg xmlns="http://www.w3.org/2000/svg" width="720" height="220" viewBox="0 0 720 220">
<rect width="100%" height="100%" fill="white" />
<text x="28" y="18" font-family="Arial" font-size="13">XXII alias: flow vs Robintrack d_holders</text>
<line x1="644.9" y1="28" x2="644.9" y2="192" stroke="#999" stroke-dasharray="4 3" />
<line x1="80.3" y1="28" x2="80.3" y2="192" stroke="#999" stroke-dasharray="4 3" />
<line x1="96.0" y1="28" x2="96.0" y2="192" stroke="#999" stroke-dasharray="4 3" />
<line x1="148.3" y1="28" x2="148.3" y2="192" stroke="#999" stroke-dasharray="4 3" />
<line x1="153.5" y1="28" x2="153.5" y2="192" stroke="#999" stroke-dasharray="4 3" />
<polyline fill="none" stroke="#6666cc" stroke-width="2" points="28.0,149.9 33.2,154.9 38.5,148.1 43.7,118.9 48.9,147.8 54.1,163.9 59.4,165.0 64.6,148.6 69.8,172.8 75.1,126.8 80.3,154.6 85.5,162.3 90.7,150.9 96.0,159.3 101.2,146.8 106.4,151.2 111.7,167.9 116.9,157.7 122.1,164.4 127.3,168.4 132.6,155.6 137.8,146.3 143.0,165.5 148.3,122.4 153.5,132.2 158.7,114.6 163.9,133.6 169.2,153.6 174.4,163.9 179.6,164.4 184.9,178.2 190.1,171.2 195.3,174.3 200.5,170.9 205.8,159.3 211.0,157.7 216.2,164.7 221.4,175.1 226.7,156.1 231.9,160.1 237.1,154.6 242.4,165.5 247.6,161.4 252.8,154.0 258.0,138.9 263.3,163.4 268.5,192.0 273.7,172.5 279.0,155.8 284.2,162.9 289.4,164.0 294.6,153.5 299.9,158.0 305.1,180.9 310.3,165.8 315.6,167.5 320.8,159.0 326.0,154.3 331.2,148.8 336.5,164.7 341.7,169.6 346.9,157.4 352.2,151.9 357.4,138.2 362.6,153.8 367.8,155.6 373.1,149.7 378.3,149.1 383.5,145.8 388.8,153.3 394.0,156.1 399.2,160.8 404.4,156.4 409.7,158.7 414.9,155.6 420.1,151.0 425.4,154.5 430.6,159.2 435.8,157.7 441.0,161.1 446.3,160.3 451.5,157.7 456.7,147.8 462.0,155.4 467.2,127.0 472.4,134.8 477.6,143.7 482.9,127.1 488.1,156.4 493.3,147.8 498.6,130.9 503.8,145.2 509.0,147.0 514.2,148.1 519.5,152.3 524.7,147.3 529.9,147.8 535.1,153.0 540.4,166.6 545.6,143.1 550.8,28.0 556.1,94.3 561.3,155.1 566.5,170.1 571.7,147.1 577.0,155.4 582.2,161.1 587.4,159.8 592.7,150.4 597.9,125.7 603.1,143.6 608.3,142.9 613.6,147.1 618.8,144.5 624.0,152.8 629.3,154.6 634.5,156.7 639.7,108.5 644.9,131.0 650.2,127.0 655.4,155.1 660.6,161.0 665.9,153.5 671.1,155.6 676.3,118.0 681.5,132.7 686.8,140.2 692.0,165.8" />
<polyline fill="none" stroke="#cc6633" stroke-width="2" points="28.0,33.5 33.2,49.7 38.5,38.5 43.7,36.5 48.9,29.6 54.1,33.6 59.4,29.2 64.6,35.8 69.8,30.1 75.1,28.8 80.3,40.4 85.5,37.4 90.7,28.5 96.0,38.4 101.2,52.5 106.4,29.7 111.7,29.9 116.9,46.0 122.1,34.8 127.3,39.9 132.6,31.5 137.8,32.3 143.0,39.2 148.3,43.1 153.5,38.4 158.7,77.8 163.9,29.3 169.2,28.4 174.4,28.3 179.6,36.2 184.9,28.9 190.1,29.1 195.3,38.4 200.5,46.1 205.8,33.1 211.0,28.0 216.2,28.5 221.4,29.2 226.7,38.8 231.9,29.0 237.1,39.1 242.4,30.2 247.6,40.4 252.8,29.8 258.0,34.3 263.3,28.3 268.5,33.5 273.7,30.4 279.0,28.2 284.2,74.0 289.4,28.0 294.6,34.2 299.9,30.5 305.1,42.1 310.3,28.4 315.6,57.9 320.8,28.3 326.0,30.1 331.2,31.1 336.5,73.6 341.7,33.1 346.9,51.7 352.2,52.6 357.4,31.1 362.6,30.8 367.8,29.3 373.1,62.2 378.3,31.1 383.5,41.3 388.8,34.2 394.0,62.9 399.2,29.7 404.4,52.7 409.7,50.8 414.9,28.2 420.1,36.0 425.4,38.9 430.6,38.4 435.8,28.3 441.0,120.2 446.3,54.3 451.5,29.5 456.7,31.7 462.0,29.9 467.2,42.9 472.4,37.2 477.6,192.0 482.9,31.9 488.1,61.2 493.3,50.2 498.6,56.8 503.8,39.1 509.0,28.1 514.2,29.2 519.5,52.8 524.7,42.1 529.9,65.1 535.1,28.8 540.4,34.3 545.6,29.7 550.8,30.2 556.1,31.8 561.3,33.1 566.5,46.4 571.7,30.7 577.0,36.2 582.2,28.3 587.4,32.6 592.7,28.5 597.9,39.8 603.1,31.3 608.3,34.6 613.6,28.2 618.8,29.7 624.0,29.8 629.3,30.9 634.5,29.6 639.7,34.6 644.9,34.4 650.2,69.3 655.4,35.3 660.6,30.7 665.9,34.4 671.1,36.4 676.3,32.3 681.5,63.0 686.8,32.0 692.0,53.1" />
<text x="28" y="212" font-family="Arial" font-size="11" fill="#cc6633">flow imbalance</text>
<text x="158" y="212" font-family="Arial" font-size="11" fill="#6666cc">Robintrack d_holders</text>
</svg>