<svg xmlns="http://www.w3.org/2000/svg" width="720" height="220" viewBox="0 0 720 220">
<rect width="100%" height="100%" fill="white" />
<text x="28" y="18" font-family="Arial" font-size="13">IIPR named: flow vs Robintrack d_holders</text>
<line x1="69.8" y1="28" x2="69.8" y2="192" stroke="#999" stroke-dasharray="4 3" />
<line x1="127.3" y1="28" x2="127.3" y2="192" stroke="#999" stroke-dasharray="4 3" />
<line x1="64.6" y1="28" x2="64.6" y2="192" stroke="#999" stroke-dasharray="4 3" />
<line x1="299.9" y1="28" x2="299.9" y2="192" stroke="#999" stroke-dasharray="4 3" />
<line x1="498.6" y1="28" x2="498.6" y2="192" stroke="#999" stroke-dasharray="4 3" />
<polyline fill="none" stroke="#6666cc" stroke-width="2" points="28.0,119.7 33.2,130.3 38.5,132.7 43.7,117.4 48.9,108.1 54.1,120.4 59.4,117.9 64.6,85.8 69.8,28.0 75.1,104.2 80.3,121.8 85.5,128.5 90.7,136.4 96.0,121.3 101.2,134.1 106.4,192.0 111.7,121.4 116.9,88.1 122.1,105.4 127.3,117.1 132.6,112.1 137.8,126.1 143.0,149.2 148.3,122.5 153.5,136.6 158.7,93.9 163.9,88.1 169.2,132.3 174.4,125.5 179.6,132.8 184.9,120.0 190.1,148.2 195.3,133.1 200.5,121.3 205.8,118.6 211.0,112.6 216.2,127.1 221.4,125.7 226.7,126.6 231.9,116.9 237.1,130.3 242.4,124.3 247.6,128.0 252.8,99.8 258.0,113.8 263.3,149.9 268.5,123.0 273.7,126.7 279.0,123.5 284.2,133.8 289.4,119.0 294.6,123.9 299.9,120.5 305.1,111.0 310.3,115.2 315.6,126.4 320.8,119.1 326.0,122.5 331.2,124.6 336.5,126.7 341.7,123.0 346.9,122.4 352.2,123.0 357.4,128.5 362.6,122.1 367.8,122.7 373.1,126.0 378.3,121.6 383.5,124.6 388.8,116.9 394.0,124.7 399.2,129.5 404.4,119.9 409.7,132.2 414.9,119.1 420.1,123.9 425.4,122.5 430.6,129.5 435.8,128.8 441.0,126.4 446.3,124.9 451.5,128.6 456.7,124.3 462.0,128.6 467.2,118.6 472.4,105.7 477.6,97.9 482.9,113.7 488.1,119.6 493.3,114.9 498.6,108.1 503.8,111.3 509.0,105.9 514.2,117.6 519.5,118.2 524.7,118.2 529.9,119.9 535.1,123.0 540.4,122.7 545.6,116.9 550.8,125.3 556.1,121.6 561.3,120.5 566.5,126.3 571.7,123.2 577.0,123.0 582.2,123.5 587.4,122.4 592.7,121.6 597.9,121.6 603.1,119.7 608.3,123.9 613.6,123.2 618.8,117.6 624.0,119.7 629.3,120.7 634.5,118.8 639.7,119.3 644.9,121.6 650.2,121.8 655.4,117.1 660.6,113.3 665.9,126.1 671.1,116.6 676.3,112.4 681.5,115.5 686.8,121.1 692.0,119.6" />
<polyline fill="none" stroke="#cc6633" stroke-width="2" points="28.0,38.1 33.2,168.7 38.5,95.4 43.7,31.3 48.9,30.2 54.1,106.1 59.4,76.2 64.6,113.4 69.8,70.0 75.1,42.6 80.3,126.7 85.5,131.1 90.7,126.0 96.0,28.1 101.2,83.8 106.4,32.5 111.7,136.5 116.9,87.1 122.1,102.9 127.3,57.4 132.6,38.1 137.8,192.0 143.0,79.6 148.3,83.8 153.5,82.2 158.7,94.1 163.9,88.0 169.2,33.9 174.4,37.3 179.6,38.4 184.9,136.3 190.1,31.7 195.3,59.2 200.5,74.9 205.8,164.4 211.0,36.4 216.2,91.9 221.4,52.9 226.7,28.7 231.9,48.5 237.1,83.4 242.4,62.3 247.6,37.6 252.8,189.0 258.0,64.6 263.3,68.5 268.5,33.4 273.7,69.8 279.0,30.0 284.2,89.9 289.4,28.0 294.6,36.1 299.9,34.7 305.1,76.8 310.3,100.1 315.6,156.7 320.8,55.4 326.0,81.5 331.2,52.8 336.5,159.1 341.7,68.5 346.9,38.2 352.2,87.0 357.4,67.6 362.6,58.5 367.8,163.4 373.1,120.1 378.3,40.1 383.5,115.8 388.8,49.3 394.0,33.1 399.2,71.0 404.4,121.9 409.7,99.1 414.9,32.5 420.1,57.0 425.4,50.6 430.6,88.8 435.8,32.5 441.0,85.4 446.3,103.9 451.5,63.6 456.7,55.4 462.0,71.4 467.2,55.8 472.4,33.8 477.6,92.3 482.9,37.4 488.1,86.2 493.3,28.4 498.6,79.1 503.8,101.6 509.0,30.5 514.2,87.5 519.5,126.5 524.7,67.2 529.9,46.7 535.1,66.0 540.4,64.6 545.6,34.6 550.8,138.1 556.1,89.0 561.3,61.6 566.5,108.6 571.7,175.2 577.0,133.3 582.2,76.8 587.4,31.9 592.7,39.4 597.9,80.7 603.1,28.8 608.3,99.2 613.6,35.2 618.8,97.8 624.0,46.9 629.3,77.9 634.5,82.7 639.7,84.5 644.9,96.1 650.2,51.6 655.4,79.9 660.6,40.8 665.9,163.0 671.1,101.9 676.3,48.1 681.5,149.9 686.8,49.4 692.0,89.3" />
<text x="28" y="212" font-family="Arial" font-size="11" fill="#cc6633">flow imbalance</text>
<text x="158" y="212" font-family="Arial" font-size="11" fill="#6666cc">Robintrack d_holders</text>
</svg>