<svg xmlns="http://www.w3.org/2000/svg" width="720" height="220" viewBox="0 0 720 220">
<rect width="100%" height="100%" fill="white" />
<text x="28" y="18" font-family="Arial" font-size="13">LEVI named: flow vs Robintrack d_holders</text>
<line x1="59.4" y1="28" x2="59.4" y2="192" stroke="#999" stroke-dasharray="4 3" />
<line x1="394.0" y1="28" x2="394.0" y2="192" stroke="#999" stroke-dasharray="4 3" />
<line x1="54.1" y1="28" x2="54.1" y2="192" stroke="#999" stroke-dasharray="4 3" />
<line x1="195.3" y1="28" x2="195.3" y2="192" stroke="#999" stroke-dasharray="4 3" />
<line x1="388.8" y1="28" x2="388.8" y2="192" stroke="#999" stroke-dasharray="4 3" />
<polyline fill="none" stroke="#6666cc" stroke-width="2" points="28.0,168.1 33.2,165.0 38.5,169.1 43.7,170.7 48.9,72.2 54.1,38.7 59.4,28.0 64.6,192.0 69.8,189.2 75.1,179.8 80.3,181.5 85.5,167.8 90.7,191.5 96.0,170.1 101.2,175.0 106.4,177.2 111.7,175.5 116.9,169.3 122.1,172.4 127.3,174.4 132.6,172.4 137.8,136.8 143.0,164.3 148.3,166.3 153.5,167.6 158.7,171.1 163.9,165.6 169.2,164.8 174.4,165.1 179.6,173.5 184.9,174.0 190.1,165.1 195.3,166.1 200.5,165.5 205.8,158.4 211.0,170.2 216.2,172.2 221.4,164.6 226.7,172.1 231.9,171.4 237.1,172.2 242.4,172.6 247.6,169.6 252.8,166.8 258.0,166.9 263.3,168.6 268.5,170.7 273.7,157.1 279.0,176.8 284.2,170.7 289.4,169.7 294.6,172.2 299.9,166.5 305.1,164.8 310.3,168.1 315.6,168.4 320.8,166.3 326.0,170.1 331.2,172.2 336.5,174.0 341.7,165.3 346.9,170.2 352.2,173.4 357.4,175.2 362.6,171.2 367.8,177.2 373.1,168.6 378.3,170.2 383.5,136.6 388.8,114.0 394.0,162.7 399.2,174.9 404.4,172.9 409.7,169.1 414.9,175.5 420.1,172.6 425.4,155.2 430.6,166.5 435.8,168.4 441.0,176.2 446.3,171.6 451.5,161.0 456.7,172.7 462.0,167.6 467.2,173.0 472.4,177.5 477.6,175.0 482.9,168.1 488.1,166.0 493.3,174.0 498.6,163.3 503.8,173.9 509.0,159.4 514.2,166.5 519.5,163.2 524.7,169.9 529.9,171.1 535.1,175.8 540.4,166.9 545.6,169.4 550.8,159.9 556.1,169.9 561.3,170.1 566.5,165.1 571.7,167.4 577.0,169.4 582.2,165.6 587.4,166.5 592.7,170.4 597.9,177.3 603.1,175.4 608.3,182.3 613.6,169.3 618.8,177.0 624.0,174.9 629.3,176.5 634.5,184.4 639.7,169.3 644.9,172.1 650.2,170.4 655.4,172.2 660.6,147.2 665.9,157.6 671.1,169.1 676.3,167.8 681.5,168.4 686.8,168.9 692.0,169.9" />
<polyline fill="none" stroke="#cc6633" stroke-width="2" points="28.0,29.1 33.2,55.6 38.5,39.4 43.7,53.1 48.9,35.6 54.1,192.0 59.4,41.5 64.6,53.7 69.8,34.2 75.1,35.3 80.3,79.9 85.5,52.1 90.7,77.0 96.0,63.8 101.2,77.5 106.4,56.6 111.7,124.6 116.9,120.4 122.1,81.5 127.3,75.9 132.6,72.7 137.8,36.6 143.0,72.3 148.3,74.1 153.5,58.3 158.7,73.9 163.9,57.8 169.2,35.9 174.4,33.8 179.6,33.7 184.9,36.2 190.1,48.0 195.3,44.4 200.5,31.1 205.8,38.7 211.0,33.8 216.2,35.9 221.4,28.0 226.7,118.7 231.9,28.0 237.1,46.3 242.4,47.1 247.6,75.5 252.8,52.8 258.0,33.9 263.3,39.5 268.5,38.6 273.7,28.0 279.0,28.0 284.2,60.0 289.4,28.2 294.6,32.4 299.9,33.4 305.1,64.4 310.3,54.5 315.6,44.1 320.8,28.2 326.0,43.6 331.2,34.6 336.5,48.6 341.7,38.9 346.9,46.6 352.2,67.1 357.4,53.4 362.6,61.4 367.8,67.8 373.1,83.8 378.3,28.0 383.5,86.2 388.8,34.9 394.0,28.2 399.2,45.8 404.4,56.8 409.7,28.1 414.9,29.8 420.1,70.8 425.4,44.0 430.6,56.4 435.8,28.1 441.0,30.5 446.3,92.3 451.5,40.9 456.7,49.1 462.0,28.0 467.2,54.7 472.4,30.6 477.6,49.6 482.9,28.9 488.1,45.7 493.3,63.0 498.6,43.3 503.8,35.7 509.0,28.0 514.2,30.4 519.5,43.3 524.7,58.6 529.9,28.7 535.1,46.2 540.4,41.5 545.6,30.4 550.8,47.9 556.1,52.2 561.3,55.0 566.5,83.7 571.7,67.3 577.0,62.1 582.2,62.4 587.4,30.9 592.7,30.1 597.9,32.4 603.1,29.2 608.3,49.9 613.6,30.0 618.8,81.9 624.0,49.6 629.3,62.0 634.5,39.1 639.7,85.1 644.9,87.7 650.2,105.1 655.4,46.0 660.6,36.0 665.9,35.4 671.1,45.6 676.3,38.0 681.5,58.1 686.8,33.2 692.0,46.2" />
<text x="28" y="212" font-family="Arial" font-size="11" fill="#cc6633">flow imbalance</text>
<text x="158" y="212" font-family="Arial" font-size="11" fill="#6666cc">Robintrack d_holders</text>
</svg>