<svg xmlns="http://www.w3.org/2000/svg" width="720" height="220" viewBox="0 0 720 220">
<rect width="100%" height="100%" fill="white" />
<text x="28" y="18" font-family="Arial" font-size="13">RIOT named: flow vs Robintrack d_holders</text>
<line x1="153.5" y1="28" x2="153.5" y2="192" stroke="#999" stroke-dasharray="4 3" />
<line x1="28.0" y1="28" x2="28.0" y2="192" stroke="#999" stroke-dasharray="4 3" />
<line x1="33.2" y1="28" x2="33.2" y2="192" stroke="#999" stroke-dasharray="4 3" />
<line x1="38.5" y1="28" x2="38.5" y2="192" stroke="#999" stroke-dasharray="4 3" />
<line x1="75.1" y1="28" x2="75.1" y2="192" stroke="#999" stroke-dasharray="4 3" />
<polyline fill="none" stroke="#6666cc" stroke-width="2" points="28.0,143.5 33.2,116.1 38.5,130.3 43.7,190.4 48.9,106.6 54.1,140.8 59.4,153.5 64.6,145.1 69.8,104.5 75.1,192.0 80.3,187.3 85.5,118.7 90.7,96.6 96.0,146.1 101.2,137.7 106.4,149.3 111.7,139.8 116.9,159.8 122.1,126.6 127.3,172.0 132.6,152.5 137.8,124.5 143.0,180.4 148.3,140.8 153.5,28.0 158.7,177.8 163.9,150.9 169.2,147.7 174.4,183.6 179.6,131.4 184.9,131.9 190.1,150.3 195.3,146.1 200.5,145.6 205.8,121.3 211.0,146.6 216.2,143.5 221.4,118.2 226.7,124.5 231.9,118.7 237.1,155.6 242.4,166.2 247.6,162.5 252.8,138.2 258.0,139.3 263.3,180.9 268.5,176.7 273.7,170.9 279.0,154.6 284.2,146.6 289.4,150.9 294.6,140.3 299.9,170.4 305.1,168.8 310.3,177.2 315.6,130.3 320.8,130.3 326.0,161.4 331.2,141.4 336.5,166.7 341.7,138.2 346.9,155.1 352.2,144.0 357.4,126.6 362.6,149.3 367.8,166.2 373.1,153.0 378.3,141.9 383.5,147.2 388.8,158.3 394.0,146.6 399.2,158.8 404.4,160.4 409.7,145.6 414.9,158.8 420.1,155.1 425.4,160.4 430.6,145.1 435.8,143.0 441.0,133.5 446.3,133.5 451.5,153.5 456.7,124.5 462.0,106.0 467.2,139.3 472.4,148.2 477.6,140.3 482.9,159.3 488.1,137.2 493.3,140.3 498.6,153.5 503.8,156.7 509.0,140.8 514.2,155.1 519.5,164.1 524.7,168.3 529.9,166.7 535.1,141.9 540.4,152.5 545.6,145.6 550.8,157.7 556.1,155.1 561.3,146.1 566.5,118.2 571.7,131.4 577.0,134.5 582.2,145.6 587.4,140.8 592.7,150.3 597.9,136.1 603.1,134.0 608.3,160.4 613.6,148.8 618.8,150.3 624.0,136.1 629.3,139.8 634.5,139.3 639.7,146.6 644.9,145.1 650.2,155.1 655.4,120.3 660.6,146.1 665.9,118.2 671.1,158.3 676.3,127.7 681.5,129.2 686.8,113.4 692.0,163.0" />
<polyline fill="none" stroke="#cc6633" stroke-width="2" points="28.0,29.0 33.2,91.9 38.5,104.7 43.7,88.8 48.9,35.9 54.1,39.0 59.4,28.0 64.6,41.9 69.8,35.0 75.1,37.3 80.3,31.1 85.5,29.5 90.7,28.1 96.0,33.2 101.2,29.9 106.4,28.2 111.7,32.8 116.9,32.3 122.1,31.9 127.3,34.7 132.6,29.7 137.8,28.8 143.0,39.1 148.3,28.3 153.5,29.8 158.7,30.3 163.9,29.3 169.2,28.0 174.4,28.0 179.6,28.5 184.9,30.5 190.1,31.4 195.3,28.2 200.5,31.8 205.8,31.9 211.0,29.8 216.2,33.3 221.4,29.0 226.7,32.3 231.9,28.3 237.1,28.1 242.4,32.8 247.6,56.6 252.8,36.5 258.0,28.4 263.3,29.0 268.5,31.2 273.7,28.0 279.0,28.0 284.2,36.8 289.4,28.0 294.6,28.4 299.9,28.4 305.1,51.8 310.3,138.0 315.6,30.0 320.8,52.0 326.0,29.9 331.2,30.4 336.5,49.7 341.7,32.7 346.9,39.4 352.2,30.8 357.4,33.0 362.6,55.5 367.8,33.8 373.1,61.6 378.3,28.3 383.5,28.6 388.8,32.4 394.0,40.8 399.2,44.4 404.4,29.3 409.7,114.9 414.9,28.0 420.1,35.6 425.4,35.0 430.6,48.9 435.8,30.0 441.0,66.6 446.3,55.0 451.5,37.1 456.7,31.5 462.0,28.3 467.2,28.6 472.4,28.5 477.6,99.9 482.9,28.3 488.1,28.3 493.3,28.1 498.6,32.5 503.8,33.3 509.0,32.6 514.2,28.8 519.5,33.9 524.7,32.9 529.9,40.4 535.1,28.4 540.4,44.8 545.6,28.9 550.8,52.9 556.1,51.7 561.3,37.9 566.5,33.6 571.7,29.7 577.0,42.5 582.2,28.5 587.4,29.7 592.7,29.1 597.9,30.2 603.1,54.6 608.3,51.5 613.6,33.7 618.8,41.8 624.0,40.0 629.3,61.6 634.5,43.6 639.7,37.0 644.9,49.4 650.2,192.0 655.4,64.8 660.6,55.3 665.9,47.2 671.1,44.1 676.3,33.7 681.5,73.9 686.8,31.1 692.0,36.6" />
<text x="28" y="212" font-family="Arial" font-size="11" fill="#cc6633">flow imbalance</text>
<text x="158" y="212" font-family="Arial" font-size="11" fill="#6666cc">Robintrack d_holders</text>
</svg>